<mxfile host="Electron" agent="Mozilla/5.0 (Windows NT 10.0; Win64; x64) AppleWebKit/537.36 (KHTML, like Gecko) draw.io/27.0.9 Chrome/134.0.6998.205 Electron/35.4.0 Safari/537.36" version="27.0.9">
  <diagram name="Page-1" id="NTg_be_6yLBMyFrJ0iR9">
    <mxGraphModel dx="1281" dy="634" grid="1" gridSize="10" guides="1" tooltips="1" connect="1" arrows="1" fold="1" page="1" pageScale="1" pageWidth="850" pageHeight="1100" math="0" shadow="0">
      <root>
        <mxCell id="0" />
        <mxCell id="1" parent="0" />
        <mxCell id="u_DipVWJh2a4aAwE_JY7-4" value="" style="shape=image;verticalLabelPosition=bottom;labelBackgroundColor=default;verticalAlign=top;aspect=fixed;imageAspect=0;image=data:image/png,iVBORw0KGgoAAAANSUhEUgAAAlUAAAN7CAYAAABs129AAAAAAXNSR0IArs4c6QAAAARnQU1BAACxjwv8YQUAAAAJcEhZcwAADsMAAA7DAcdvqGQAAK7PSURBVHhe7d0JvNTz/sfxj/ZVKSltVFIpRJJUok2EFqUiFcnaorJEuK6LP5F9S0UINy2yhKuUFC2W615SKaUUbVeL9vXv/e03x5zTWeac+c0585t5PR+P8zjz+81yZuZ7fr95z3c94sCBAwctDx1xxBHeJQAAgPh08GDWcSmf9xsAAABRIFQBAAD4gFAFAADgA0IVAACADwhVAAAAPiBUAQAA+IBQBQAA4APmqQKisH//fps5c6Z9/PHH9u9//9s2bNhg+/bts6OPPtpOOeUUa9GihV1wwQVWuHBh7x4AgCCKZJ4qQhWQQ7Nnz7b777/fli1b5u1J37HHHmtDhgyxjh07ensAAEFDqAJi5Nlnn7UnnnjC/jx+vD1Z69atm913332WP39+bw8AICiYUR2IgRdeeMEee+yxbAUq+ec//2l33XWXtwUASDSEKiAb5s2bZyNGjPC2su+tt95yPwCAxEPzHxAhVf1ecskl9sMPP3h7cqZcuXI2Y8YMK1asmLcHABDvaP4DfDR37tyoA5VohOA777zjbQEAEgWhCojQtGnTvEvR8/OxAADxgVAFROi7777zLkXPz8cCAMQHQhUQofXr13uXordp0ybbu3evtwUASASEKgAAAB8QqoAIHXPMMd6l6B111FFWsGBBbwsAkAgIVUCETj75ZO9S9Px8LABAfCBUARFq3bq1dyl6fj4WACA+EKqACDVu3NhOOukkbyvnNPln+/btvS0AQKIgVAER0uz/w4YNs3z5ojtsBg8ezGzqAJCACFVANpx11lk2ZMgQbyv7LrvsMvcDAEg8hCogm66//npX25TdGqtu3brZ/fff720BABINCyoDOTR79mwXkpYtW+btSd+xxx7rarc6duzo7QEABE0kCyoTqoAo7N+/32bOnGkff/yx/fvf/3aLJe/bt8+OPvpoO+WUU6xFixZ2wQUXWOHChb17AACCiFAF5AHVTP3222/eFgAgEUQSquhTBQAA4ANCFQAAgA8IVQAAAD4gVAEAAPiAUAUAAOADQhUAAIAPCFUAAAA+IFQBUVi3bp13KXOR3g4AEFyEKiAK06dPt7lz53pb6dP1uh0AILERqoAotGvXznr27JlhsHrmmWesT58+7nYAgMRGqAKiULp0aatXr55ddtllhwWru+66y4YPH24tW7Z0twMAJDZCFRClW265xS2sfPnll6cEKwWqMWPG2IEDB6xHjx5uHwAgsbGgMuCDunXr2u+//25Fixa1nTt3un21a9d2oWrWrFluGwAQXCyoDOQS9auSUKCScuXKUUsFAEmEmirAB5s3b7aTTz7Z9u3b57arVq1qW7ZssXnz5tGfCgASADVVQC5RcDrjjDO8LbNatWpZ69atCVQAkEQIVYBP1GE9f/787vLy5ctp+gOAJEOoAnzSpEkTK1WqlLuscNWoUSN3GQCQHAhVgI9CHdappQKA5ENHdcQ1dQxcuXKlzZw509auXRtRR8G8tHv3bnvxxRft2muvtcKFC3t744+OO/1UqVLFWrVqZeXLl/euAQCkJ5LPH0IV4pJG0U2cONF++OEHO+6446xp06Z27LHHetfGt9mzZ1uzZs28rfi2atUq+/TTT92CzxdeeKE1btzYuwYAEI5QhUCaP3++vf3229axY0erU6eOtxexNm3aNPvvf/9rt956q5UoUcLbCwAQQhUCZ9SoUZYvXz7r0qWLtwe5SXNrPfvss3bTTTe5pkEAwCGEKgTKCy+8YDVr1rSGDRt6e5AX1PT6yCOP2J133mklS5b09gJAcoskVDH6D3Fh8uTJrs8UgSrvFShQwG688UZ77LHHvD0AgEgQqpDnNm3aZIsXL7bzzjvP24O8pvm2tOyO+rcBACJDqEKeUz+q0PxOiB8tW7a0Dz74wNsCAGSFUIU8pXmd1E595JFHensQL9TfUU2yGzZs8PYAADJDqEKe0qSemoMK8UllM336dG8LAJAZQhXy1Hfffef67uSGnTt3uoDw/fffe3uQlapVq9rq1au9LQBAZghVSDi//vqr7dmzx9v6i5a5KVu2rD344INupvZorVmzxvbu3ettHS6j5xE0kQwjBgAQqpDHsvuBraH+ajIM99lnn9l1113nbZm1adPGFi5c6G2ZrVixwi3Bcvfdd7v+QaeccoqddNJJ3rWRe/31123jxo3eltm5555rS5cu9bYOl/Z5BBWhCgAiQ6hCoHzzzTe2fv16b+sQBaWvv/7a2zJ7+eWX3SSiIVp+RfuuvPJKK126tA0dOtS7Jnvuv/9+++WXX7ytrKV9HgCAxEaoQsKZMWOGW25FVMtSpEgRGzZsmE2dOtVNbBnywAMPuP5Vt99+u5vSYfz48d41h1MtlR7zmWeecaFs7ty5br9qrjK6f/jzSEt/W/3JbrvtNuvRo4d9+OGHrqlQM5lrW7PLh9cQ6fKrr75q11xzjQ0YMMCFy5CsXode+7Zt27wts/fee88+/vhjbwsA4BdCFQJHfaN+/PHHlJ/ffvvNu+aQ1157LaU2a+DAgS5E9O7d2zXXde/e3YUZGTt2rPXr188aNWpkl156qQtLs2bNctelpSZDhbMzzzzTWrVqlbIu3j333JPh/cOfR1r623puzZo1c02TV111lV199dWuJq1Xr1723HPP2aRJk7xbR/c6nn/+edu+fbu3Zfb5558zqScAxAChCoGjWhzVyIR+tABwelauXGkTJkxwNTyaGqBTp06uT5YmGw0ZPHiw29++fXvr2rXrYf21QjRCsXDhwimhqnLlym5/pPdPz6BBg+ziiy+2yy+/3M466yyrWLGi9e3b11q3bu2ClfqKiZ+vAwAQO4QqBM69995r8+bNS/lRX6f0aOmb/fv3u+VvVIujQDRy5MhUNVs1atTwLpkbGZhRc11Gorl/9erVvUtmRx11VKrH0vbmzZvd5dx4HQCA6BGqkLDUlKaAoeCl5q4FCxa4qRRU6xOiWcPDZXekWzT3T3vfjB4r2tdRqFAh27dvn7dlqfpXAQD8Q6hCwjr11FOtYMGC9sorr3h7zHbt2uWa03KiTJkybm6q3Bbt61CNmPpRifqjffTRR+4yAMBfhCokLHUs16g9NZU1aNDAdfCuX7++zZkzx7tF9qjfkkbrnXjiiTZu3Dhvb+xF+zruuusuGzJkiOuPpf5WjRs39q4BAPjpiAMHDmSvvcNnaZstkFyGDx9u119/vbcVO5r6YMeOHW6BYNX65IZly5a5Du0KRX7J6evQEj2qpTruuOMsX77sfZfS6EFN1wAAySyS7h3UVCFP5VaoPvroo906drkVqKRDhw62aNEib8sfOX0dRYsWtWrVqmU7UAlffAAgMoQq5KlE/sDWJJy1a9f2toKLUAUAkSFUIU/Vq1cvZRLLRFO3bl1XQxRkq1atSpmTCwCQOUIV8pTmXsppx3HEnspGk50CALJGqEKe0izlal7aunWrtwfxQp0yNcFouXLlvD0AgMwQqpDntDSLlmBBfPnkk0/cuoQAgMgQqpDntCSLOnSzXl380DI36uumZXEAAJEhVCEuaDFgNTV9+eWX3h7kFS1p89xzz7nJTgEAkWPyT8SVUaNGubmUunTp4u1BblINlQLVjTfeaFWqVPH2AgAimfyTUIW4owWDJ0+ebB07drQ6dep4exFr06ZNs//+97926623WokSJby9AAAhVCGw1AQ1adIkW7hwoVtaRevWaWkW+EvzUH366ae2fv16u+CCC1gXEAAyQKhC4OmfWB/86sSuPleR/FPntaefftr69+/vbcUnHXf6UROf5qEqX768dw0AID2EKiAPqEZNARAAkDgiCVWM/gMAAPABoQoAAMAHhCoAAAAfEKoAAAB8QKgCAADwAaEKAADAB4QqIArr1q3zLmUu0tsBAIKLUAVEYfr06TZ37lxvK326XrcDACQ2QhUQhXbt2lmfPn0yDFbar+t1OwBAYiNUAVEoXbq0W/S5R48ehwUrbXfv3t1atmzpbgcASGyEKiBK55xzju3cudP69u2bEqz0W0Fr79697jcAIPGx9h8QpX379lm1atWsXr16tnr1atu4caMVL17cdu3aZccff7zNmTPHuyUAIKhY+w/IBQUKFLCzzz7bvv32Wzv99NPdvu3bt1vFihWtV69ebhsAkPioqQJ8sHDhQmvVqpW3dYhqq7766iv6UwFAAqCmCsgldevWtfLly3tbZmXLlrULLriAQAUASYRQBfjkqquu8i79eWDly0cHdQBIMjT/AT4JdVjX7xo1atBBHQASCM1/QC4KdVgXOqgDQPKhpgoJbevWrfbkk09asWLFvD2xtX79env11VetX79+VqRIEW9v7OzYscMGDhxoRx55pLcHABALkdRUEaqQsBSo/u///s+FjtwKVTJ79mxr1qyZtxVbmrpBofHOO+8kWAFADBGqkLTyKlDlBYIVAMQefaqQlJIpUInmw9JrffDBB91rBwDkDUIVEkqyBaoQghUA5D1CFRJGsgaqEIIVAOQtQhUSQrIHqhCCFQDkHUIVAo9AlRrBCgDyBqEKgZadQLV///5Uv8P98ccftnz5ctu1a5e3x2z8+PHepdhL7zlppMmvv/5qv//+u7cn89cQjmAFALmPUIXAym4NVe3atVP9Fj1G79697dRTT7W+ffta/fr13Zp9ClfXXnutd6vYueOOO6xOnTpWpkwZ+/LLL729Zr/88os1btzYzcx+1lln2T/+8Q+3P73XkBGCFQDkLkIVAim7gSojWgS5YMGC9sMPP9gnn3xiixcvti5dutjevXu9WxyaJT29UKLbqCYp7dwlWvtPMrpfuE6dOtnMmTPdmoHh9JrefvttmzZtmntejz/+uO3Zs8e7NnIEKwDIPYQqBE5OA1XhwoVT/V6yZIl9/vnn9uijj6ZaUqZ9+/ZWsmRJd3nIkCGuJqthw4Y2evRot09effVVO/300+2GG26wM844w/79739715iVLVs2w/ulpesrVKjgbf1Fj3Hssce6ywsWLLATTzzRChUqdNhriATBCgByBzOqI3DUZKbAEgodOTV58mQbPny4zZs3z9uTWqlSpWzcuHF28cUX288//2ytW7e2pUuXutqpJk2auPuVL1/e3n33XXvooYfsiy++yPR+mVGz46hRo1zICjdr1iwbMGCAq7WqXr26tzdnfvvtNzv33HO9LQBILDrHxRLL1CAhbdmyxfUxGjRoUEqNUk4oVD3yyCM2d+5cb09qCkcbNmxwNUSiGqVVq1bZv/71Lxs7dqxNmjTJ7f/zGHLhSh3d9Xwyul9oOz0ZhaqWLVvaPffcY82bN/f25Iw64qsJ8e6773bPDwASib5kx0OoovkPgaNQoHCgkKCwkFN169a1FStWuJCWkfAgpC8AClA6sNL7MhC+L7375YSaN48//nhvK2cIVACQOwhVCCQ/glWtWrWsadOmdsstt6SaSkHNeZk9pvpQff3117Zu3Tq3/f7771vNmjWtRIkSbttPGpEYTRAiUAFA7iFUIbD8CFYvvfSSG61Xr149a9WqlZuqQM2CmTXVVaxY0f7+979bixYt7KKLLrJ7773Xnn32We/a7FGgUyBT86BGHWp6hXDq8K7pFXKCQAUAuYs+VQg8P/pYbd++3TZu3Oj6P0U6sm7btm1uOgQFq3j7PyZQAUgm9KkCfOJHjZWmHTjuuOOyNVWBZjrX3yVQAQCEmiokDL9GBWaHlovJnz+/t5X3CFQAkhE1VYDP/Kixyi4CFQAghFCFhJIXwSoeEKgAIO8RqpBwki1YEagAID4QqpCQkiVYEagAIH7QUR0JTZ3XR4wYkWrB5Fh7+umnrX///t5WbO3cudPNdUWgApDM4qWjOqEK8FluHNwAgL8w+g9IIpp6Ify3ZnFPSwdsTtcITPv4AIDcR6gCckGlSpVS/e7evbubUytEgap58+b28ssve3uyJ+3jAwByH6EKyAPPPfecjRw50r799lu3/dRTT7kFmfv06eO2RbVWq1evTrdWS9XcWhMwpzVbAAD/EaqAXBDqKB/6Xa5cORekevXqZT/88IMNHz7cRo0a5a6TKVOmuMWV+/btayeddJJNnTrV7d+6daudddZZdvnll9s111xj5557rtuf9vEBALmPjuqAz7LTYVLNgApMzzzzjPXs2dPtW79+vTVs2NAWLFhg5cuXt1WrVlnTpk1t+fLl7rbjxo2zCRMmuNvG2zI5AJAX6KgOwE2HoNqlUKCSuXPnui8bjzzyiLteNVrbtm2zFStW2GmnnWZffPGF9ejRw4WrHTt2ePcCAOQ1QhWQh1TLlC9f6sNQ/aQqVKhgHTp0SPl59913rWLFila1alVbvHix2zd9+nSrX7++m6sKAJD3CFVAnFGfqZ9//tkFKzX76Uf9qooXL26bN292Hdo7d+7sRgru2rXL1q5d690TAJCXCFVAnFHfgOeff97atGljrVq1ssaNG9uFF17orvv444+tZs2a1q5dO2vQoIHbX61aNXcdACBv0VEd8JlfHSbVKXLNmjWuz9XRRx/t7TVXO6XHL1OmDMvTAMCf4qWjOqEK8FluHNwAgL8w+g9IAOvWrfMuZS7S2wEAgotQBURBI/A0BUJmdL1uBwBIbIQqIArqMH7VVVdlGKzee+89t/SMbgcASGyEKiAKpUuXtuOPP94tG5M2WE2aNMluuukma9mypbsdACCxEaqAKN18881uRF7v3r1TgpUC1YABA9wyMpr9HACQ+Bj9B/hAc0ft3r3bihUrZlu2bHGzpGsaBNVQzZo1y7sVACAWGP0HJJBOnTrZ3r17XbASLTVTqVIlaqkAIIlQUwX44Pfff7eTTz7ZhSlRjVWBAgVs/vz59KcCgBijpgpIIJrdXOvzhdSuXdstM0OgAoDkQagCfDJkyJCUmteNGzfS9AcASYZQBfikbdu2Vrx4cXdZ6/U1atTIXQYAJAdCFeAjdVgXaqkAIPnQUR15Ys2aNTZjxgzXsVCd/yLpABgEmq9q5MiRdt1117naqqALHZ/qBNqiRQurXLmy2waAeBIvHdUJVcg1mgjz7bfftu+//96qVKliTZs2dQdCopk9e7Y1a9bM20oMOlnNmTPHVq1aZfXq1XM1cvnz5/euBYC8RajyEKqSw1dffWWTJ0+29u3bW506dby9CKJFixbZO++844LVGWec4e0FgLxDqPIQqhLfSy+95H537tzZ/UZimDBhgvutBaMBIC8RqjyEqsT24osv2gknnECNRoJSDeTSpUtdHzIAyCvxEqoY/YeYmTJlivtHJ1AlLpVtxYoVXV85AEh2hCrExKZNm2zx4sXWvHlzbw8SlcpYZa0yB4BkRqhCTIwZM8auvPJKbwuJTmU9evRobwsAkhOhCr7bvXu3a3suWbKktweJ7sgjj3RlrrIHgGRFqILvZs6caU2aNPG2kCw075jKHgCSFaEKvlu4cKGbIBLJRWWuiV0BIFkRquC7SIad+mXnzp02ffp0PszjRG6WPQDEG0IVfBeLD9Zff/3V9uzZ4239Ze3atVa2bFl78MEH7YcffvD2RkfrEu7du9fbSi2j55ERzeGk55bee5LVY2X2PDK7LivvvfeePfTQQzZ27Fhvj38IVQCSGaEKee7GG288rC/OZ599lmpCyTZt2rhmxZAVK1bYhRdeaHfffbdt2LDBTjnlFDvppJO8ayP3+uuv28aNG72tQ84991wXhtKT9nmES++xatasaVu3brWnnnrK2/OXzB5LMnsemV2XlYsuusjNbq8aPgCAfwhVyHPffPONrV+/3ts6REHp66+/9rbMXn75ZRdQQqZNm+b2aSh/6dKlbejQod412XP//ffbL7/84m1lLe3zCJfRY6mmSjVS27Zt8/YcktljxZJWMdCiz6NGjfL2AAD8QKhCIMyYMcO2bNniLquJqUiRIjZs2DCbOnWqFShQwO2XBx54wPWvuv32261nz542fvx475rDqWZJj/nMM8+4UDZ37lzvGnM1Tuk9RvjzCJfRY33wwQc2cOBA+/bbb+2RRx5xYTEko8dKj6YqePjhh23OnDnenoyfowKcasZ69erlnsuqVau8aw49n/79+7taKjUBhj8fyc77BwBIjVCFuKC+UT/++GPKT9o1nF577bWU2iyFFPUL6t27t2sG6969u3333XfuOvUT6tevnzVq1MguvfRSFypmzZrlrktLTYYKZ2eeeaa1atXKqlSp4l1jds8996T7GOHPI1xGj6Umunbt2rnnLJdccont37/fXc7osdJS8OrUqZNrRgyfqiKj56gw9fnnn1vfvn3tmGOOcTOeh/5OZs9HsvP+AQBSI1QhLrzwwguuZiT08+yzz3rXpLZy5UqbMGGCvfrqq25eJIUN9ckKb8oaPHiw29++fXvr2rVrhnMnnXzyyVa4cOGUIFS5cmXvmsgfIySjx1J4admypVWqVMmFnc2bN2erL5SaE9u2bevCj2qRwhcgT+85KpDqt94PvT+6zdlnn+2aGiWS55Pd1w4AOIRQhbhw77332rx581J+1D8pPVpjTjUr5513nqtNUYgZOXJkqpqtGjVqeJfMjQyMtIktnB+PIXodqsVSp3vV+vzxxx8R1U6FXHPNNdaiRYtUnfZD0nuOP/30kx1//PFuhvOQU0891ZYtW+YuR/J8/HrtAJBsCFUIFHVK1we9gtf8+fNtwYIFbioF1V6FhNfmSE6G+fvxGAqAak776quv7P3337e33nrLSpQoYQcOHPBukbXHHnvMJk+ebG+//ba35y/pPcdSpUq52qdwWuhY71ukz8eP1w4AyYhQhUBRrUvBggXtlVde8faY7dq1yzUL5kSZMmXcnE9+SPtYO3bscAElf/78bnvKlCmH9RXLSt26de2dd96xu+66y958801vb8bq16/vavLU50xUCzVp0iQ3fYMfzwcAkDFCFQJFncE10k5Nfg0aNHAd1RUkwkfFZYf6D91222124okn2rhx47y9OZP2sU477TTXRKnf6iw+ceJEq127tnfryOnxNMpRo/Veeuklb2/6ihUrZmPGjHHPQ32q9Pc17UTr1q19ez4AgPQdceDAgTyt20/b1IDg09QB6fUB8pumFFDty7HHHutqr3KD+iapE7rCXaQ0c7r+z/U8c4ua7FavXm3lypU77LnG8vlowIECHQDkJp3PYl3zHklXCGqq4LvcCspHH320Va1aNdcClXTo0MEWLVrkbUWmYsWKuRqoRGWgaR3SC3+xfD58SQKQzAhV8F2tWrVcp+hEpMkwaTJLn8pcZQ8AyYpQBd9pHiSt3ZeI1HG8aNGi3hbCaZJQzdEFAMmKUAXfqbO0llXZu3evtweJTmWtMlfZA0CyIlQhJrp16+ZGlyE5aJ4wlTkAJDNCFWJCs3Jrtu5169Z5e5CoVMYq6xNOOMHbAwDJiVCFmOnfv7+NHj3aTc6JxKSy1TqDAwYM8PYAQPIiVCFmtMCwJsR8/PHHCVYJSGWqZXRUxiprAEh2hCrEVPny5e3mm2+2ESNGZGshYcQ3leWjjz7qyrZChQreXgBIbsyojlyhkWFPPvmkW/C3c+fOuTphJ/yjUX7qlL5161YbOHAgNVQA4kK8zKhOqEKuWr58ub3xxhturqdmzZoxkWZAaGJPzT22c+dOu/zyy91ABACIF4QqD6EqOWnNvmnTptnSpUvdP2ok/6xBoT5kgwYN8raCTcenfmrWrOkWZWYeKgDxiFDlIVQh0eTGwQ0A+Eu8hCo6qgMAAPiAUAUAAOADQhUAAIAPCFUAAAA+IFQBAAD4gFAFAADgA0IVEIV169Z5lzIX6e0AAMFFqAKiMH36dJs7d663lT5dr9sBABIboQqIQrt27eyqq67KMFi988471qdPH3c7AEBiI1QBUShdurRVq1bNunfvfliwGj9+vPXv399atmzpbgcASGyEKiBKWudv9+7d1rt375RgpUA1ePBg279/v/Xo0cPtAwAkNtb+A3xw4okn2s6dO6148eK2ZcsWy5cvn5UrV85KlSpls2bN8m4FAIgF1v4DEkinTp1s3759LljJn19WrFKlStRSAUASoaYK8MGmTZusXr16LkyJaqzy589v8+fPpz8VAMQYNVVAAjnqqKOsbt263pZZ7dq1rU2bNgQqAEgihCrAJ7fccktKzeuGDRto+gOAJEOoAnyimqkSJUq4y0WKFLFGjRq5ywCA5ECoAnykDutCLRUAJB86qiMurVmzxmbMmGG//vqr246kg2A82LVrl40cOdKuu+46V1sV70LHX8WKFe28886zypUru20ACJJ46ahOqELc0ESZU6ZMse+++86qVKliTZs2dQdK0MyePduaNWvmbQWDTkZz5syxVatW2cknn2wdO3Z0oxcBIAgIVR5CFeTrr7+2yZMn2yWXXGJ16tTx9iIvLFq0yK1ZqKbMM844w9sLAPGLUOUhVOGll15yvzt37ux+Iz5MnDjR/b766qvdbwCIV4QqD6Equb344otuiZfTTz/d24N48tVXX9myZcvs2muv9fYAQPyJl1DF6D/kGfWf0lIuBKr4peY/naxUVgCAzBGqkCe0rMuSJUsC16E7GTVv3twWL17sygwAkDFCFfLEmDFj7Morr/S2EO9UViozAEDGCFXIdbt373a/Q7OPI/6VLFnS9ScIlR0A4HCEKuS6mTNn0uwXQJo3TGUHAEgfoQq5buHChVa3bl1vK3FpIs0dO3Z4W8GnMlPZAQDSR6hCnjhw4IB3yR9a1mbv3r3e1uE2bNhggwcPjklnay2ls2fPHm/rL//5z3/smmuu8bYSQyRDigEgWRGqkOuy+8F84403Wrdu3VIFl88++8wGDhzobZmde+65tnTpUm/rcLfeequVKVPG7rzzTm9Pzrz++uu2ceNGb+uQNm3apKrBWbFihV144YU2fvx4N3Fm2tsHGaEKADJGqELc++abb+yTTz5JmXldVPP07bffeluZUy2WQtddd93l5l1au3atd0323X///fbLL794W4e8/PLLVrNmTW/LbNq0aW6fRswdeeSRdvTRR3vXxJ76PGkNxbQWLFhgW7du9bYAALFAqEIgXHXVVfboo4/a9u3bvT2HU43Q7bffbj179nS1RCFqhtPagldccYXr55R2oeAHHnjA/v3vf7vmQdUsvffee941qamWasuWLfbMM8/Y0KFDbe7cuW7/jBkz3H5RTU6RIkVs2LBhNnXqVCtQoIDbH6K/9f3336f7PNNSE+mrr77qZjPX63/ttde8a8zuvvvuVCFp7Nix9vzzz9sLL7zg3odnn33WevXqZf3797d3333X3nrrLTczumT2uACAnCNUIRCaNGli9evXd4EmI/fcc481atTILr30Uhd6Zs2a5farWbBdu3YpzYVatDm8NkeBRE2M5513nltE+LbbbrO3337bu/Yvp5xyigtMZ555prVq1cqqVKni9iuUrF+/3l3W31Ao6927t6sd6969u3333XfuOtHf6tevX7rPM62bbrrJBbnLLrvM+vTpkxLcZOTIkbZt2zZvy1ytnR6rWLFiLrCpZq9v375WrVo1V2P2+eefpyxUndnjAgByjlCFwPjb3/7mQtX//vc/b09qqmlSKGrfvr117do1Zfi/gk7Lli3dkjiqvdm8efNh/a8Uqi6++GK76KKLXDNheuHt5JNPtsKFC6eEqsqVK3vXHLJy5UqbMGGCqwXS9AN6LnrcUaNGebc4JKPnGU79siZPnmxvvPGG+1t6PIWxjGjOr5tvvtn+/ve/uxqy0aNHu/vobym8tW3b1ooWLZrtxwUARI5QhcBQqGndurWNGDHC25NajRo1vEtmZcuWTamBUT8o1TJdd911rjbnjz/+SKlZCqlXr5536dDf+emnn7ytyGkpF9WAqcZLNVEKX6pRSrvIZ0bPM5yW8Dn++OPd9dmh563wqE75IaeeempK019OHxcAkDVCFQJFtUhqQkvbWVyOOOII79Ih6t+koKPbf/XVV/b++++7vkWq1Uk7pUN4sNHlUqVKeVuRK126tAsr8+bNs/nz57vO4T/88IOrvQqX3vNMS6Ho999/97YOV7BgwVRTSCgoip532pCmaSSOOuoodzmrxwUA5ByhCoFSvXp11xfo6aef9vZkTpNvKsSEOqdPmTLlsJoj0Wg9hRv9aI07NY2lR6FEownToxohhZ1XXnnF22O2a9cu1yyYXapZU1Nj+GOFhyG9D+onJap1++ijj9zlk046yfX7CgU5NZUqSKqGT7J6XABAzhGqEDhqwstsFGC40047zTXF6Xfz5s1t4sSJVrt2be/av2jaA92uQYMGLjRlNJ+V+iipI/uJJ55o48aN8/YeojCjDuBq8tPjqKO6OtfPmTPHu0Xk9Fjqm/Xkk09aw4YNXUf98AWoVWOnDunqE9W5c2f33EX3Uyi899573XW6r65Xf7HQ9Zk9LgAg5444cOBAns7ml7YpBIlPUyNoOH9uUjOgmsVC4SOc5ph65513XF8khbWKFSt61+ScpjVQLdmxxx7raq+ioZo11aClfV47d+50c25VrVr1sGkidPtPP/3UhbpQ019aGT1uZhQYNZEqAMQTnWvTa4Xwk86XWaGmCrkuL4K0ZjzXHFGZUX8kPwKVqOZLYSfaQCU6WaT3vDSaT1MmpA1UovdYc1T9/PPP3p7DZfS4meFLEABkjFCFPJHbH86aUuGxxx7ztlJT+ChXrpy3lTg0sWh6TZ0AgNig+Q+5TpNjqpZE/ZIQHGpCXbduXUr/LACIFzT/IWmp1iijWcQRv7SItcoOAJA+QhVynZZS2b17d6p5lhDfVFYqM5UdACB9hCrkCS3PouVSEAyTJk2ybt26eVsAgPQQqpAntFTL1q1bXR8dxDeVkcoqfHkdAMDhCFXIM1rIVxNVatZxxCeVjRZn1ghJAEDmCFXIM1ouZdCgQfbEE08QrOKQyuTxxx93s8irrAAAmSNUIU+VL1/eBg4caCNGjHBr2CE+qCxUJjfffLMrIwBA1pinCnFBI8ueeuopN6v5pZde6stM5Mg+jfLT+ojqQzVgwABqqAAEQrzMU0WoQlxZvny5vfHGG24JlmbNmjEjeC7RxJ6zZ8926wlefvnlVr16de8aAIh/hCoPoQrp0WLE06dPtx9//DGif+R4ouVw1A8pKHQManb7Vq1aMQ8VgEAiVHkIVUg0uXFwAwD+wjI1AAAACYRQBQAA4ANCFQAAgA8IVQAAAD4gVAEAAPiAUAUAAOADQhUQhXXr1nmXMhfp7QAAwUWoAqKgCUrnzp3rbaVP1+t2AIDERqgCotCuXTu76qqrMgxWb7/9tvXp08fdDgCQ2AhVQBRKly5t1apVs+7dux8WrLSG4cCBA61ly5budgCAxEaoAqKkdf52795tvXr1SglWClS33HKL7d+/33r06OH2AQASG2v/AT7QgsRaBLp48eK2detWy5cvn5UvX95Klixps2bN8m4FAIgF1v4DEkjnzp1drdTOnTvd9p9fVqxixYrUUgFAEqGmCvDBpk2brF69ei5MSYkSJVxt1fz58+lPBQAxRk0VkECOOuooF6pC6tSpY23atCFQAUASIVQBPlHH9FDN6/r162n6A4AkQ6gCfNK6dWvX7CeFCxe2Ro0aucsAgORAqAJ8pA7rQi0VACQfOqojcDZs2OCWfVm1apXbjqTzYG7ZtWuXjRw50q677jorUqSItzdvhY4xjUZs0aKFVapUyW0DQKKIl47qhCoExrx58+yDDz5w8z81b97cqlat6l0TX2bPnm3NmjXztuKHTjhz5syxX375xU4++WTr0KGD5c+f37sWAIKLUOUhVCEr27Zts0ceecROOeUU128J0Vu0aJG9++671qlTJ2vQoIG3FwCCiVDlIVQhM6pVefbZZ+2mm26yUqVKeXvhl0mTJrkTxdVXX+3tAYDgYZ4qIAt//PGHC1S33XYbgSpGLr30UqtevbqNGjXK2wMAyClCFeLWiBEjXA1VgQIFvD2IhdNPP911Yp8yZYq3BwCQE4QqxKW5c+e6ztTUUOUOdaxfsmSJW24HAJAzhCrEJY3ya9WqlbeF3NCzZ08bM2aMtwUAyC5CFeLOunXrXKdDBjHkruLFi7vfu3fvdr8BANlDqELcmTZtmp1zzjneFnKTmgFnzpzpbQEAsoNQhbizevXquJ3YM9HVq1fPFi5c6G0BALKDUIW4E8lcIJFas2aN7d2719vKO0uXLrUHH3www9f266+/2p49e7ytyH3yySf20EMP2XPPPeftic6BAwe8SwCA7CJUIfA0UvCKK65wM643btzYbrzxxpTalnPPPdcFmlhSGGrXrl2GP2pOq1mzpm3dutWeeuop716ptWnTJlUNkebouvzyy2379u122WWX2ddff+1dcyj4aG3BDz/80K3ld+WVV9qMGTO8a6PjZ6AFgGRDqELcyc4H+3vvveeWWmnUqJGbHXzixInuckbhJRY0j9Ydd9yR8vOf//zH2rZtm7Jdt25ddzvVVCmAadmdtF5++WUXvELUr6xw4cKu87gCl4JiqAP5M88845aZ0ZI96syv0Kb7+4VgBQA5Q6hCYKlZ75ZbbrG77rrLBgwY4EJJpUqVrFevXm4m9pCNGzfa7bff7qYMGD9+vLf3EIUcBTDdZ+jQobZq1SrvGrMHHnjAvv/++wzvG5IvXz5r2rRpyk/BggXdHFuh7WOOOcZNETFw4ED79ttv3TqGGzZs8O59iGqatmzZ4m2ZTZ061dVySZ8+fdwi0gplP/74o7v/888/nzIpqpo4VQsmw4YNSxXaFDo//vhjbwsAEEuEKgTWf//7X1u7dq1rJksrfBb2e+65x9VeaUkWBadZs2Z515gLU59//rn17dvXhZ/mzZvb+vXr3XVjx461fv36ZXjf7FATpEKSgpVccskltn//fndZXnvttZS/q7D46aefpiwerdoohUTVRum13nzzzSm1XxJ+X4UtNRmG6LXNnz/f2wIAxBKhCoGlQFWsWDE76qijvD3pGzx4sGsibN++vXXt2jVlygDV+uiy1r1TjZJud/bZZ6dqSsvovtmlMNWyZcuUmrTNmzdn2NdLQUij8MJnk69SpYqdddZZbmTk9ddf7+0FAMQTQhUC68gjj7QdO3bYzp07vT3pq1GjhnfJrGzZsinNbD/99JMdf/zx7nFCTj31VFu2bJm3lfF9s+v+++93HenVwVw1XuqIHqpdSiu86S9EndJVM3faaafZ8OHDvb0AgHhCqEJg1a9f34oUKZJl7VHamdlDHbFVE6Qao3Ba+6506dLeVsb3zY7Fixe7psSvvvrK3n//fXvrrbesRIkSGU5foP5XF154obdl7jmqye+JJ56wF154wV566SX75ptvvGtTK1SokO3bt8/bsnQ7xQMAYoNQhcAqWbKk6/Okmp/vvvvO22u2cuVKe/LJJ72tjCmUqV+TOnOLao40glCj7fyk2jSFs/z587vtKVOm2G+//eYup6WRg6oRq1y5srfH7LbbbnNTQ2hE4XHHHef6iN10003pzmtVvXp113woah796KOP3GUAQOwRqhBoGu3Wo0cP11x20kknWYMGDVz4KFeunHeLjKk/lhYQVmhRnyp1SNecT6EO4n5Rk50eW7/VEV7TPtSuXdu7NrW0TX+qtVKn9YcfftjbY3bNNddYmTJl0m0G1EjIIUOGuNejPmCatwsAkDuOOHDgQJ5OSpO2eQXQ1AGqgcoONXmpE7eaAytUqODtjYya9BRcFHrCm/78plnT9f+uxaIz0qRJExs5cqTrqJ5T6mOmWirVamm6h+x68cUX3VQVABAUOq9m1ALgl0i6f1BThbiTk6CtKRTU6Ty7gUr09/r3728rVqzw9sRGxYoVMw1UMmHChKgClRQtWtSqVauWo0AlfNEBgJwhVCHu5MWHuib2zKhJLjcpeOWlnAYxAAChCnFItU2xrsZNS5NpqoYn2S1ZssROPPFEbwsAkB2EKsSd8847z+bMmeNtITdpxnhNUgoAyD5CFeKOOliHr8GH3KHlcXbt2uVGRQIAso9Qhbik6RF++OEHbwu5YfLkyW4aBgBAzhCqEJc6d+5s77zzjreFWNPEp1u3bk21LA8AIHsIVYhLmn1cCxlrigHElpr8Ro8ene25wQAAqRGqELcaNmzo1sf78ssvvT3wmwKV1hQcNGiQFS5c2NsLAMgJQhXiWt++fe2nn37KctFkZJ+a/B577DEbOHCglS9f3tsLAMgplqlBIGgRYnVc79Wrl1tIGTmnUX5aOFp9qDSTPDVUAIIuXpapIVQhMDZv3uz6/uzfv9+aNWsW9XIuyUYTe86ePdutDdi9e3erXr26dw0ABBuhykOoQnbt2bPHZsyYYd9//73bjuQfPTepSW3w4MHeVnzQcaaZ0lu1asU8VAASDqHKQ6hCosmNgxsA8Jd4CVV0VAcAAPABoQoAAMAHhCoAAAAfEKoAAAB8QKgCAADwAaEKAADAB4QqIArr1q3zLmUu0tsBAIKLUAVEYfr06TZ37lxvK326XrcDACQ2QhUQhXbt2lnv3r0zDFZaY69Pnz7udgCAxEaoAqJQunRpq1GjhltLL22wevXVV23QoEHWsmVLdzsAQGIjVAFRGjJkiO3evdt69eqVEqwUqIYOHWoHDhywHj16uH0AgMTG2n+AD2rVqmXbt2+34sWL29atW93/dcWKFd32rFmzvFsBAGKBtf+ABNKlSxfbv3+/7dixw23r4NNBTi0VACQPaqoAH2zevNnq1q3rmvukZMmS7n97/vz59KcCgBijpgpIIApOJ598srdlVqdOHWvTpg2BCgCSCKEK8Mmtt96aUvOqyT5p+gOA5EKoAnyiqRPU7CeFCxe2Ro0aucsAgORAqAJ8pA7rQi0VACQfOqojMFavXm0zZsxwnREj6TCYF3bt2mUjR4606667zooUKeLtjR863tShs0WLFla5cmVvLwAEW7x0VCdUIa5pmoIpU6bYd999Z1WqVLGmTZu6gyeezZ4925o1a+ZtxR+deObMmWOrVq1ynes7duxo+fPn964FgOAhVHkIVcjI119/bZMnT7ZLLrnEjaaD/xYtWmTvvPOOderUyc444wxvLwAEC6HKQ6hCel566SX3v3HppZd6exBLEydOdL+vvvpq9xsAgoRQ5SFUIa1Ro0ZZzZo17fTTT/f2IDeoZnDp0qV27bXXensAIBjiJVQx+g9xRf2ntGYegSr3NWjQwL33KgMAQPYRqhA3Nm3aZEuWLInrTt6J7pxzznFloLIAAGQPoQpxY8yYMdazZ09vC3lFc2ypLAAA2UOoQlzYvXu3+128eHH3G3lHs8Kr70CoTAAAkSFUIS7MnDmTZr84orJQmQAAIkeoQlxYuHCh1atXz9tCdm3evNkee+wxN1mqH+rWrevKBAAQOUIV4kYkw1WDSn2UZs2a5W35b8CAAVa/fn3fZkZP5LIAgFghVCFuHDhwwLuUsT179li7du0y/InHJqtp06bZu+++a2effba3xz9fffWV9erVy02S+sILL9iKFSu8a6JHsAKA7CFUIVAKFChgd9xxR8rPf/7zH2vbtm3Ktpqt4omC4pdffmmvvfaaFSxY0NvrHy0tc8UVV9jy5ctdbVW1atW8awAAuY1QhUDJly+fW1Q59KOgokWBQ9vHHHOMDRs2zLZt2+bdw+y9996zjz/+2Nsye+CBB+z777+322+/3U3hMH78eO+aQ7Zv32733Xefm1pg5MiR9v7779tHH33kXfsXLUh8zz332M6dO922anYefvhhV3skeh47duywO++804488sjDnocC16uvvupmML/qqqtc8Eorq7/xwQcfuMfVtmrENmzY4PaHRPI3AAD+IFQh4Tz//PMuGIV8/vnnNn/+fG/LbOzYsdavXz9r1KiRazYbOnRoqv5Ol112ma1cudJuuOEG27Jli/Xv39/mzp3rXfuXqlWr2po1a+yWW25x2+oortB06qmnuu2snsdNN91kr7/+uvt7ffr0cX8rraz+hpaVUbPnwIED3bYWnw7vrB7J3wAA+INQhaQ0ePBg69Spk7Vv3966du2a0hdLI97UpPjMM89YkyZN7Lbbbsu0SfHJJ590gUtNj88995wLbJE086nv0+TJk+2NN96wVq1auVo2Bb30ZPY3FKZatmxplSpVcn2rNApQQUuy8zcAANEjVCEp1ahRw7tkVrZs2ZQaHNVQHX/88Va0aFG3LbVr1/YuHa5EiRL24IMPurCj0FOlShXvmsxpKRj9Hf3trGT2N+6//3475ZRT7LrrrnM1bn/88YetX7/eXZedvwEAiB6hCgmnUKFCtm/fPm/LUvWvCjniiCO8S4eERrqVKVPGNm7c6C6HpO2nFG7v3r32yCOPuFogTZsQ6vskmT0P/Z3ff//d28pcRn9j8eLFrtZK/anU7+utt95yASw0ijI7fwMAED1CFRJO9erVXf8lWbt2bbqdzDNy+umnu7meFFbkm2++SdW5PK2///3vKZ3QTzjhBFdbFJLZ81DtUuHChe2VV17x9liGASijv6FO8AqHobmppkyZYr/99pu7LNn5GwCA6BGqkHDuuusuGzJkiKvZUX+pxo0be9dkTbVL6oP00ksvuekJ1LymjuDprUmosDVhwgQ3QlCjEp999lnXN0vhRjJ7HkWKFHGj8tRfqmHDhq7/1pVXXuld+5fM/sZpp53mOtvrd/PmzW3ixImpmioj/RsAAH8cceDAgTyd4S9tMwyS04gRI6xv377eVvTURKbaoeOOO86FkWi0aNHCjQDs2LGjtydykTwP1S6p+bFixYrenuz59ddf3XF07LHHensOl5O/8eKLL6aMOgSAeKbzX3hNfSyEuolkhpoqxA0/A7Y6mqumKSeBSrVCmqdKM5R3797dzeJ+0UUXeddmTyTPQyeDnAYq0X0zC1QS7d8AAGSNUIW4ES+1lhdccIGbokB9lrp06WKffPJJTGZDj3fUIgNA9tD8h7igTtgKMuqIjbz3448/uqr0iy++2NsDAPGL5j8gjCaw/PTTT70t5DXNMK8yAQBEjlCFuFCsWDHbvXu3m5MJeUtloLJQmQAAIkeoQtzQ+nRaVgV5S2WgKSAAANlDqELc0NIxW7duTVlmBblv3bp1rgzCl/EBAESGUIW4ogV/R48ebbt27fL2ILfoPdcyOCy6DAA5Q6hCXNGyKoMGDXKzgBOsco/e6yeeeMK99yoDAED2EaoQd8qXL28DBgywxx57LNPFjOEPNbfqvR44cKB77wEAOcM8VYhbGoH29NNPW6lSpaxTp05JOQFnLGmU36RJk2zLli0uxFJDBSCo4mWeKkIV4t7y5cvtzTffdEu+NGvWzGrVquVdg5xYsmSJzZ49261LqGV4qlev7l0DAMFEqPIQqhApLRszffp0N9u3RPIPnhfUlDZ48GBvK36EjrUTTzzRWrVqxTxUABIGocpDqEKiyY2DGwDwF5apAQAASCCEKgAAAB8QqgAAAHxAqAIAAPABoQoAAMAHhCoAAAAfEKqAKKxbt867lLlIbwcACC5CFRAFTUY6d+5cbyt9ul63AwAkNkIVEIV27dpZ7969MwxWb731lvXp08fdDgCQ2AhVQBRKly5tNWrUcGvopQ1WL7/8st1yyy3WsmVLdzsAQGIjVAFRUnDavXu39erVKyVYKVANGzbMDhw4YD169HD7AACJjbX/AB/UqlXLtm3bZsWLF7c//vjD/V9XqlTJLVo8a9Ys71YAgFhg7T8ggVx22WWuVmrHjh1uWwefDnJqqQAgeVBTBfhg8+bNVrduXRes5Mgjj3S/58+fT38qAIgxaqqABKLgdMopp3hbZieddJK1adOGQAUASYRQBfjk1ltvTal5Xbt2LU1/AJBkCFWAT1q0aGElS5Z0lwsVKmSNGjVylwEAyYFQBfhIHdaFWioASD50VEfC+uWXX2zGjBmuKS6SDoZ+2LVrl40cOdKuu+46K1KkiLc3tnQMVa1a1Vq1amXlypXz9gJA8oiXjuqEKiSU/fv32+TJk+27776z4447zpo2beoOttw0e/Zsa9asmbeVO1atWuXmw1q/fr1deOGFND0CSCqEKg+hCn758ssvXaDq0KGD1alTx9ubfLR483//+18303uJEiW8vQCQuAhVHkIV/DBmzBj3u0uXLu53stuyZYs999xzduONN1qVKlW8vQCQmJinCvCJ+jAdf/zxBKowpUqVclM8PP/8827ZHABA7BGqEGhvv/22+4bSsGFDbw9CChQoYDfccIM9/vjj3h4AQCwRqhBYmzZtssWLF9u5557r7UFaqrE6+eST3XI5AIDYIlQhsEaPHm1XXnmlt4WMaFLSDz/80NsCAMQKoQqBtHv3brd4cWjhYmRMg0EqVKhgGzZs8PYAAGKBUIVAmjlzppuDCpHRe6WpFgAAsUOoQiB9//33rq9QkG3evNk++ugjW7FihbcndjTj+urVq70tAEAsEKoQSH4vO6M5nebOnettZWzNmjW2d+9ebys6eiyNXLz66qtt586d3t7Y8fs9AwCkRqhCIEUaEPbs2WPt2rXL8EfNiO+884599tlnduaZZ3r3yphGGi5dutTbytzrr79uGzdu9Lb+MmfOHDv//PPttddeswULFtj1119vRYsW9a6NHUIVAMQWoQoJTXM13XHHHSk///nPf6xt27Yp27Vr13brBL700kuWP39+717+uP/++92izuEUbBSkpkyZ4pbSadOmjXXt2tW7FgAQZIQqJLR8+fK5Ttqhn4IFC7q+WKFtNb9pn+a8kgceeMD117r99tutZ8+eNn78eLc/nGqfMrteVEulpWKeeeYZGzp0aErTopoOFfRUO7Vo0aJUyzRl9be3b99u9913n/Xo0cPNIv/++++7PlkAgPhAqELSUzPc+vXr3eWxY8dav379rFGjRnbppZe6QDRr1ix3Xcg999yT6fVyyimnWJEiRVyTYqtWrVLW3+vVq5d9/vnn1rdvXzvmmGOsefPmEf/tyy67zFauXOlmSVdg69+/f0T9wAAAuYNQBaQxePBg69Spk7Vv3941zanfVbisrhfVhhUuXDglVFWuXNl+/PFHd9tRo0a5WjI9ztlnn20vv/yyd6+MH3vhwoWu6VI1X02aNLHbbrvN6tat664DAMQHQhWQRo0aNbxLZmXLlnW1QuGyuj4jP/30k1v4OXzC0lNPPdWWLVvmbWX82Kqh0n3DO7SrPxgAIH4QqoA0wvs5SdpRc1ldnxGtw6e5qcKpL1fp0qW9rYwfu0yZMoeNJGSGdACIL4QqIEYUhDQXVUj9+vVt//799t5777lt9aWaNGmSGwGYldNPP92NTlS/K/nmm2/s448/dpcBAPGBUAXEiPpHqe/TiSeeaOPGjbNixYrZmDFj3D71qVKHdC0I3bp1a+8eGStUqJC98cYbbuqHatWquekaNM9W8eLFvVsAAPLaEQcOHMjTGQHTNncAkRg+fLibliCI1KSnJWPKlSvnRgjmVIsWLdwIwI4dO3p7Mvf888+76RoAINFoepzffvvN24qNSLp6UFMF5DJ9kdAUC9kNVJqbSvNUvfDCC9a9e3c3W/xFF13kXQsAyGuEKgRSMtZwXnDBBVapUiXbsWOHdenSxT755BM3cWmkqBUGgNii+Q+B9O6771qFChWYViBCqhbX8jjqwwUAiYbmPyAKmlAzvZnMkT4t4qw+WACA2CFUIZA0km737t1uLT1kTR3j1XQIAIgdQhUCS521J06c6G0hI1q4uV69et4WACBWCFUILC3psnXrVlu3bp23B+lR/7MOHTp4WwCAWCFUIdAGDBjgFijetWuXtwfhNGO7FmjWbOwAgNgiVCHQChcubEOGDLHHH3+cYJXG119/bQcOHLAGDRp4ewAAsUSoQuCVL1/ebr75ZhsxYoRbTw/mRkYuW7bM+vTp4+0BAMQa81QhYWg04FNPPWVHHnmkde7cOVsTYyaK7du32yuvvGJ16tSx9u3be3sBILHFyzxVhCoknOXLl7vFh4sWLWrNmjVL+AlCdQwtXLjQPvvsM9d3SrVTpUuX9q4FgMRHqPIQqhArWs5l+vTp9uOPP7rtSA4IPzz22GM2ePBgbyt2QseOftetW9dN7lmoUCG3DwCSCaHKQ6hCosmNgxsA8BeWqQEAAEgghCoAAAAfEKoAAAB8QKgCAADwAaEKAADAB4QqAAAAHxCqgCisW7fOu5S5SG8HAAguQhUQBU0uOnfuXG8rfbpetwMAJDZCFRCFdu3aWe/evTMMVm+++aZbNka3AwAkNkIVEAWtsXfCCSdYt27dDgtWo0aNsttvv91atmzJWnwAkAQIVUCUhgwZYnv27LGePXumBCsFqr/97W924MAB69Gjh9sHAEhsrP0H+KB27dr2xx9/WPHixd1v/V9XqVLFihQpYrNmzfJuBQCIBdb+AxJI165dXa3U9u3b3bYOvgoVKlBLBQBJhJoqwAebN2+2unXrumAl6kOlYDVv3jz6UwFAjFFTBSQQBadTTz3V2zI76aSTrHXr1gQqAEgihCrAJ7fccovly3fokPr1119p+gOAJEOoAnzSokULK1mypLtcqFAha9SokbsMAEgOhCrAR+qwLtRSAUDyoaM68tTvv/9uTzzxhBUrVszbE2y7du2ykSNH2nXXXeemU0gEu3fvtkGDBtmRRx7p7QGA+BIvHdUJVUlg//79lj9//pTf+/btswIFCnjXHqJ/Fv2E+gRlR9rHj5QC1QMPPGCDBw9OaTZLBLNnz7ZmzZp5W8GnebeeeuopGzZsGMEKQFxi9B9yTaVKlVL97t69u/3jH/9wl0X/KM2bN7eXX37Z25M9aR8/EokaqCSRApWofAYMGODKa+vWrd5eAEBahKok9Nxzz7kmqm+//dZtqxaiRIkSbuFf0VxLq1evdjVaaembwC+//JIyH1NOJHKgSlQEKwDIGqEqCYT69oR+lytXzgWpXr162Q8//GDDhw93a9XJlClTrE6dOta3b18319LUqVPdfn2QnnXWWXb55ZfbNddcY+eee67bL2kfPzMEquAiWAFA5uhTlcTUDKjQ9Mwzz7jFgNevX28NGza0BQsWWPny5W3VqlXWtGlTW758ubvduHHjbMKECe6+2e0/JQSqxEAfKwDxho7qHkJV3vn666/tggsucGFK3nnnHRs4cKB17tzZbctLL71k8+fPt8KFC1vjxo3tvPPOs7Zt21r79u2zFYwIVImFYAUgntBRHXlONU3ho/3UT0qLAHfo0CHl591337WKFSta1apVbfHixW7f9OnTrX79+rZz507vnpmLJFCp5iv8dyJZu3atrVy50vbu3evtiY2M3juV04oVKw4rL50gNPO7yidcJGVBUyAAHI5QhRTqM/Xzzz+7YKVmP/2oX1Xx4sXdgsHqzK5aLI0S1HxMCgtZibSGqnbt2ql+JwrNqt6pUyfXf61evXo2bdo07xr/3HHHHa4fXJkyZezLL7/09h6ivnKnn366e//1WzWPosEGqnnU81K5h48GjbQsCFYAkBqhCilUffr8889bmzZtrFWrVu5D98ILL3TXffzxx1azZk1r166dNWjQwO2vVq2auy4jfjT5KbitWbMm1WjDtDUo4duhEYvr1q2zLVu2uMuiGplIa9b89Omnn9oXX3zhfj/00EMuAGVENVl6nmmrmEOvSc20CrdpKbTNnDnzsPLQ+3L33Xe7wQdvv/22TZ482e688063X5Otap9C3ieffGKPP/647dmzx7tn5AhWAPAXQlUSUxNe2tqmjh072k8//WRjx4619957z+bNm+f2X3bZZfb999+7Tu36AA+NFsxIdgOV+myF/1afnZYtW7ppHvr16+fCnCgonXDCCe6yKHAoDIaULVvWbr75Zrvqqqtc+Js0aZLrhK/RjKeccsphNTmxVrRoUe/SofUAVeuXnldffdXVJN1www12xhln2L///W/vmkOvScFFS9+EBgqE0+AC1S6mpf6KGpEZmui1YMGCbltNvnrM0PumgQknnniie36StiyyQrACgEPoqA7f+VFDpdGG48ePd2FDVLuiPmAKVQqD6iMkClXq8xXqbF+qVCl78803XU2a+n4pDM6YMcPd55VXXnE1RulNcqrQ9uOPP3pbqf33v/914SiS26Tntttuc3OCKcC+9dZbhzWrqXaqSZMmLsBq1KX6salWSzVcotc0evRo69Kli9vOiF6jwq5CVsisWbPslltucbWMeu4jRoxwE72G6HoFItVaVa9e3dubM3ReB5BXGP3nCVqoCq8VQcYUZLIzw3pamnxUTZCanVy/FWjUpyuSULVhwwZX66LHUIBQzZtoFKOaw9SUmZvUf+l///ufCzxqlpw4caJ3zSGqEVTNoGrVRE2dCleaykKhVK9JgSyj0BaSNlQpiGp0p/rGnX/++favf/3L5syZYx9++GHKdBiqDbznnntSBa1o6Hn69VjJINYfAkCyIFR5ghiqOBFmTk1A6visZric1lTJtm3bXH+fjz76yNXaqCZHQaFu3bpuNJ3s2LHDjj/++FShKtSXSjVACg2LFi1y22r6Gzp0qHvMtNRcqBCTHv19BZpIbpMZLUyssKSQp+a3ENVMqUYuFLZCoUrBUUEy/DVlJm2oUu1Yt27d3KjNkFq1arkaQN1WLr74Yteke9xxx7ntaKgsnnzySddvjJqqrHEuAfwTL6GKPlXwnT5QVSP0xBNPuCahnFCIUP8jzYelZXUUSBScFDJCUwGIal/88PDDD7tmw/R+QjPFR3KbcOoYHx6GVEukgHTUUUd5ew5RHyrNGaZaLHn//fddc51eazQ0c746tof6zek90/M55phj3Laor5meU7QIVABAqEKMRBus1Hx42mmnuX5E55xzjhuRGKpNuf32261FixauSfDzzz93+6KloKFmxPR+QrWpkdwm3MaNG92UCmrCVJ8pTayqKQ3C5wYT3f/vf/+7e00XXXSR3Xvvvfbss89612Yt1GdKM+Dr/dL0CqLmV71XWlJINVKauFWhR38vZMiQIa55MhoEKgA4hOa/bKLKPnuiaQrUXFiqvVHNTtoPa9W4aAoA1cbEMzXl6f9FI/AUyjL7f9eUCuoPpv8xP4+LUC2f/n6kI/oiRaDKOc4lgH/ipfmPUJVNnAizz68+VogvBKrocC4B/BMvoYrmP8RctE2BiD8EKgA4HKEKuYJglTgIVACQPkIVcg3BKvgIVACQMUIVchXBKrgIVACQOUJVJkLzBmUl0tvhEIJV8BCoosO5BEgOhKpMaO24uXPnelvp0/W6HbKHYBUcBKrocS4BkgNTKmRCs1Fr8kZN2KjJGyV82KbWUBs0aJBbPqV06dJuH7JH0y0oWGW1xAvyjuYL08SlBKqc07nk7LPPtvvuu886d+7s9oWfSxSoevfu7dan5FwCZF+8TKlAqMrC1VdfbdOmTbN//vOfLliFCk6BSkt8dOzY0Z5++mnv1gCQvv79+9uUKVPskUcecWsyhs4lClRdu3a1M88887DFtgFEJl5CFc1/WbjuuuvcIr5XXHFFypIooUClN7hHjx5uHwBkRucKzbCvpYH0JU0UqLR/3759bj+AYKOmKgKnn366S8Ba4kNLfuTPn989b61Fp0VyASASzZs3d0sGqdlbAUuLhm/fvt3Kli1r33//vXcrANlFTVWAXHvttSmBSlRzpUVpe/Xq5bYBIBKqlapcubILVKJApS9oV111ldsGEGzUVEVAnUzr16+fEqpE3zC/+uorOpUCiFho8MvOnTvdAtqixba/++47ziVAFKipChCd7Fq0aJESAI8++mi74IILOAkCyBadM9q0aWM1a9b09pgLWZxLgMRAqIqQOqyHhv0rXNFBHUBO6NyhPlWiWio6qAOJg1AVIX2bLFWqlLus+Xq0DQDZpXNHsWLF3GWdUxo3buwuAwg+QlU2qMO60EEdQDRCNd10UAcSS1J1VN+wYYNbBmLVqlURdThLSzNLjxw50jUFFilSxNsbOXWkU9+sKlWqeHsAZEVNZSNGjEioWfejPZfEKy1pdPPNN1uZMmW8PUDuiJeO6kkRqrSMjCbsPOaYY9w8MVWrVvWuyb7Zs2dbs2bNvK3sUYFrXquVK1faySefbJ06dXJzXgF5TdOE6H8x9FuTUaq/TzidUPSTL1/OKrjT/o1IKFD94x//cB/UJUuW9PYmhmjOJfFK63g+9thjNmzYMIIVchWhyhPLULVt2zZ79NFHXYBp3bq1tzc+LFq0yC1ZoWDVsGFDby+QNypUqGBr165N+d2lSxc75ZRT3KLXopOJvpCo6btPnz5uX3al/RtZSeRAlcgIVsgLTKkQY7/88os98MAD7gMg3gKV1KlTx636/9///tfGjBnj7QXiw3PPPeeap7799lu3/dRTT1mJEiVSBSpNYLl69WpXq5WWTm46BnWbnCBQBZfKa/Dgwe78+/vvv3t7geSQkKFK35T0oXDrrbemjNiLV6oRqFatmvsAA/JKqF9P6He5cuVckFLN1A8//GDDhw+3UaNGuetEtaz6YqA1ME866SSbOnWq268wdNZZZ9nll19u11xzjZ177rluv6T9GxkhUAUfwQrJKiGb//7+97/b1VdfHfeBKtysWbPcN/6OHTt6e4C81717dxeYnnnmGevZs6fbp7Xr1GS9YMECK1++vBv40bRpU1u+fLm77bhx42zChAnuttnpPyUEqsRCUyByC81/MTJ//nzXhypIgUrUX2Xx4sW2adMmbw+Q92655RZXsxQKVDJ37lz3ZeiRRx5x16tGS/0XV6xYYaeddpp98cUXbsoAhSuNBosUgSr71qxZE9cLMVNjhWSTcKHqgw8+sJYtW3pbwXLllVfa6NGjvS0g76mWKe1oP/WTUmfzDh06pPy8++67bpFxjazVlwPt0/QlWjNT69xlJdJApZqv8N957ddff7XevXu7KRIilV4ftMyEav1CdP9///vfbjHmm266yU1GnBMZvYda41S1juFrnYq+pev1pg1HWZUJwQrJJKFCleahUhVgbs595SedHHXiSnsyA+KJ+kz9/PPPLlip2U8/6lelRca1YLA6tHfu3NlefvllFzayGumXnRqq2rVrp/qd29QHMrzzvYLkZZdd5gadROKJJ56wsmXLutq+rLz44os2dOhQ12/tySef9Paa3Xvvva5Pm7o5vPrqq9meIkbPVf3h1Bz35ZdfensP0fQzqm1UWDv99NNdE69o0IFmflcfO5W/yiskkjIhWCFZJFSo0jdjneCDTM9/5syZ3hYQf/TF5fnnn3cLA7dq1cp92F544YXuuo8//tgtFtyuXTtr0KCB26+BGBnxq8lPwU1NYaHAk7bWJHw7VFO0bt0627Jli7ssqoXJrFZNj/3JJ5/Y3r17Ux5Dj6vXeOONN7rL+vn666/dvHhpLV261J2jatSo4e3JmJpNmzRpYgMGDHA1her4L3p81Whr0lDNxq4gGxJ6Turzpvc1I5rGReeY9MpFg3vUrKvn//DDD9vtt9/u9mtZnbffftumTZvm3oPHH3/c9uzZ466LFMEKySChQpW+TUUzsWc8qFevXlz3kUByUfNdejVNGlDx008/2dixY+29995zNRyiWhv9/6pjuz64w0cMppWTQFW4cOFUv9URWs39muqhX79+LswpKJ1wwgnuelHYUBAMUU2R/qZCiYLfpEmTXJ8x1Qhpbq60tTch9913nws1eu3t27e3jRs32vHHH++uU5BUU6lqfzRSMm1fMgUy/U0FlqwmT1UN1RlnnOFqlP7v//7P7dNoTFHYUcDq37+/XXHFFS6kheh1aXFmNUdqIEFGXQl0nWoZ09L5U/3i2rZt67YvuOACFwQVNvXYofdQtVcnnniiFSpUyG2nLZPMEKyQ6BIqVEXSMz9S+tarb6R5wc/XAcSKmtkrV65sRx99tLfnEHVsVy1IZoNFclpDFfrCEfr92WefWaVKldyoQ9WkvP/++25/VlTLpv6XL7zwggtT+qDXY9x1111uOpb0qNlNwUn9x3TbjJbNueeee1xtUDjV7J199tmu2S0zCjAKZZptXX8nfGJgdW9QzZGClYKgrh80aFBKDZVoCgu9rn/961+upik7dM7TaM7QaE391raeU4hGKStcvvHGG96ew8skKwQrJLKEmlJBJ5EbbrjB20qfqqwzm7ZAo5nOO+88983znXfecX1FcpvmrFI1PBCJ8FqYIFFNlvokRUOTj6oJUsu96LdqqlSbpBo21bqIQof+jprFRGFPAUU1Lbq/Rt6q1k00elizyKsZMz2qidLjaAkfdRRXPyLV8ITo+rRBQc9DfZHUdKbaHNVCPf30067ZNC0FpbfeesuNnBTVxB133HHuMRXkFKo0CCDktddesxkzZrgmxfDXJaqN0nQXoe209B6pJjEU3NTPSzVgX331ldsW9avSbVSjJ6oVVGjUexYthTithRpUsR6+j+zReZApFfKAToaqVg/9/Oc//3HV3aHtunXrercEgkMnkyD9LFmyxDUdaiqGaKimTCHgoosusk8//dT1Q9IXp/DO5On1/QkFDTXFhYcObSuURUK3zerviL6cKYipdkxhRCFM4eWjjz7ybhEZ/S3VHCk4hn7++c9/pgrV4a9FX1jDn19W9F6qbEKvX7/V7yz88dW3KtTkGQ2FxZdeesn9H6T93wjCD5CRpAtVOhGGRizpp2DBgm5eq9C2Fl0OUZ8JfTNUf4vx48d7e81NZBf+YaA+JeHfbFX9Hurz8Le//c19ewTwF410vfPOO1PmuMop9Z9SZ231cVKznUbOqj9TaPi/qCnML3reGuEoav5TiAnVVGX0dzSzvGqT3nzzTfejkKLzQnq1PaoRUm1ZqLZLgSxENUqqeVKwUi2XflRTpqDjhypVqlj16tXd+Uv0u1atWqlqE9VUGu0cgApUGgWpGsGcTgeB5KawH4lIb+enpAtV2aFq7kaNGtmll17qhjarP4Gof4Sq/kM+//xzdyIMUedOfYscOHCg277kkksi/vYLJAs/gpXCiqYA0FQH55xzjqsNUnOZvgypaUnHoY5Pv2iqAa0lqmkFNFJQ5wVt6++of1d6NMWEgknoR7Xl6oeWXp8s9Q9TfyM1Z6qZLzQAQNScp9nJtV/nFDV3auqK7FIXB3VvUEDT+xbez0sd6fWa9D7q90MPPeRdc4g6woc3d2YXgQp+0ACNrKYl0fXhAzlyS9L1qUpLHWo1n074GmWik86IESPcyUt0glEHXHVWVb+JRYsWuW+Moev0bTm0or+ok7uq/PXNWSdcdaKNdG4d+lQhO3KjL0EsqdP6gw8+6KYPUADJLs2FpW+kRx11VKoPatViqUkuNHIuVvT89RzCa7mjpS9t6guWXq2QauFU3uqfpVF5ftN7psfX/1VG/bFyIpECVdCPuaBTbbEGfowZMyalb2J4mShQaUSwVncoXbq02+cH+lRFKXw+GZ28wue0ycz999/vhmZrLhkFLp1MQp1kAaQWbY2VvuyodirtB7UCSawDlejv+hmoRF/SMmpm0xdR1XjFIlCJgpTeTwIV4pWCkgZNdOvW7bAaK21rmSxVjPgZqCJFqMpE2lq0UErVySZ8GHP4B4GW6FAHXHWe1fBujeTRt+/sdBgFkk20wQrxi0CFWFBw0uew+i6HgpV+qw+jmuZz0jTuB0JVDqgzZ6ifhiZGDB/Fo06yCmOhuV60nATVxEDWCFaJh0CFWFF/Z3XfUXO1ApZoIIX+z1TxoZUH8gKhKgc0QaA6bGq0YNeuXVPNN6NOsyps/dbonokTJ0bclwpIdgSrxEGgQqxp/jf1pQqtYKBpQbQuqQaP5JWk76ieU6peVC2V+h6kt+yEhnPrtanAs4uO6siOROw0G23ndeStRA9UdFSPD+qwrsl0w0fji5ZS0hQhfqOjegxpOLSqHtMLVKKOpDkJVEBm4nl+Fj9RYxVciRaokuWYCyJ1RNcalRqRH6LJaWMRqCKVUKHKz1qvvJQorwP+i+f5WfxGsAqeRKyhSqZjLojUnyq8cuPGG2/0LuWNhGr+0zpYZ555ZqBriDR6UN94Lr74Ym8P8BdVd6vPnkaYpjc/iwZGaLklneTzYjhxLKgpUB/UGS1gjPihvi1a5DmRmvxCx5yW1dEySBJ+zGmBa71mTdSaKMdc0Kh/s9bv1Nxt6lMVK5E0/yVUqNICnRqJp1mCg+rFF190SduvpSeQeC6//HKbM2eOWzpJwSp0gtcEs+qDpBm3tWAvAH9cffXVbkFsrbWoYBU65hSoNOJMi/RzzOUdLfqtFVC0Bqgux0rS9anSEg9adT6oNAu7ZmAnUCEzWv4o7fwsClT9+vVz86GFhhcD8IcmctZSYzrmQtPphAKVPmg55vJWqCJFwSqvJVRNlUyaNMmFq5NOOsnbExz6FqRZYsNncgfSc+qpp7pZ+tUkppGo6lOgmcX1v5/RGnQAck6LXWtUt5qY9OVXcxHq80sjwFVzjLwV3iQbK0k5+k9NH++99563FRzqR6W+IwQqREKzBuukrkAlqqHSHC15NeEdkOhUK6UvLgpUoporjfLWXElASMKFKn3QdOrUyU26GRRajHX06NHWv39/bw+QOYWn8BEv+sasb2lB7k8IxDOtM5e2puJ///sfxxxSSbhQJaqm1T//119/7e2JXwpUjz/+uA0ePNhVKwOR0CgjjXgJURPE+eefz+gjIEZ0bLVo0SKly8rRRx/t5kjimEO4hAxV0qdPH1u2bJnNmjXL2xN/1CdmxIgRdvPNN1v58uW9vUBk1GE9FMTVJEFnWSC21GE9NLWHwhXHHNJK2FAlagNXX5PnnnvusGns85JG+alTukZs3XfffQQq5IjmzilVqpS7rKVctA0gdnSMhWqmNBcXxxzSSuhQJe3bt7frr7/e3njjDXvhhRfshx9+8H3EYaSWLFni+k7pebRq1cqt70eTH6KhDutCB3Ugd+jLutBBHelJuCkVMrNnzx6bMWOGLVy40G1HMjwyLTXXDRkyxNuKnF5nzZo1XZhiHqrEoNGa+n/Iy5m+1SdPC3CrWUIjk/KCZtFWE3b4+ltArGiG88ceeyzPzqPxcMxp1K/64YZqqhE/UyokVajyQ24UHP6iYcsa0Rn6rUkvCxQo4F17iP7R9ZPR4tZZSfs3IqFA9Y9//MOFiZIlS3p788bs2bOtWbNm3lbu03pv+pAbNmwYwSpBxPq4y8kxJwpU999/v1sWJi+Pu3g45jTASWssEqwOYZ4qIAKazDL8d/fu3V2YCdE/efPmze3ll1/29mRf2r+RlXgKVJKXJ3fRe6BvzQ888ID9/vvv3l4EWayPu+wecxIvgUri4ZjT+6Ay2bJli7cX8YBQhUDRoANVvX/77bdu+6mnnnKdtDXaM0SDE7Rckb5dp6VvMr/88ou7TU7EW6CKFwSrxBbNcRftMSfxFKjiBcEqPhGqENdCfRZCv8uVK+dO6OokqkEHw4cPT7WA5pQpU6xOnTquM6mWKpo6darbrzB01llnucWI1bn73HPPdfsl7d/ICIEqcwSrxOHHcefHMScEqowRrOIPfaqyiT5V8UHNETpxP/PMM9azZ0+3T/N+NWzY0BYsWOCmqVi1apWbIHP58uXutuPGjbMJEya422a3LweBKnL0sUpc2TnunnjiCXvzzTdzfMwJgSoy9LGiTxUQlVtuucV9yw2d2GXu3LkupD/yyCPuen2z3rZtm61YscJOO+00++KLL9xkfQpXGrEWKQJV9ug9osYqMWXnuCtbtmyOjzkhUEVO7w81VvGBUIVA0jfetKOO1GejQoUKblHt0M+7777rFj2tWrWqLV682O2bPn261a9fP2Ux4sxEGqj0LTz8dzh9i1RtmYZih4wfP9675D99m0rveYT6ukybNs2efvpp9+GXFT2WVuZPG44ye71CsEpM2TnuzjjjjBwdcxJJoMruMSexPO50fKX3E3p+n3/+uQ0dOtRdTktr1Yb6nKV3zGV1vAnBKj4QqpAw1H/j559/did4NT/oR/07ihcv7k7S6ljbuXNnN2JJJ9u1a9d690xfdmqoateuneq36P69e/e2U0891fU10YeKvrXrb1977bXerfynE+rJJ5+cau1L9YG5+uqr3eXWrVu7ubX0PmVGnYsbN27s+tHovdV7EZLe602LYJUcMjrutHJEdo85ibSGKrvHnMTquNMyUTrm9KPnoz5ooe2rrrrK3aZJkybu/Xj11Vfddji9Xr1fGR1zkRxvQrDKe4QqJAy1qT///PPWpk0bN8mqTk4XXnihu+7jjz92k6+2a9fOLbit/dWqVXPXpcePJj+dTAsWLOg69n7yySfuW7tWtNfJM0T9UfS30tJt9G01bRu+vvlKRvcTLaOhPk033nijO9l///337kNN+0LOO+88u+yyy9zltN9+Q9uaXFFLKalmS89ffTY0gW52EKwSX0bHXXaPOYm2yS+SY078Pu60MsaiRYvcj44ZLbYc2n41LERpdQ8tfp6WvgDpMfw65ghWeUgd1fPyJ2j+/DbmXUK80v/Vn9/4Dm7YsMHbc8jOnTsPLl++/OCfJ25vT/r+PBEdvOWWWw6uXr3aXY7kp0qVKql+L1iw4GDRokUPrlq1KtXtQj9/HnoHr7nmmoN/fnt1/1MjRoxIue7pp58+WLVq1YPnnnvuwRNOOOHgp59+GtH90v507979YL9+/Q7WrVv34GuvvZbquj9P4AfXrVvnnl+ZMmVS9v/vf/9z14XfVj8vvfTSwTp16qRsp329Wf3ovfwzXLnHR2JK77iL9JiTTZs2HRwyZEjEx112jzn95MZxN2fOnIPHHHPMYfvPOecc99OsWTN3TP4Z/FKuCx2P4bcPP+aye7zpR++j3s9I3vtEkBufzeHZJaMfRv9lE6P/EpsfNVQyefJk1+Q2b948b09qGqGjzrsXX3yxazpRk9zSpUvdt2Q1E+h+GkmlvikPPfSQ6/Cb2f3S8+eJ1TXDqFZK9wn350nfjdJSTZaaSNSZX/SNXH3Q9I08ZNasWTZgwAD3Dbp69ere3uxjVCAyEm0NlWR1zEluHHffffedderU6bDr1Z8stKSVavZWrlzp/oaEjsfQFBN+HnPJMiqQ0X9ALtIBF8lPrVq13ISG0QSqkKy+MJx//vnu9/HHH+9OfqrmVzPA6aef7k7sctFFF7mTs64PSe9+6dE6l1pJX00gaTvsZsd9993nOrVHc3IXvaear+jPb+npvvfp/SDY0ivT9H40x5Ufx10kX9JjfdxlRJ31NSWFApmaBJctW+Zdczg/jzm9r+qLld77nt4PokOoQtLQt5isfpYsWWJjx451Q8KjoeCg2h/VFmWkUKFC3qVDHwYHDhxw34TS+2AI35fe/dLauHGj3XHHHW6OIPVn+b//+z/vmtQ0miv8/ul9UKifhz5IoqUPopdeesm9x+m992l/kBjSK9u0P/qfUL+/8BCTXZEccxLL4y4j6lul2iIdh+ovde+992Yayvw85nQ+45jLPYQqIIxqdu68886UuXZySjVeGgWleXvCa4nUrJDZB4eGoetb87p169z2+++/7zr7atRQdqhzuEZB1atXzx5++GF76623Uo0GDNHj6gNFzR/yr3/9y/0Op1FU0TYd6DVrMkh9sOg9BsLpf+Kuu+6yJ598MsfBKqfHnPh13GVEo/q0zmEoKKmpMjN+HXM6j6m5nWMu9xCqgDT8ClaqlVEfJQUbjYpSFbxOpuHfeNNSf6a///3v1qJFC9cEoW+0zz77rHdtZPQ3fvrpJxsyZIjbDo0GvOmmm9L9dnz77be7v6dRWppLJy09jj4UcopAhUj4EaxycsyJH8ddZrQAsyY/1QhJNf9l1TfHj2OOQJU36KieTWpzppo0eHJSbuq0/uCDD7oOo9F8Y92+fbtrjqtQoYIbNh0JhbmZM2e6E3xuHCNqMlHg0vw6foomUHGsBV9Ojzt1Wh84cGCO+1jl5JiTWB53ClJ6L3SMadqHWIkmUAX5mMuN555VGBZqqoAM6ITkR42VJh/V3DTZOblrTicFkdz60qGmhngKVEhe+l+JtsYqJ8ecxPK402OqRixeAxX8QagCMuFXsMouLauTXh+ooCBQIRp+BKucCPJxR6CKD4QqIAt5Fayyu6J/vCBQwQ95FayCeNwRqOIHoQqIQF4Fq6AhUMFPeRWsgoRAFV8IVUCECFaZI1AhFghWGSNQxR9CFRJOaK6ZrER6u3AEq/RFG6hiWWbIHbE+7ghWqUUbqDjmYoNQlQn+6YJJy0HMnTvX20qfrtftcoJglVq0gUpiXWaIvdw47ghWh0QbqIRjLjaYpyoTr7/+ult7qXHjxt6ew+fC0D/d8uXL7YorrvD2IK9pcdazzjrLnnnmGTcBoISX2+zZs90adPPnz3cTY+aU5tNRmAgtkpqstFCsFqDO6cldVGZnn322C2ZaH03Cy0zHmWaIj7bMEDsqw0aNGrllUULnzPAynDhxot1zzz1ukWKOu+j4dczpPKnFnbXouoSXlxZ1vvbaawNzzKX9bI6FSOap0vpFB/PyJ55t2rTp4Iknnnhwzpw53p6DBytUqOBdOnjw/fffP1irVi13O8SXm2666WClSpUOTps2zW2Hyu2zzz5z+/v27eu2ET/69et3sEqVKgf/PMm77VCZ/fkhfPC44447eMEFF7htxK/OnTu7MlSZSagM//nPfx6sXLmyK2PEjxtuuMGdD2fMmOG2Q+X16aefuv3XX3+92w6C8M/mWEkvw6T9ofkvE0rnTZo0sW7duh22fMfUqVPtuuuuc0sO8M05/lx55ZXuW8VVV12VUn2tGqoePXq4hVC1cjviS6hstEL/Cy+84Paphqpnz562e/dut6Yb4pvWnNQyMSrLUNPS+PHj3X6VrfYjfvTq1cuVi35rJnlRDZXOn9qv2mFkD81/WVDVZ8eOHd0suG+88Yb9+U3MRo8e7QKVPrS1rpSqvBF/FIh//vlny5cvnzvRa/0vLcXy5zdm+/LLL71bIZ40b97cldHKlSvd8aVlSrTkiJYJ0kr7iH9ad+9///ufFStWzK13p+NP5Vi+fHn3gY34oqZanSf1Gbd3796U86QmQtXnX1DES/MfNVVZUGBSYemfLNRvSoFKYVD9rQhU8Uvfso455hgXqERlqA9nrQCP+KSajAoVKqScvBSo9I35sssuc9uIf6od1vlRgUpUflWqVKGWKk5dffXVVrZsWReoROdJtb6o3ymyj1AVAXXWU6dINUHI/v37rVKlSq5ZAvGrS5curlNrOAUsPqDjl8ps0aJF7iQv+kBWTYdW7UcwqGk9fFZy1YCo5lFli/ijcgkF4BB91lFeOUOoikDXrl3dyT2cVkDnny6+6dvWBRdckLLSvT6c6QMX31Q2KqM6dep4e8xOOeUUyixAVFYaVRZywgkn2Pnnn08ZximVS9u2bVNGU6r5j/LKOUJVBPTP1aJFi5T+X2pS0oc1/3TxTx0udZIQrVxPB/X4p2aiNWvWuMs65m699VZ3GcGhjumqoRLVFtP0F9/UUb1IkSLussIVHdRzjlAVIfWjUsfLEE4SwaA+b6VKlXKX9Zs+cPFPZRT6QFYto77QIFjU+Tk0h5K+zHDcxTfOk/4hVEUo/J9OJwv+6YIj9K2LDurBEfrSQv+34FKHdeELaDCow7rQQT06TKmQDSNHjrR7773XzaPDB3Rs/fLLLzZjxgxfhsju2rXLlZ1qG0NV3NHQaFDVnmhEEzK2fv16N0eYyjKSocjhoi0znVdUPppRX831yNqGDRtcea1atSrb5ZUeP487yjMyKjvNN5WT82a05aXzomZm11QMeSFeplRIqFClk/i0adPcSVz8ODGE04iI0D9d4cKFvb3+0PuQ7CcOjarUvF/ff/+9OzCbNm3qDhQ/aOLPZs2aeVvR0YE7Z84cN6Lp5JNPtk6dOqUa7ZTsNOnjBx984OYlOvfcc3N8ko22zPQB8+mnn7rzgvpAhi83hb/MmzfPPvzwQ3fO0Txhfn4o+nnchcpTa61eeOGFlKdH581Jkya58+Zxxx0X1XkzmvIKPy9qrrJLL700V8+LhCqPH6HKr5N4JPw8SaQn/INAJ47wUTSJ7KuvvnKBqn379qlGfsU7Df+fMmWKC1YNGzb09iYnLS49fPhwO/XUU90IvniiL1v//e9/Xad3zVWGQ+X16KOPui8G8VZeWVF5/uc//7HbbrstqctTkxjrvNmhQ4e4Om/mxXmRUOWJJlRppe5HHnkkLk/ifkiWD4IxY8a4/wPNVh9UEyZMcL+TdXShvgw8++yz1q9fv5S+h/Fmy5Yt7jneeOONedZEES9Um//cc8+59yJeyysrKk8tmn7TTTclZXlqZQ+dN+N5ah+dFxVEcqOfFqHKk9NQFYSTuB9CHwQ6cSRiH54XX3zRzWNzxhlneHuCS98aly1b5pqHk4mGzD/wwAN2++23W4ECBby98UmTv6o2bdiwYSnzlyUbfRl98MEH3Ze1eC+vrKg8H374YbvrrruSqjzVDUXnzSDUjuu8uHTpUrv++uu9PbERL6EqkKP/dBJX0NBJPJEDlej1qYpb3yp1Mkwkqh7WgZAIgUp0gtPrefvtt709yWHEiBHuy00QPqD1HPUFRc1eyerxxx93NVRBD1Si16D/vWQqT51fdJ4JSncDPc+KFSsmzXkxkKFKB1BQTuJ+0OvUSVAfXoli06ZNtnjxYtcxNpGoT59el15fMvjiiy/cjOdB+nKj56rnrL6YyUYL5KoTcSJ9GU2m8tR5Rf2VdJ4JEj1fPe9kOC8GLlTpJK4+VIl0UoiEXq86lGqkTiJQPyrNdp6I9LrU3yEZaNSYRqsGjZ6zBrckG5VXy5Ytva3EkSzlOWrUqMCuOavnreef6AIXqoJ6EvdDopw4NDWF2qYTtQ+EJofV6wstwJ2o1q5d65oh/BjBm9v0nPXcNTw/WWgeqgoVKgSyvLKSDOUZOm+GZqoPmmQ5LwYqVAX5JO6H0IlDJ8cg0+R0mkslken16XUmMk0Uec4553hbwaPnrhG2yULllcjHXaKXZyKcN5PhvBioUKUDJsgncT9ojqygnzgWLlzo+nXkps2bN9tjjz3mJsrLDXp9mowvkWlYfpCHsuu5r1692ttKfLldXrl9zCV6eX733XeuC0iQ6fnrdSSyQIUqHTBBPIlr+ocdO3Z4W9HR6w/NGB9UqgLWjx/WrFlje/fu9bYyNmDAAKtfv36uzvDr12tMdJGWYSxQRjkTSZlxzMUvjrnYCVyfqlhR6NHcNfp2lRO//vqr7dmzx9tKTTP/skhl9un9bNeuXYY/qkbWqBLNgZIRzdTeq1cvt2TCCy+8YCtWrPCuQbQiOTn6UYbwh1/lJZmVWV4ec4n8gR3pa+OYy1uBClV+nhTSKlasmJsvSVM1ROL111+3jRs3eltmbdq0cc1a4XQy0VIz48ePdyuAh98+GkE/cUT6/DWVxB133JHyo3Datm3blO26det6t8yYyvSKK66w5cuXu2/O1apV866JvUQ+wUfKjzKMJcootaAfc+CYy2sJV1MVzT9Ux44d3cKrP/zwg7fnUOfA9PoE3H///ama4V5++WWrWbOmt3WI+j5pv4bYa+TD0Ucf7V2DSOTLl891bAz9FCxY0LXJh7ZDi04rrGoiWA3ZVYANp9GS7733nvv2rPII7+SvWcDV7ymj+27fvt3uu+8+69Gjh5vB+P3337ePPvrIuxaR8KMMVYOsdepCVJ4ff/yxt3WojPv37+8+yP/2t78FfiBHXoq0vCSjMsvsmJPMjjuOuejF+pjjeMtcwoWqSP6hdFBrTT39Q/Xt29fd7+6773Yztesf5aSTTrKxY8fa888/76qv005Yplqq0LpTQ4cOdZPOzZgxw+0LURovUqSI++ecOnWqC3shWX2YI3vuuecea9SokWtuUHnMmjXLu8ZcFbdqKAcOHOi2L7nkkpSQrDJWzWRG973sssvcius33HCDK1udSJJxwsjckFkZ6jjUh23I559/7iaxDMmsjBE7GZVZVuWR2XHHMZd7cnrMcbxlLin7VOmg1gzlDRo0cAex6FtReDL/9ttv3T+amgXLli3r7T1Es/cqMJ155plu7iityffaa6/Z+vXrvVuY+4dTuu/du7drv+7evXvKqIesPsyRPYMHD3arobdv3966du2aqolX5aDJDitVquT6eajPXHhfgozuq6Zc1XIqODdp0sQtFZTX1eaJLLMyzEpWZYzYyKjMIimP9O7LMZe7cnrMcbxlLmk7qqutX4GqdevW3p7USpQoYTfffLNrvks7L5ZqvgoXLpwSqipXruxdc4i+aWl17ldffdXVjukfVyEufDbZaD5EkFqNGjW8S+YCcHiNoZppFYK1yLHCq9ZPDA+/Gd1XZXj88cdb0aJF3bbUrl3buwS/ZVaGWcmqjBEbGZVZJOWR3n055nJXTo85jrfMJW2oqlOnjnfJf1r7TdWh5513nquNUvhSTVj4CtrRfIggtbShN9QRUuWgWkH17VDfjLfeesuF5QMHDrjrJaP7lilT5rCBBfQdiJ2MykEKFSpk+/bt87YsVY1yJGWM2EivzCItj/TuyzGXu3JyzHG8ZS1pQ1XauVPU9yp83g6l75wqXbq0C0pap0/t0AsWLHCd31V7FZLZPzT8oWky9D6HynrKlCmpgm1mTj/9dHc/nUDkm2++SdU5GrmnevXqrk+HaFWF8I7L0ZQx/McxlxgyOuY43rKWtKEqrfB/IlVlZjXiRN+qNIFaerTgs0LaK6+84u0x27Vrl6veRu457bTTXE2hfjdv3twmTpwYcXOCvqm98cYb9tJLL7kh4aryVufM4sWLe7dAbrnrrrtsyJAhrildTeWNGzf2romujOE/jrnEkNExx/GWtSMOHDiQp1UkaWtsMvPggw9GPI9UiA5O9YtSZ/EQTX3wzjvvuFF+If/617/cBJ3HHXecG0Gotn3d9+9//7t3i9QmTZrkRgyqilSjKB566CHXWV3/bKJO6Wpz1uKRWjhYaV+31+jCtH//kUcecQHtiSeecNtZee6551xbdlA9+uijdu2113pbsaeJWfV/pnUTo9GiRQs3GklTb0RCI0fV2TZR5eR4zKmdO3e6Yyh0fKaV0zJ+9tln3VQryeDhhx92o+pyQ14dc+rkfuedd3pbiWX48OF2/fXXe1uxl9kxF035xuq8qOcS61qzSFqUEr6mShNwhgcq0UiF8EAl559/vv34448uGKnTuDqZZxSoRKP21KSn+2hOFU2REApUos7sX3zxhQtreiyFLAUqSfv3b7311ogDFbKvYsWKOTr41Q9Oc+boJKDRm5pY9qKLLvKuzVp2vjAgc+q8rC856QUqyWkZIzY45oIvs2OO4y1jCR+qsiP0TxRqL/aDJvzUen1qDsQhQTnxaSJYDRtWP4IuXbrYJ598kq1yTPQTfCK8vmT6EA7Ca432mEtkifK/mujHXKBCVTKdADMT9PfhxBNPtCVLlnhb8UthuE+fPinTX2gajUhplEytWrW8rcSUG9XtsaTnXqFCBW8r8QWhvKI55vTaErn2ROcTnVeCLBnOi4EKVUE/ifshEU4cmjjus88+87YSk16fXmci05Qhc+bM8baCR89dfXaShV5rkMsrK3pt+p9MVJoTMeiTROv563UkskCFqqCfxP2QCB8EmqVeHfjDp7BIJHpden16nYlMtQqrVq3ytoJHz12vIVmoWW316tXeVuJReapTdaIK+nkzWc6LgQpVQT+J+0GLOKedwT2INEx38uTJ3lZi0TDjbt26eVuJS83QGnARvgB5UOg5J+MSKPXq1bNFixZ5W4kjWcpTnfd1fgkizdOYDOfFwPWpCupJ3A963TopJgLNKK8FrNetW+ftSQx6PZo4NnzG/ESmUbCaADBoNKWJnnuy6dChg7377rveVuJIlvIM6nkzdF484YQTvD2JK1ChSnTg6ABKRjoZRjpfSxBojqMxY8a4iVETgV7H6NGj3bw6yaJAgQLumAxfLSDe6bmqE7Sfo3yDQq9Zr13z7CWKZCtPrVurdWSDct7U89Tz1fNOBoELVTqJ6wAK0kncD6ryTbQTh0b2DBo0yM3RFfRgpef/+OOPu1FL2RmxlAgaNmzo1v768ssvvT3xS2uWaQI/Pedk1aBBA1deWgYm6PQ/l2zlqfOLZjvX+Sbez5uh86Keb7KcFwMXqkQHkA6kIJzE/fD111+713vGGWd4exJH+fLlbeDAgfbYY48FdqVzPe8RI0bYzTff7F5PMurbt6/99NNPbuLcePXpp5+656iVE5Kdpi3QJMRBHoWr/7VkLU+dZ3S+0XknXs+byXpeDNQyNWm9+OKLrrASeRithqBqqQB9aCUyjQp5+umn7cgjj3TNSUGY8E+jWdSMsmXLFle1nWw1VOlR/yr1/evVq5dbnikeqC+HVjWoU6eO61OEv6grhTquq7yCssaeylPrqqp/bbKXp86bTz31lJUqVSpuzps6L6plRX2/cvO8mBtTLkWyTE2gQ5XE40ncD9u2bUs5cbRv397bm/iWL19ub775ppvdvlmzZnE5UZwmLp09e7ab9fnyyy93i3HjL5s3b3Z9y/bv3+/KMK8GVyxcuNCVk5bZUG1G6dKlvWsQTuWlvo0qr3POOceNoovkwyO3aSkwTSlDeR5O500tRh06b+bFIsea2FPHm9YMzIvzIqHK48fs4KGTuPoJhE7i8XhSyIreC30QqEpefadURZ+sJw4FlunTp7smCj/KUtXQatePlspIC2JrArtEn28lWlq3bcaMGe5/OidlGE2ZqZwUDjSnW6FChby9yEx4eUm8HXeUZ9aiPW/mtLzi4bxIqPKoMPwS7Uk8En6dJNIKvQ+cOGKD2fiDhzILPsowWIJcXoQqj5+hKjdwkggmyi14KLPgowyDJcjllRvPPZJQFcjRfwAAAPGGUAUAAOADQhUAAIAPCFUAAAA+IFQBAAD4gFAFAADgA0IVEs66deu8S5mL9HaIPcos+CjDYKG8YoNQhYSjGYXnzp3rbaVP1+t2iA+UWfBRhsFCecUGoQoJp127dnbVVVfZhx9+6O1JTYtU9+7d290O8UFloWWZtPBxenRy1/qelFn8UtmojDL6oNaanipjyjA+qBx0HswoNGl1Es6T2UeoQsLReolag6pv376HBSsFqiuuuMLOPfdcFmSNIyqLli1b2l133WVPPvmkt/cQfUh369bNrS1GmcUvlc1pp51mXbt2PSxYKSzfdtttrowpw/igctB5Mr1gpUDVs2dPyisHCFVISFdeeaVbUiA8WClQab8W3r766qvdPsSPHj16uLJ5+OGHU4KVPpxVZlrX85ZbbnH7EL8GDRpk+/btc19cQsFKgWro0KGubFXGiB8KTjpPqmY/FKwUqFTjqPLSb2QPa/9lE2tZBUeTJk3s559/dv9j+/fvt4IFC9revXutSpUqtmDBAu9WiCfNmzd3ZbV8+XJ3si9RooRt377djjzySFu8eLF3K8Szk08+2TZu3GhFixa1nTt3uuPvqKOOsqOPPtp9sUF8ady4sa1cudLy58/vAnHoPHncccfZvHnzvFvFP9b+A2JM1doVKlRwH9KiE4U+nFV7hfikmozy5cunnLwUqHRZzX8IBvWbypcvnwtUovKrXLkytVRxSrX25cqVc4FKdJ4sU6aMK0dkHzVV2URNVXBs3rzZzjjjDPfBHFKkSBH797//TT+BOKUyO+uss1w5hYZy6xv0999/T5kFhMrwlFNOcR/OUqhQIVee8+fPpwzjkMqrQYMGtmPHDm+PuVrGb775JlDlRU0VEGM6IbRt2zblxFCgQAFr06YNJ/Y4prJp3bq11a5d29tjduqpp1JmAaKyUpNSSK1atTju4pjKRefJ4sWLu+3ChQunOm8iewhVSGjq5KwwJcWKFaODegComWjVqlXuspqR6KAePOqwrr45smnTJpr+4pw6rKtGUVRLRQf1nCNUIaE1atTI9aOSUqVKuW3EN5VR6AO5ZMmSdt5557nLCA414ep4E32Z4biLbyqfUHlxnowOoQoJTx3WhQ7qwRGq2aCDenCFOjpTSxUMoVp8OqhHh47q2URH9eioWWfmzJnuPYyk058fdu/ebSNHjrTrrrvO9RfIDfq/1shD1bJoaHIi0jBsleXatWt9L8tYl5nKR8eyyqdq1are3sS0fv16NwfRL7/84sopUY+70GeJyrVFixZu6pREEirHUNN4kI65UNmoTNRn8phjjnHbfoqXjuqEqmwiVGWfpjSYNGmSG8GlgNG0aVP3Puam2bNnW7Nmzbyt3KH/kzlz5rjwUbduXbv00ktT+ncFlcpy4sSJtnDhwpiXZazLLLx86tWr58pHIw0ThSbf1MS3+gDTCgJ5ER7z8rhT+FC5durUKdDlqnL84IMP3FQjsS7HWJeXyuTTTz91I3svvPDCVAMaokWo8hCqEtuXX35pkydPtg4dOlidOnW8vcln0aJF9vbbb7sT/JlnnuntDZZELkuVz5QpU1z5NGzY0NsbTNu2bbNHHnnETWugWoFkpnJ95513XLlqepUgUTkOHz7cjX5NxHKcNm2a/ec//3HLF2mS32gRqjyEqsQ1ZswY97tLly7uN8wmTJjgDsxrrrnG2xMMo0ePdsdqopelykeC2q9ETXzPPvus3XTTTSkdj2GudlWCMvpXNTrPPfdcwpfjli1b7JlnnnGvM9oaOEKVh1CVmNQ2f8IJJwT+W38sqMZn6dKldv3113t74luylaXKZ9myZa5vSZD88ccf9uCDD9qtt94a+GbmWPjqq69cuV577bXenvikcnzggQdcDU4ylKNmctd6n1pMXaN9cypeQhWj/+A7NXPpH5xAlT69L3p/1JQW75KxLEPlo9ceJCNGjLAbb7yRQJUBNf+pXNXMG88effRRV3OTLOWo19mvXz/3uhMBoQq+0kR/WvhWHSqRMY060/uk9yte6bmpT0oylqVec7yXTzgtfKuFjGnyy5wW7I7nclWndPWFS7Zy1OvV69brDzpCFXylvjeaxRxZ0yzGo0aN8rbij56bnmOy0v+x/p+DQKPDWrVq5W0hMyrXUH/PeJPM5ajXrdcfdIQq+EbznKjNOTSDOTKn90nvl963eENZxnf5hNuwYYNr1gpa/9S8on478ViumocqmctRr1uvP7SQelARquAbTQSpeYsQuSZNmtiMGTO8rfhBWR6i90DvRTzT0PTcngsq6PR+xVu5qhzPOeccbys56fXrfQgyQhV8o8k9NdleItNQ5x07dnhb0VM/Ar1v8ea7775zfXSCxu/y0f9zPJZPOE2jkOizwseiXDWBbTwJajn6WTZ6/atXr/a2golQBd+oSt1vGm47bNiwXD8B/vrrr7Znzx5v6y+arM7vOaZi8b7FO52EVa6bN2/29mQP5RNbiX7cHThwwLuUHKI93iS3yiboxxuhCnlKoz2uuOIKV2OjJQs0JDz8RP7EE0+4tnbN2aITfSy8/vrrtnHjRm/rkDZt2qR6HitWrHDLKowfP95NIJj29okm0hObTrLt2rXL8CejJpZixYq5Ie4aSp0Vyidz2f0QyuqYk2Q47uLtwzuS55Mbx5twzOUcoQp55r333nPLRzRq1MitDahZj3X5qaeectfv2rXLnWjuv/9+69+/v/tGFAt6fFW9h3v55ZetZs2a3tah/g7ap5FD6sB89NFHe9dEL95O7tmhOWbuuOOOlB+VUdu2bVO2teZhRjp27GgXXHCB/fDDD96eQ325tL5guLwun0SS1TEnyXLcBVFuHG9C2eQcoQp5Yu/evXbLLbe4WXQHDBjgDtZKlSpZr1693DIbki9fPrdauvZpEc5y5cq5/aIZh9XX5fbbb3fD/vVtKdz27dvtvvvusx49ergZwd9//3376KOPvGv/om9koaUShg4dmjJPijqPa7/oA6ZIkSKu+nzq1KmHTcqX1XNJZCojdeYO/RQsWND1xQptazFfvT///e9/3fvTt29fd7+7777btm7d6mpMTjrpJBs7dqw9//zz9sILL6SaQ4jy8U8kx5wE4bhL1jKN9fEmlE10CFXIEzro165da5dffrm35y+hA1Qn9c8//9ydGHSy0MR9GnYsOimoKlvfsi+99FJ38M+aNctdJ5dddpmtXLnSbrjhBnci0Dfu0MkhnJpAdHLQIseaJ6VKlSpu/2uvvZbytwYOHOi+4ffu3dtNCtm9e3fXkTskq+eS7PT+qImpQYMGrlxEH7haMDbk22+/de+bminKli3r7aV8/BTJMSdBOO4o04xFc7wJZRMdQhXyhE7uOqCPOuoob09qP/74o6ua1gSU+gY2ePBgO/vss111c4j2qSmjffv21rVr15T+BGr3V7W4vmlpygL1C8moWlzf8vStPHQCqVy5snfNIfqA0CK7r776qnse+ns6YaWdtDOj54JDVDOiE3xGq+1rlfqbb77ZlW/4PD2Uj3+yOuYkSMcdZZqxnB5vQtlEh1CFPKE2eI1I2blzp7cntZ9++smOP/54d7uQU0891S2IGlKjRg3vkrlvW6GqaR30um/RokXdttSuXdu7lD1a0kJ9DrSsjL556USjb31pF+7M6LngkDp16niX/EX5RC6rY06CdNxRphmL1fEmlE3mCFXIE/Xr13dVzBl9g9FaUGmH/6rtv3Tp0t7WoRl4w6mdX8qUKXPYSBTNOp0T+ns6KWhttfnz59uCBQtcR099UwuX0XPBIfnz5/cuHaK+IOrjE6KV+XOC8olcVsecBOm4o0wzFqvjTSibzBGqkCe0VITa3dXeHt7/Rd92n3zySfcBoG9DarcXteVrtJKG9Wbl9NNPdycVte3LN998Yx9//LG7nB59GKxZs8bbSk3f0nVCeuWVV7w9h0ZH6Xki56pXr+767YjKNr3OzCGUjz+yOuaE4y4xZed4E8om5whVyDMaOaJRQppfRSNS1LFSw4M12kh9P7ToqfplqN1e1cwauptRH4FwhQoVsjfeeMNeeuklq1atmhserL9RvHhx7xapqf1ff+fEE0+0cePGeXsP0Td7jYZR9baenzpl6oNnzpw53i2QExqBptFBKtvOnTu78s0I5eOfzI454bhLTNk53oSyybkjDhw4kKf1cmmrCeOdFnxM218DhzzyyCN23XXXeVuR0+SCWppAB2uFChW8vYeo2lgdIC+++GL33udUixYt3EgkzdWSU2raUJ8UPQ99U/OLhjXrBBZPhg8fbtdff723FRvq26PO01qaIm1zRU7Eqnz04XHrrbd6W/HnoYcech2FsyOzY06S4bh78cUX3RQT8eL//u//7KabbvK2/Of38SaxKBtN76E5t7JLzyHWn82RNGNSU4U8p+Hc6uCa3sldoVsfaB9++KG3JzL6INR8OQosGu6rmYgvuugi79qc0eR2OiH5eWKPV7nxZUcdmlWj4dcJPpnKJ1qZHXOSDMddvH2hj/Xz8ft4E465wxGq4JtYnRT0jfmSSy7xtiKjmYM1saG+RXXp0sU++eSTuD3w4+3kjtTivXw47rKPYy5+Bb1saP7LptyoYgwqdW4tX758jodRJyMNT1aVfHY/vGLt3XffdbUYyV6WKp9169a5ZrB4pfmC1Ecmmma6ZLN06VK3QHA8las6fp911llJXY76bNWoQk1Am100/yHhtGzZ0j777DNvC5HQTMOaYC/e6DlRlubeA/1fxzP1W6KTcPbouIu3cqUczb1+zX8VZIQq+EYjh3bv3p1qPhRkTO+T3i+9b/GGsozv8gmnGa/V6RyRiddy1XIwaRcxTjarVq1yfbSCjFAFX3Xr1s3Na4OsabI8vV/xSs9t4sSJ3lby0f9xPJdPuHr16rkJGJG1yZMnp6yJF2+0rE+ylqNet/6Pg45QBV9peQKthq5+KMiY3h/NanzCCSd4e+KPylLPMRnLUq9Z/8fhy23Esw4dOrh+cMicJr6M53LVennJWo7vvPOOe/1BR6iC7zQvzejRo90suzic3he9P1r0NN4lY1mGykevPSg0TP7SSy9N6prFrKhcNbGpZpWPVypHBYtkK0fV2uv/18/pHvIKoQq+0wrnmpH3iSeeIFiloffj8ccfd++P3qd4FypLPedkKEu9Rv3fBqV8wml2a41O+vrrr709CFG5aimem2++Oe7L9YwzzrADBw7YV1995e1JbHqd+r/V604EhCrEhKZWGDhwoI0YMcJVueNQ04PeD53Y9f4EhZ6rnnOil2WofPR/G6TyCdenTx9btmyZG92GQ7Sos74UqGY4KOV6zTXX2E8//WSffvqptycx6fXpder1Jgrmqcom5qnKHo2yefrpp+3II4901bvJOPOuRhup0/OWLVvciT1oNSAhKsunnnrKSpUqlVBlGSof9bVRk19Qyyec+qcsWrTIzfeT0dp7iU7lqk7pOu6CWq4qR3XgVjmWKFHC2xt827Ztc/Nyaf3J9u3be3ujEy/zVBGqsolQlTPLly+3N9980y2VcM4551itWrUi+gcNsiVLltjs2bPdmltaskMrxSeC8LJs1qyZK8ug0XlH5aN5qBKtfEI2b97s+hCpKUnlpJFVupzIVK4//vijK1fN6p4I5apyVB8/lZ3OnRohGMRzp8pm4cKFrmzy5cvnaqdKly7tXRs9QpWHUJVcdKKbPn26m9E4N08MatYZMmSItxV7+r+uWbOmm0Qz3uc5yqlYl2UsyywZyidE6+/NmDHDfaBJoh53oc+SRC3X3CjHWJVXqGwUCDXJaaFChdy2nwhVHkIVcgPlFjyUWfBRhsES5PLKjeceSaiiozoAAIAPCFUAAAA+IFQBAAD4gFAFAADgA0IVEGCbNm2y2267zc2xBCD2NMXBrbfeyjGHdBGqgIBSoHrggQfsqquusn/84x+c5IEYU6C6//777eqrr+aYQ7oIVUAAhQLVoEGDrFKlSm4ZGU7yQOyEAhXHHDJDqAICJjxQlSxZ0u3Tb07yQGyEByqOOWSGUAUESHqBKoSTPOC/9AJVCMcc0iJUAQGRWaAK4SQP+CezQBXCMYdwhCogACIJVCGc5IHoRRKoQjjmEEKoAmJs3bp19vrrr7uTdE5kJ1CF+HGS1/PV89bzB4Ik2mMuO4EqhGMOQqgCYqx8+fJWvXp1a9SokV188cU2Z84c75qs5SRQheT0JD9hwgS76KKL7Oyzz3bPW88fCJLQMXfWWWdZu3btbObMmd41WctJoArJ6TH37rvvuufZuHFjjrmAO+LAgQNZL7scQ0cccYR3KRhYdT2Y4qHc5s6da926dbM9e/ZY6dKl7fLLL7f+/fu7y+mJJlCF++OPP+yJJ56wu+++24488khvb2r6ZnzffffZhx9+aLt27bIiRYq4b8w6yecVjrXgy+sy1DHXvXt32717t/vf79q1qw0ePDjDYy6aQBUukmNuw4YN7vh+7733bOfOnRxzUcqN537wYNZxiZoqIJfoZPnPf/7Tnaz1Lfa5556zevXquVqhtLVXfgUqyezbs2qlmjZtavXr17fJkye7D4AyZcrk+ckd8IP+h9988033f719+3YbNWqU1a1b1y644ILDaq/8ClSS2TGnWqnmzZvbqaeeauPHj7fChQvbUUcdxTGXIKipyia+PQdTPJWbvj336tXLneT/PP7cvnz58rkTv2qvrrzySnvmmWd8ObmHC317vu666+zxxx93tVL6hhxSrVo19wGgD554OLlzrAVfvJShjrnevXu7//e9e/e6ffrs0fGl2qs+ffrY008/HbNj7oYbbrCnnnrK1Urt2LHDu9asQoUKruZ69OjRHHNRyo3nHklNFaEqmzjRB5PKLUgefvhh69Chg7fln3feecetFRgUHGvBFqTjjmPuEEJVxghVMUCoQrTUHHHLLbe4Wir1o6hTp45t3LjRihYtaj169LC2bdu6mqoBAwb4+q1Z35CffPJJu/HGG+2jjz6yV1991dVM5c+fP+V/Wk0RaoZo0qSJ2wYSwZQpU+ymm25yx1zBggWtVq1arrmvWLFiMT3mVButY05/W8fca6+95mqv9Bx++eUXd5tChQq5/eecc47bRs4QqjyEKiSTUKAqW7asVaxY0ZYvX25t2rSxnj172plnnundylzYUZ8qv07yoUB1xx13pOo4u2DBAheudMIvV66crVmzxjVFEqyQKEKBqlSpUm7NvpUrV+bKMRcKVHfeeWeGx5ya/3TMKewRrKJDqPIQqpAsJk2a5Dqv6gR6wgknuG/IXbp0yXAkkl8n+YwCVTh9a1endZ3sFfQKFChgb7zxBsEKgfb++++7mtn9+/fn6jGXUaAKFzrmFKZ++uknV2M8btw4glUOEao8hCokA3WUVWfYFi1aHPYNOTPRnuQjCVRphb5Jz5gxw8aMGcOIJARSXh1zkQSqtDjmokeo8hCqkOg0B9T06dPd5H4ZfUPOTE5P8jkJVOH0TXrq1KnWqlUrJiNEoOTVMZeTQBWOYy7nCFUeQhWQteye5KMNVECyy+4xF22gQnTiJVQx+ScQADpJDxs2zM11o9FDmSFQAdHLzjFHoEIIoQoIiEhO8gQqwD+RHHMEKoQjVAEBktlJnkAF+C+zY45AhbQIVUDApHeSJ1ABsZPeMUegQnoIVUAAhZ/k1TmTQAXEVnrHHIEKaTH6L5sY/Yd4ohFKWnJjyZIlnNyBXMAxF58Y/QcgaqGTOid3IHdwzCEzhCoAAAAfEKoAAAB8QKgCAADwAaEKAADAB4QqAMhlGkF222232aZNm7w9ABIBoQoAcpEC1f33329XXXWVW7CXYAUkDkIVAOSSUKAaOHCgVapUyQYNGkSwAhIIoQoAckF4oCpZsqTbp98EKyBxEKoAIMbSC1QhBCsgcRCqACCGMgtUIQQrIDEQqgAgRiIJVCEEKyD4CFUAkI5169bZ66+/bps3b/b2ZE92AlWIH8FKz1fPW88fQO4iVAFAOsqXL2/Vq1e3s88+2y655BJ78803vWuylpNAFZLTYPX5559b+/btrVGjRu556/kDyF2EKgDIQOPGjW3MmDG2cOFCGzJkiB1//PF23XXX2a+//urd4nDRBKqQSIOVaqX+7//+z0466STr3LmzffvttzZ27Fj3vAHkPkIVAGRCAWXcuHFWpkwZK1eunL377rvWoEEDV4OVtvbKj0AVklmwUq2Uas/q1atnTz31lLu+ePHi9s9//pNABeShIw4cOHDQu5wnjjjiCO9SMBx77LH222+/eVtA3uN/MnfMnTvX+vbta8ccc4wtWrTI22tWuHBhO//8811N1ujRo30JVOH++OMPe/zxx61fv34uxL322msuvO3fv9+7hblApf0EqtzBMRd/cqNMDh7MOi4RqrKJgwnxRv+TiA/Dhw93/Zr8NmXKFLv99tu9LcQDPgfiC6HKQ6gCEASqqbriiits586dbltNgXLkkUdar169rG3btvbcc8+5mqpixYq56/ygmio18amm6qOPPnJNkbt373Y1Zj/88INt377dnUfV7Hj11Vd79wKSC6HKQ6gCEO9CgWrv3r3uHPC///3PLrjgAuvZs6edeeaZ3q0O9alSx3G/glUoUA0bNsyFt5AFCxbYq6++ah9//LHVrFnTdZzXFAoEKyQrQpWHUAUgnilQdevWzfbt22fVqlVztVJdunSx0qVLe7dIza9glVGgCqfRfxMmTHC1V8uWLbP8+fPbww8/bN27d/duASQHQpWHUAUgXilQ9enTx1q0aHFYrVRmog1WkQSqtEK1VzNmzHDTQNBpHcmEUOUhVAGIR2pOmz59urVr1y7DWqnM5DRY5SRQhVPt1dSpU61Vq1ZMAIqkQajyEKoAJKrsBqtoAxWQrOIlVDH5JwDEiILRHXfcYU8++aTt2LHD25s+AhUQfIQqAIihSIIVgQpIDIQqAIixzIIVgQpIHIQqAMgF6QUrAhWQWAhVAJBLwoOVOtUSqIDEwui/bGL0H4BoaVRgrVq1bMmSJQQqwAeM/gOAJBUKUgQqILEQqgAAAHxAqAIAAPABoQoAAMAHhCoAAAAfEKoAH/3vf/+z22+/3Y3uAgAkF0IV4BMFqgcffNB69+5tDzzwAMEKAJIMoQrwQShQDR482CpVqmQDBgwgWAFAkiFUAVEKD1QlS5Z0+/SbYAUAyYVQBUQhvUAVQrACgORCqAJyKLNAFUKwAoDkQagCciCSQBVCsAKA5ECoQtJZt26dvf7667Z582ZvT/ZkJ1CF+BGs9Hz1vPX8AQDxh1CFpFO+fHmrXr26nXnmmdapUyebN2+ed03WchKoQnIarF566SXr2LGjnX322e556/kDAOLPEQcOHDjoXc4TRxxxhHcpGI499lj77bffvC0E2dy5c61r1662b98+K1OmjJtf6pprrrHSpUt7t0gtmkAV7o8//rCnnnrKhg0bZkceeaS3N7UVK1bYfffdZzNmzLC9e/da0aJFbdy4cda4cWPvFgg6ziWAf3LjeDp4MOu4RE0VkpYCyvjx461IkSIuMD322GN28sknp1t75VegksxqrFQrpRo01Up99NFHVq1aNStbtiyBCgACgJqqbOLbZeJRjdUVV1xhO3fu9PaYFShQwEqVKuVqrxSynn32WV8CVbhQjVWPHj1coFOt1J49e7xrD4W+pUuX2osvvkigSkCcSwD/xEtNFaEqm1RwSD4PP/ywdejQwdvyz7vvvmu33nqrt4VkQ6gC/EGo8gQtVCHxPP744zZ8+HB3+aijjrKTTjrJ1qxZY4UKFXK1SG3btrWnn37aBg4c6GtN1a5du9zfvvHGG11T39ixY23Lli2uj5d+S/Hixe21116jpgoAMkGo8hCqkJdCgapq1apWoUIFW7x4sbVu3dp69uzp+jaFqO/T/fff71uwCgWqO+64I1Vn9QULFtgrr7ziQpaaHzV9gjqpE6wAIGOEKg+hCnll9OjRboTdn8eA1ahRw9VKdenSJcPRf34Fq4wCVTjNSTVhwgRXe/Xzzz9bwYIF7c033yRYAUA6CFUeQhXygjqn9+nTx1q0aHFYrVRmog1WkQSqtEK1VzNnzrQxY8YQrAAgDUKVh1CF3KYmtenTp1u7du0yrJXKTE6DVU4CVTjVXk2dOtVatWrFBKAAEIZQ5SFUIYiyG6yiDVQAgIzFS6hi8k8gBxSM7rrrLnvyySfdfFOZIVABQHIgVAE5FEmwIlABQPIgVAFRyCxYEagAILkQqoAopResCFQAkHwIVYAPwoOVRhcSqAAg+TD6D/CRRgXWqlXLlixZQqACgFzC6D8gAYWCFIEKAJIPoQoAAMAHhCoAAAAfEKoAAAB8QKgCAADwAaEKAADAB4QqAAAAHxCqgChoos9IRHo7AEBwEaqAKEyfPt3mzp3rbaVP1+t2AIDERqgCotCuXTvr1atXhsFq7Nix1qdPH3c7AEBiI1QBUShdurRblqZbt26HBSut/3fPPfdYy5Yt3e0AAImNUAVE6dZbb7U9e/bYlVdemRKsFKiGDx9uBw4csB49erh9AIDExoLKgA/q1KljmzdvtuLFi9v27dvdvurVq1uBAgVs1qxZbhsAEBssqAwkkCuuuML9DgUqKV++PLVUAJBEqKkCfKBaqnr16tn+/fvdtgLVrl27bN68efSnAoAYo6YKSCAKTqeddpq3Za7zeuvWrQlUAJBECFWAT9RhPV++Q4fUL7/8QtMfACQZQhXgk3POOceOPPJId7lgwYLWqFEjdxkAkBwIVYCPQh3WqaUCgORDR3UknFWrVtnMmTNdp8VIOhb6affu3TZy5Ei77rrrrHDhwt7e2NNxVKFCBWvRooVVrVrV2wsAySFeOqoTqpAQNOpu8uTJ9t1339lxxx1nTZs2dQdZXpg9e7Y1a9bM28o9OqHMmTPHVq5c6UYiXnrppZY/f37vWgBIXIQqD6EK0frqq69s0qRJ1qFDBzcJJ8wWLVpkU6ZMsU6dOlnDhg29vQCQmAhVHkIVojFmzBj3u0uXLu43UpswYYL7rUWdASBREao8hCrk1IsvvmgnnHCCnXHGGd4epOfLL7+0ZcuWuX5eAJCI4iVUMfoPgaSmLR1EBKqsqflP79Xbb7/t7QEAxAKhCoGzadMmW7x4sTVv3tzbg6yce+657j3TewcAiA1CFQJH/aiuvPJKbwuR0ns2evRobwsA4DdCFQJF80CpXbtkyZLeHkRKs73rvdN7CADwH6EKgaJJPTUHFXJG753eQwCA/whVCJSFCxe6iS3jkRZR3rFjh7cVn/Teff/9994WAMBPhCoETiTDWv2wZs0a27t3r7eVufnz59uNN96YazOYv/fee/bQQw/Z2LFjvT0AgLxGqEKgZDdQKejktLlLI+aWLl3qbR1uxYoVduGFF7rFkzdv3myvvvqqW+/v9ddft40bN3q3io2LLrrIOnfubNOnT/f2RC63QikAJBtCFRLaN998Y+vXr/e2/DVt2jR7+eWX3ai6o446yv3I/fff75oCY0mT5mqNwVGjRnl7AAB5jVCFpPHAAw+4/kS333679ezZ08aPH+9dkzWNmHv44YfdgsWi2p4iRYrYsGHDbOrUqVagQAG3X7VUW7ZssWeeecaGDh1qc+fOdfvT2rlzp3s+quV67rnnXHPeRx995K7TY27bts1dFl338ccfe1tmH3zwgfXv39/VUqkJcMOGDd41AIC8RKhC0lD/o379+lmjRo3s0ksvdaFn1qxZ3rUZU0jSwsRbt261Jk2auH0DBw50Yad3796umbB79+723Xff2SmnnOLC1plnnmmtWrWyKlWquNunpdqtH3/80W644Qb7/fffXUgKBbDnn3/etm/f7i7L559/7vpshahJsl27du45yCWXXGL79+93lwEAeYdQhaQyePBgF5Dat29vXbt2zbK/lZrx2rZt64KLapbU7LZy5Uq3ULH6UGmKAj2e+m6pKe7kk092/apCoapy5creI/1lyZIl9sUXX7jwpJB21113Wa1atbxrs6Yw1bJlS6tUqZL16tXL9efKrO8XACB3EKqQVGrUqOFdMitbtqyrhcrMNddcYy1atEi1GLGWe1HN0HnnnedqvRSgRo4cGfFinj/99JNVq1bNihUr5u05NNVBpNRnSzViek6qbfvjjz9i1m8MABA5QhWSimqawmU1Eu6xxx6zyZMnp1qMuHTp0i6QzZs3zzXLLViwwH744QdXexWJUqVKHRbmwrcLFSpk+/bt87YsVf8qBTo1Y3711Vf2/vvv21tvvWUlSpSwAwcOeLcAAOQVQhWQibp169o777zjmujefPNNt+/UU0+1ggUL2iuvvOK2ZdeuXa5ZUMqUKePmuMrIaaed5jqqf/LJJ25btw11Upfq1au7flSydu3aVNdpclEFw9B8WFOmTIm4hgwAEFuEKiALJ554ohvhp5F2L730kuuIrlF+avJr0KCB66hev379lJGB6rd12223ufuNGzfO7QunZj/1p+rbt69rQuzSpYudc8453rXmAtyQIUNcfy31+2rcuLF3zaFApiZH/W7evLlNnDjRateu7V0LAMhLRxw4cCBPZwJM2xwDZObRRx+1a6+91tvKe5rkU7VHxx57rKu9yg7N1r569Wo3QvDee+91tU9///vf3XWqyVIt1XHHHWf58h3+3efXX391x47+bnYpDN56663eFgAEn86Fsa61j2TiZGqqECjxFsKPPvpoq1q1arYDleg+6rAemuMqXNGiRd116QUqqVixYo4ClfBFBgBig1CFwEnEUKARhmoKBAAEF6EKgaJ+Spo0M9EoVKlvVqxpjqzszIkFAIgcoQqBokkvI5kFHen77LPP3HsIAPAfoQqBopFzmr5AnbyRPXrPtIZh+KSjAAD/EKoQOJpmQBNyInsmTZrk3jsAQGwQqhA4WmpGixuzNEvk1q1b55azCV+mBwDgL0IVAqlfv342ZswY1xSIzOk90nul9wwAEDuEKgRS4cKF7eabb7Ynn3ySYJUJvTdPPPGEDRo0yL1nAIDYIVQhsMqXL28DBgywxx9/3DZs2ODtRYjeEy0IPXDgQPdeAQBii2VqEHga0fb0009bqVKlrFOnTjma3TyRaJSfOvJv2bLF+vfvTw0VgIQXL8vUEKqQMJYvX27//Oc/3RIvWqBYk1z++f/tXZvYdBxpYs/Zs2e7tQi7d+9u1atX964FgMRGqPIQquA3hYrp06fb0qVL3XYkB4KfRowYYUOGDPG2Yi90DNWsWdNatWrFPFQAkg6hykOoQqLJjYMbAPCXeAlVdFQHAADwAaEKAADAB4QqAAAAHxCqAAAAfECoAgAA8AGhCgAAwAeEKgAAAB8QqgAAAHxAqAIAAPABoQoAAMAHhCogF4wbN8675A+/Hw8AED1CFZALrrzySu+SPyJ9vHbt2tmBAwe8rehF+3h+Px8AiCeEKiAXacHPHTt2eFt/2bhxY4aLgSqE/PLLL/bHH394ew63b98+79JfdL9//etftnfv3lTXa3vNmjVZLg6q56O/GwpBGT1eRs89dJt169bZpk2bMrw/ACQKQhWQS6666ipXw1S7dm17/vnnvb1mLVu2tK5du9oVV1xhp556qgsyIRMnTrQaNWpY3759rXnz5vbee+951xyigNK7d2+78cYbbf/+/d7eQ4YNG+b2tWnTxlq1amU7d+60MWPG2Iknnujuo+fx1Vdfebf+y9atW+2ss86yyy+/3K655ho799xz3f70Hi+z516wYEH3vDt16mRvvPFGuvcHgITy57fHg3n5AySaChUqeJf+8uehdvDll192l9etW3ewXLlyB9esWeO2d+zY4X7LE088cXDgwIHu8q+//nrw6KOPPrhs2TK3Lbt373a/9Xh/hp+DfwaUg/fdd5/bl578+fMf/DN4uct/Bp6DZcuWPfjbb7+57T8D28FTTjnFXQ43ZcqUg507d/a2Dh7ct2+fdyn140lGz130HF9//XVv65C09wcAP6R33vVbehkm7Q81VUAuUY2NHHPMMa4mKFRL9OGHH1r79u3t7LPPttGjR9uPP/7o9s+bN89OP/10V1MVUqhQIe+S2TnnnGN/hh+7++67vT2ZW7BggTVs2ND+PPm47Y4dO9rixYtdzVS40047zb744gvr0aOH6xCfXnNlSEbPPaRDhw7eJQBIfIQqIA/8+aXH/V64cKHddttt9vjjj7sg89BDD9mePXvcdVlRE9rbb79tu3bt8vZkTn/ziCOO8Lb+knZf1apVXdhSIJo+fbrVr18/3aa6SJ57sWLFvEsAkPgIVUAumTJlivu9YcMGV2t0xhln2MqVK61y5cpWvXp1d9348ePdb2ncuLF9/fXXtnTpUm+PpQotjzzyiHsMjajbvn27tze1UqVKuU7i0qhRI/d3165d67YVyNSvqmTJkm47ZPPmzVaiRAlXC/byyy+70Ba6T/jjZfbcMxJ+fwBINIQqIJfMnDnTddJu0KCBa7KrWLGi6wSu5rUmTZq4JrRQDZaomU4d2tUZvHXr1q4p8OOPP/auPeS+++5zNVZt27Y9rBlPBg0a5B63Xr16VrZsWXv44YdduGrRooXdcccdruN6WvobNWvWdGFNz/XCCy+0atWquevCH0+Pk9Fzz0j4/emoDiDRHKGOVd7lPJFecwQQZMcee2yG0yOolkb9oooXL+7tOdQspykOypcv70bMpfXnMWqrV6+2MmXKuBqkaGnE4Pr1612oy+j4U+2UXoP+pmqXMpLVcweA3JDZedcvkXxxJFQBPsuNgxsA8Jd4CVU0/wEAAPiAUAUAAOADQhUAAIAPCFUAAAA+IFQBAAD4gFAFAADgA0IVAACADwhVAAAAPiBUAQAA+IBQBQAA4ANCFQAAgA8IVQAAAD4gVAEAAPiAUAUAAOADQhUAAIAPCFVAHnvzzTftwIED3hYAIKgIVUAeu+qqq2zPnj3eFgAgqAhVQC5RbdTq1att37593p70/fbbb/bLL78cVnsV6f0BAHmDUAXkgilTplidOnWsb9++dtJJJ9nUqVO9a/6ydetWO+uss+zyyy+3a665xs4991zvmsjuDwDIW0f8+e33oHc5TxxxxBHeJSAxHHvssa62KWT9+vXWsGFDW7BggZUvX95WrVplTZs2teXLl1uBAgWsSJEitnnzZvvXv/5l48aNswkTJrj77d+/3/Lnz5/l/QEg2aU978bCwYNZxyVqqoAYmzt3rvvy8Mgjj9gtt9xiTz31lG3bts1WrFjh3eKQ0047zb744gvr0aOHC1c7duxw+yO9PwAgbxGqgBhTX6gKFSpYhw4dUn7effddq1ixoneLQ6pWrWqLFy9210+fPt3q169vO3fujPj+AIC8RfMf4LO01dC6rFqoOXPm2AknnOD2/f7771amTBl3OdT8t2vXLitVqpQ7JlTNXLlyZXcfXZ/Z/QEg2dH8ByQJHezPP/+8tWnTxlq1amWNGze2Cy+80Lv2Lx9//LHVrFnT2rVrZw0aNHC3qVatWsT3BwDkLWqqAJ9l9I1J33LWrFnjap6OPvpob29qqq3SfVULpVqrcJHcHwCSUbzUVBGqAJ/lxsENAPhLvIQqmv8AAAB8QKgCAADwAaEKiDOa9DNWwhdvjmQhZ82X5QfNAP/oo4/aY4895u0BgMRDqALijGZN//77770tf4Uv3nz33Xfb3r173eWMXHnlld6l6GhEY+HChZlbC0BCI1QBAZG2BkvbWrrmvffeS/e6rCxZssQFnRDVWmkh5z/++MPb85d169bZli1bvK2MqaNo2sWgQ8/loosusm7duqV63gCQSAhVQB574IEH7IMPPvC20qdlacqWLettHaJ1//7xj3/Yhg0bXO1WyL59+6x48eLeVsZ0G03hIBMnTrQaNWq4BZubN2+eKvDcdNNNdtlll7kFnZ977jlvb2oZLQYd/rw155aEnvf27dvdNgAkCkIVkMe0aHK+fDk7FB988EHr2LGjt5Uzql264YYb3NI4H330kX3zzTd2/vnne9eam3B01qxZbkb3++67z9ub2syZM61KlSrutxaG1u/M6Hl37drV2wKAxECoAvLY0KFDrW3btt5W5BTGTj755Kjneps3b56dfvrprqYqpFChQt6lQ/2hpHr16q5GKtQnK1xGi0Gnx6/nDQDxhlAFBICCSHg/pfBgk/a63bt3e5f8ER6wVKOW3ojBjBaDzux5A0CiIVQBeezTTz+1H3/80dtKX9GiRV24Wblypdt+//333W8pWbKkm+l39erVblvTF2SH1hL8+uuvbenSpd6e7IcfLQhdokQJ69y5s7388suur9batWszfd4AkGgIVUAe0/xNWkw5nDp6V6hQIeVHzW5/+9vf7Oyzz3bXpe2zdM8991ijRo3cdZ999pm3NzJ6fC3Y3LJlS2vdurVrCkz7fLKS0WLQktnzBoBEwtp/gM9iuQaVpjVQLVD4aL8Q1RaphumYY47x9mRO4atZs2Ypx6Ca6VTbpcWcVeuUXZktBp3Z8waAaLGgsodQhUQTlAWVixQp4qY80BQHABBkLKgMIE9pnigCFQD4h1AFJCmNzAMA+IdQBQAA4ANCFQAAgA8IVQAAAD4gVAFRWLdunXcpc5HeDgAQXIQqIApakmXu3LneVvp0vW4HAEhshCogCppBvE+fPhkGK+3X9aFFiQEAiYtQBUShdOnSduKJJ1qPHj0OC1ba7tatm1v+RbcDACQ2QhUQpTZt2tjOnTutb9++KcFKv6+44grbt2+fC1wAgMTHMjVAlLRm3vHHH28nnHCCbdiwwTZu3GjFihVz6/Bp/+zZs71bAgBigWVqgASRL18+tzDxokWLrHbt2m7fjh07rFKlStazZ0+3DQBIfNRUAT748ccfrXnz5t7WIcWLF7evvvqK/lQAEGPUVAEJRJ3VK1as6G2ZHXPMMXbBBRcQqAAgiRCqAJ9o6oRwdFAHgORCqAJ8cv3111vBggXd5SOPPNIaNWrkLgMAkgOhCvBJqMO60EEdAJIPHdWBKKjj4pdffumWodHvNWvW2C+//OKmUqhQoYI1bNjQWrVq5X7zvw4AsREvHdUJVUAOff755/bQQw+5y+eff76rpSpfvrybWqFOnTpuEWXNUfWvf/3L3Wbo0KHWpEkTdxkA4B9ClYdQhaDZv3+/PfjggzZz5ky7/fbbXaDKioLVww8/bOedd57deeedlj9/fu8aAEC0CFUeQhWCRIFKHdL1+6mnnrISJUp412Rt27ZtNmDAABeoXnjhBYIVAPiEeaqAAFINlQLVqFGjshWoRLfX/UI1XQCAxEKoAiKkPlRq8nvyyScPq2XSzOmDBg1yfaZq1KhhTZs2ddvaH0730/31OHo8AEDioPkPiICqfdu3b2833XRTqj5UqnW655577MMPP3SB6ffff3f7jz76aKtVq5b9/PPPrh+VbhMexNTH6tlnn7V33nmHYwAAokTzHxAgmi7hzy8gh3VKV0f1d99917Zs2ZISqGTjxo2uJmrPnj32ww8/2H333eddc4geR4+nxwUAJAZCFRABzUOltfzCzZ8/36ZOnWo7duzw9hxuw4YNtnr1atfcl7YpUI+nxwUAJAZCFRCBBQsWHDbHlOaoUk1UVtavX2/VqlWzcePGeXsO0ePpcQEAiYFQBURAwUht9uEWL17sXcraTz/9dFiA0uPpcQEAiYFQBURg06ZNVqZMGW/rkL1793qXsrZ27Vr3GOH0eGn3AQCCi1AFROCoo45K1RFdtIBypDTCT48RTo+Xdh8AILgIVUAEjjnmmMOG65YrV867lDXd9swzz/S2DtHj6XEBAImBUAVEQIEo7WSdV155pXcpa7t377YePXp4W4fo8dIGLQBAcBGqgAi0atXKTfAZTmsAVq5c2dvKmJanufDCC+2MM87w9hyix9PjAgASA6EKiEDDhg1dHyrNhB7u/ffftypVqnhbhytcuLCb6PPee+/19hyix9Hj6XEBAImBUAVEQB3NNXv6ww8/bH/88Ye316xkyZL26aefuusqVqxoBQoUcPuLFClip59+uo0dO9aGDx+eaoka3V+Po/uwRA0AJA7W/gOy4R//+IetWLHCRo0addiiypHQWoF9+/Z1k4Hefffd3l4AQDRY+w8IoDvvvNOFKQWjbdu2eXsjo9vrfrq/HgcAkFgIVUA2KBC98MILrqbpkksuOayPVUZ0O91e99P9c1LLBQCIbzT/ATmkKRG0/p+oM3qzZs2sfPnyVqFCBTeD+rp162z27NkpwWvo0KGHrR8IAIhevDT/EaqAKOgg+/LLL2369Onut9byU6BSsNLEnhrdp2kT9Jv/dQCIDUKVhw8aAAAQDTqqAwAAJBBCFQAAgA8IVQAAAD4gVAEAAPiAUAUAAOADQhUAAIAPCFUAAAA+IFQBAAD4gFAFAADgA0IVAACADwhVAAAAPiBUAQAA+IBQBQAA4ANCFQAAgA8IVQAAAD4gVAF5ZPPmzfb666/bunXrvD0AgCAjVAG5bMGCBdavXz87++yzrXr16la+fHnvGgBAkB1x4MCBg97lPHHEEUd4l4DEpVqpCRMm2CuvvGIrVqywggUL2ptvvmmNGzf2bgEAyKljjz3WfvvtN28rNg4ezDouEaqAGFKt1KuvvmoffvihHXXUUbZ27VorUqSIvfbaawQqAPAJocpDqEKiCa+V2rJli/15jNnvv//uritevDiBCgB8RqjyEKqQSGbOnGmXX365twUAyC2Eqj8RqpBoli1bZvfdd599+umntnfvXm+vWdOmTW3x4sX24osvUlMFAAFDqALykA7AUaNGuRC1Zs0at69OnTq2YcMGghUABAyhCogT4bVX+/bts6JFi9q4ceMIVgAQEIQqIM6Eaq80GnDJkiU2ZswYghUABAChCohjGiU4depUa9WqFROAAkCcI1QBAAD4IJJQxTI1AAAAPiBUAQAA+IBQBQAA4ANCFQAAgA8IVQAAAD4gVAEAAETN7P8B2+2D79LVwskAAAAASUVORK5CYII=;" parent="1" vertex="1">
          <mxGeometry x="30" y="570" width="328.32" height="490" as="geometry" />
        </mxCell>
        <mxCell id="u_DipVWJh2a4aAwE_JY7-5" value="" style="shape=image;verticalLabelPosition=bottom;labelBackgroundColor=default;verticalAlign=top;aspect=fixed;imageAspect=0;image=data:image/png,iVBORw0KGgoAAAANSUhEUgAABB0AAAI8CAYAAAC9JdM3AAAAAXNSR0IArs4c6QAAAARnQU1BAACxjwv8YQUAAAAJcEhZcwAADsMAAA7DAcdvqGQAAMtkSURBVHhe7N0JvEzl/wfwr+w7RbZsIRQR2dXPlqKslSWUNZIUSiSRijaVorKLNpKtUD8Jpatf+stSRKJQQvZ9Pf/7+d7nMHfMeu/M3Jk5n/frNa97znPmnnOes8zM8z3Pku7ChQuWEBERERERERGF2BXmLxERERERERFRSDHoQERERERERERhwaADEREREREREYVFmvfpkC5dOjNFREREREREFHssi10lesOaDkREREREREQUFgw6EBEREREREVFYMOhARERERERERGHBoAMRERERERERhQU7koyALVt+k0WLFsuJEyd1/oor0kn27NmkSZM7pHTp0ppGREREREREsYkdSXrHoEMY7dr1l7z77kQpXLiY1K/fWHLkyGmWiBw7dlRWrlwqu3fvkB49ukuhQoXMEiIiIiIiIoolDDp4x6BDmKxevUbmzJkvPXr0kYwZM5nUy507d1amT39XWrZsJpUqVTKpREREREREFCsYdPCOfTqEwc6duzTg0Lt3f58BB8iQIaN07fqIzJ//mezevdukEhEREREREcU+Bh3CYNy48VrDIRj3399LJk6cZOaIiIiIiIiIYh+DDiG2YcMmKV68lN8aDu7Sp88oxYpdK7/99ptJISIiIiIiIoptDDqE2H//u0Tq1Wtk5oJTt24D+eqrr8wcERERERERUWxj0CHEjh07nmyUimBkyZJNTpw4YeaIiIiIiIiIYhuDDiGWml5L8a/s9ZSIiIiIiIjiBYMOIZaaIUDxr/E6hCgRERERERE5D4MOIZYjR3Y5duyomQvOqVMnJFu2bGaOiIiIiIiIKLYx6BBijRvfJsuXp6wzyJUrv5ZGjVLWCSURERERERFRtGHQIcQqViwvf/75u5w9e8akBOb8+bOyY8c2KVOmjEkhIiIiIiIiim0MOoTBww/3lIkTx5q5wEyf/q706NHdzBERERERERHFPgYdwqBo0WukdesW8vbbr/mt8XDu3FmZMuUtadGimRQqVMikEhEREREREcW+dBcuXEjTMRrjebSGXbv+knffnSiFCxeT+vUbS44cOc0S0c4mV65cKrt379AaDgw4EBERERERxSbLStNidVRj0CECtmz5TRYtWiwnTpyUTZs2yg033CDZs2eTJk3ukNKlS5t3ERERERERUSxi0ME7Bh0ibPTo0TJgwAAzR0RERERERLGOQQfv2KcDEREREREREYUFgw5EREREREREFBYMOhARERERERFRWDDoQERERERERERhwaADEREREREREYUFgw5EREREREREFBYcMjMVZs2aJTt37jRzgUlISJDatWubucAULVpU2rRpY+aIiIiIiIgomnDITO8YdIiw0aNHy4ABA8wcERERERERxToGHbxj8woiIiIiIiIiCgsGHYiIiIiIiIgoLBh0ICIiIiIiIqKwYNCBiIiIiIiIiMKCQQciIiIiIiIiCgsGHYiIiIiIiIgoLBh0ICIiIiIiIqKwYNCBiIiIiIiIiMKCQQciIiIiIiIiCgsGHYiIiIiIiIgoLBh0ICIiIiIiIqKwYNCBiIiIiIiIiMKCQQciIiIiIiIiCgsGHYiIiIiIiIgoLBh0ICIiIiIiIqKwYNCBiIiIiIiIiMKCQQciIiIiIiIiCgsGHSLo5MmT8uOPP+pfIiIiIiIionjHoEOEXLhwQUaNGiVDhw7Vv5gnIiIiIiIiimfpEgu/lplOE+nSpTNT8W306NHSvHlzKVOmjPz222+yYMECGTBggFlKRKlx5MgReeedCXLq1Fk5fz42AnpXXHGFZMqUQXr3flDy5MltUok8W7p0uXzzzXdipek3dmjh6//WW+tIw4b1TAoRUXLx+Nlnw2dgvXp1pX79/5gU3w4fPixvvz1BTp8+F/UPL5G3+vVvSczfrSbFN+Rt3LgJcuZMdOcN+briinSJ+bpF/vOfW0zqJVY8XqghwqBDBEyfPl1Kly4ttWvXNikiCQkJsnXrVrn//vtNChGl1OjRr0uTJvdIzpy5TEpsOHr0iMyfP1MGD37cpBBdbs6cuYnXyllp0OB2kxI/vv76v5I58wVp166tSSEiShLPn322ZcvwGWhJ27ZtTIp3L700Wpo1axMzv3WWL/+vZMoUn3n79tuvJEOG89KmTfK8MejgHZtXhNmXX34pOXLkSBZwAMwjHcuJKHVOnz4TcwEHwD5j34l82bLlt7j90d2gQWPZuvV3M0dEdEk8f/bZ6tcP/DMw1n7r1KvXWH7/PT7zduutjWTbtm1mjgLBoEMYrVu3Ti/I1q1bm5TkkI7leB8RpRwDy0SxK0OGDGaKiMh5MmYM7DMwFn/rBPr5Hmt5w/5mzJjRzFEgGHQIk127dslnn30mDz30kEnxDMvxPryfiIiIiIiIKJ4w6BAGSZ3avSNPPvmkSfEN78P78X9ERERERERE8YJBhxA7e/asvPTSSxpICLTaDd6H9+P/8P9ERERERERE8YBBhxBD4ABNJnLlCq4zFLwf/4f/JyIiIiIiIooHDDqEEJpINGvWTK655hqTEhz8H/4f6yEiIiIiIiKKdQw6hMicOXPk2muvlUqVKpmUlMH/Yz1YHxGFxq5dO2T9+p9k3749JuWSgwcP6LLt24Mbtm/y5Hfk008/NnNE0eHcubPy44/fy9y5s2TJksXy22+/miVERPHH/n7Ha+PGn+Xw4UNmSRInfVe7H4u//tollpdhIWLtuPz++5bE/Ow0c5ccOnRQ8+stnzb3/PI3XOQx6BACCQkJcuzYMbn99tCMJYz1YH1YLxGl3muvjZK77qovAwc+alIuGTVqmC575pmBJiUwP/30Y+KX+gYzR5T2vvrqC6lTp5J07Nhapkx5V8aMeVnuvLOeNG5cW/7v/34w7yIiih/4fm/Z8jbp1OluueeeJlKxYgm5776WFx8yrFr1raxd+386He9cj0Xbtnclfh/cKBUqFJdBgx6V/fv3mXclibXfMP3799bvNHdff/1f/Q135sxpnX/66cflnXfe0GlX7vl10nURLRh0SKXffvst8cJdJffff79JCQ2sD+vF+oko9cqUKSfffPN1si/ekydPyuefz5WyZcublMCNHTtZhg59wcwRpa1Vq1ZKjx4dpFmz1ok/pLbJZ599nXhtL5MNG/6Q9u0fSPwu2WzeSUQUX26+uYasW7ctsVC5U5Yu/V62bPlVnnkmsBHk4o19LPDZv2XL7sQC+DT58cf/JX43NNSanbZ4/Q2za9dO2bPnHzN3CX+zpT0GHVJh3759MmPGDOnXr59JCS2sF+vHdogodQoXLiLVq9eSOXNmmRSRRYvmS/Hi18r111c0KZesXv299O//kDRv3lBatbpdnn/+aTly5LBZKjJhwliZNesDMyfy1luvyvz5s+XDD6clvr+x3Htv02TLicIJNXZwfT/99POSJUsWkyqSOXMW6dKlp7Rr18mk+L+27Wt5+vRJ+tTs7rvvSPwh/4VWX0WVVPwfniQmJHxr/uOSr7/+Ujp3bitNmtwiDz3UWX7+eZ1ZQkQUfnjA0KrVvfLDD6tMSnL+Pv/w5NxTzccPP3xP3nzzFTPn+7MOn6Hz5n2in6HYxhNP9DFLIitTpsxy660N5KOP5suBA//K+PFvmSWX/4aBZcuWSNeu7eT22+skfmc0TyyDTDZLkkT75zv295df1sny5V/Jww931ZcdgPCUX1ebN2+Svn17JObtVv3ee/zxhz02yaWUY9AhFRYuXCiDBw+WK64Iz2HEerF+bIeIUu/ee++TTz659KUza9b70qbNfWYuuXXr1ki5cjck/lh4OvHL9VFZs+ZH/TK2/fBDgmzYsNbMoZnVt1rww9/evftJvXqNZODAR+S771aYdxCFx4ED+7WaaIsW95gU3/xd27iGR458RtfZp88AqVSpivTo0VGv5y1b8MPsCSlZslTi/7SV/fv/Nf+F++kD/ZFXo0ZS8OO668pJ69a3y6ZNv5h3EBGFH57oZ8+e3cwl5+/zD8tQeHWteo++cl555Xm58sqrdN7fZ539GYrald269UosyDbX9LSSP38BadjwDlmx4iuTcvlvmI8+mp64r/dp/lEjoH37+7XWgC0WPt/xXXX11QWlRIlScuedLfSVPXsOXeaeX1domoEgS86cuTTv+I4rVKiINnWn0GHQIRU6d+4sWbNmNXPhgfVjO0SUek2bttAv0V9+WS87d/4p//d/qxMLaveapcl1795bHnywj9xyS31p3LipTJr0gT45QWdG3lx1VX55661JctttTRK/nPvr/37xxedmKVF47N79t/4tWrS4/rWhjwfU5sELnUvaArm2CxQoJK+99o40anSH/gjLn/9q+eOPbfLSS29q2ogRL+tTNDuodu7cOQ26DRz4TOIP+cekTp3/SL9+g7S5x9tvv67vISIKh6NHj2gNBjQzGzt2tMyZM1NatkzZdztqRTZo0FhrLdq+/HKhnDp1InGdbQL+rMuZM7dMnPiB3HVXK11fWitWrIT8/fdfZi45BFWQp759H0/M11CpW7eeBrEHDx5ulsfG5/uNN96kAZYSJUrq7z28cuRICjr4guOCprePPPK41K59i56vAQOe0uA6hQ6DDkTkGKh2ftddLWXWrA/lk08+TPxiue3ikwt3eIL70ksjpF27ZtoRX5s2d0q6dOlkx44/zTsuV61aTX2PDV/ye/de3raQKJTs2nb4YegKTSHGjXtdnnzy0cQf4pd+GAZybVepUs1MiS4rXPiaxLTqJkUkffr0UrBgocTrO6n66e+//6brRd8Rr7/+onZoNnr0SK3aitoRREThsmXLZnn44S6JBcXe2kRg6NDn9Wm1J4F8/nXq1E0WLPj04pPuDz6Ypg8oUIAN9LOuZs06yX4PpLXz588lfm5nMHPJbd36m44Ccfvtd5mU5OL98/2aa4pp316ouYEaKitXLtdADIUWgw4hsmbNmsQbcr+ZI6Jode+9HWT+/E806IBpbzp3biObNv2sTSXefHOSvPvue/qFfebMGfOOy6H9vCsUBs+fP2/miMIDNRwQBNi6NXktHLTjXbhwudSpc6tJSRLIte1+LadLd0WyviLA9fo+efKE/sWP8syZM+t7UVMPT406duyqy4iIwqFq1Wryww+bJCFhvXz66RfSpUsvyZDBcwE7kM+///ynoeTLd7XMmzdLduz4Q2t0deiQVOs40M+6HDlymqnogGYQxYuXNHPJnT59Sv96q70dDZ/vaCZx/PhxM3fJsWNHJWPGTPpKKVwr8+ahH4h+Onz6gw92knr1qum5p9CJy6DDH3/8IT/++KMcOXLEpCRBxBLp7k+DQmHZsmVyxx13eC2QvPHGGzJ9+nQzF7wXX3xRZs6caeZSJrX7QBQPUBshd+48curUKalf/zaTmhw6D0K7z2eeGamdMJUrd31iASs9I98UlfBDENfpzJkz/F6j4bq2S5S4VoMQlSvfrD/mXV94akhElNYC/fxDDYUOHbrIBx9M1VoOFStW1hfE4mcd+jLA03vU9PTEzpO3jiGjIc8ImGzevNHMXYLaF6hViv2DDBnSa6fHwUIfIDjnaBKzevWvGsR4//0pZimFQlwGHYYPH55YsKgmAwYMMClJ1q5dq+n//nup46tQwbZq1Kghjz/+uElJ7n//+1/iB13Ke3n96quv5KeffjJzKZPafSCKFxhSa/XqjV6fhOTIkStxWUZJSPhG5xFJR2/W0VRVksgVqhP//fcu7Qjs11+Tfpjhh9e2bVtl584dOg/hurbz5Mmr7Z1RNdW1Y7GtWzfrj10iorQWzOdf27YdEwu0W2TatPFaGLVF+2cdHqig/x189qMvnzFjXk7MSzMd3ahTJ8+1EvAgpnnzu7XZCYYbBTygRT8ZEA15RseWCDC8884Y7fjxwoULsmLFUpk9+8OLtVCgSJFisn792sSy3l6tGRFIAOKvv3bqurBOOHv2jAai8ua9UucpNOK2ecWVV14pU6dOlc2bwzc2OUaV+O6778ycJN7YY6ROnTp6w8OCBQtk1aqkIXs++ugjGT16tE5Hmr0fabkPRNEEPzrw8gbVBp955gUZNmyQVK1aVqpVK6fVLb1VPSRKa6VLl9XqofiheMcddRPnC0ipUlfLbbfV1o7RnnzyGX1fOK/tkSNf03bMd975H7nxxpJSrlxhad36Dvnzz+3mHUREaSeYzz/099S0aXNteuE+MlA0f9Zh1I1bb60iDRvWkO7dOyT+/v9WnnrqWfngg3na+a83I0e+rrU5brutllSuXErKli0sb7/9hlma9nlGJ5EvvDBaO6687rpC+urSpV3iPrSTzp17mHeJjhaCIFKdOpWkfPkism3bb2aJd0ePHpV+/R6SMmUKJubxBrn55nKJ+bs+cb09zTsoFNJduHAh+DooIRSOJ4cY7eGff/7RH1958+aVTz75RNNXrlwpt9xyi+zevVsKFiyoEa1XXnlFZs+ere2TevTooRdexowZ5cEHH9T/GTJkiNZgaN780nA3TzzxhBw+fFgKFSqk63/sscdkxowZMm3aNO3XAR9eSFu/fr2+p0+fPlrYRyCkS5dL0VJ3ixcvlnfeeSfxBv5T8uXLJ/fcc4889NBDuqxRo0aJN8HNcu211+p2sI/Ip/v6fO3H6dOn/e4DUSx64YWX5P77e5m50EGP2OjVuEiRayRc7TMnTx4nw4c/ZeaILvfiiy9Lhw6B//ixr1tUM0V/D55+aIbz2kZTxl27dkjOnDkTv2sLa38TvnzwwXgZNOjycfGJyNmC/ewLVKCff+hsEgHd559/1aQkF+xnnTcffTRBBg703PGlq2efHSVdu/Y2c+GB4Ub/+We3lkMwEoS7YPMc6ryhbPfnn9vk7Nlz2qwiW7ZsZknqYSSow4cPaSfJqN3hz6xZky6rVZ+Sph1OEdcdSY4aNUo+/fRT7cfBkxEjRmhfCQg2PPXUU1oT4Pnnn5cffvjBvAPD5HwpGzcmb0OE+YkTJ8r7778vt912m0yYMEHX0aRJE10fAhjt2rWTN998Uxo2bKj/8+2338r//d+lMX/dTZo0SVq0aCEVK1bUAEX37t01+ODqww8/1L4jBg0apP1H4D1Lly41S8XvfvjbByJKDmM2o0fjaOsQisgX+7otVeo6r0+2wnlto48JPCUqUqRoin+EExGFi7/PPxSqMWQmhtLs1i3p4Z8n8fhZhyYF5cvf4DHgAGmdZzSLxXcb9iGUAQcoVKiwrjeQgAMFL66DDui/oWXLljJ48GCTcgme+r/22mvy8ssva60GFNTnzJmjETR/ULvhgQcekN9//12uv/56GTp0qDz99NPanwOCAQgElClTRmsplC9f3vyXd2fPnpUnn3xS1/HCCy9orYb27dtr4MDV1VdfrYEH1LpAnhDwmDt3ri5DZC21+0FERERE5GQ9enSUCRPGJv4OHyMlS5YyqUSUGnEddAAU4lE7wLVGAGzfvl3QlKJevXomJamtFwIVwfjrr79k7969Wsi3oQdVBAQC7fjx119/lQMHDmiAxJe6desma46CphZoKgKh2A8iIiIiIidbvPgbWb78R2nTxvuw2kQUnLgPOuAJf6dOnS6r7YDaBYC+EVy5z3vi2l7HHjPWvYoP5j2NJ+uJ3fGkv2pCaC7hCkEFe4z0UOwHERERERERUSjFfdABnn32We1MEf072FBLAO2CXPt7QAEew2q6ypMnjxw6dMjMJdm2bZuZwti1JbRN04YNG0xKEmyvVKnAqmSVLl1aAwhr1qwxKcELxX4QERERERERhZIjgg7FihWTXr166cgQtuzZs0vXrl21U0YMJ7lz507p37+/jvrgCiNGIFjx77//ag0HjAyxevVqs1Qkc+bMcv/992unlGjiABgNY8mSJdqpYyDQRwQ6fERnlr/8kjT+LfqWwGgbgQrFfhARERERERGFkiOCDoChLzNlymTmkmCUiDp16kjjxo2lcuXK2nwBfSCgdoMNgQgMC4MhJ3PlyiXz58+XVq1amaVJMOxm4cKFNbiBAAKac6ATyFtvvdW8w793331XqlatqqNX5M+fX4MiL730klkamFDsBxERRReOwEVETuSUz754zmd8541fzsFId+HChTQ9Yq4dI6Y1NK/AaA8DBw7UmhE2XFToeBL9PRQtWtSkXg41DNAhJJpuIGiQEqhpgfVgpIqCBQua1OCEYj+IYsnIkS9Jx449o+rzJBD4bJky5W0ZPvwpk0J0uXffHS/VqtVP/F7wPIRZLNu7d4+sXr0s8Ts39GPxE1Fsi+fPPhs+A//v/5brSHr+jBgxSjp3fihmfusEl7eRiXnrHTN5O3Bgr/zww/LLapMzEOFd+mHDhg0302kiLS8ujOqwaNEirQGBoAI6m9y4caNMnDgxWaeN2EfUHMidO7dJ8Qw1IQoUKHBZjYpgoONHrAPj4KZUKPaDKJbgYwT9mRQvfq1JiQ3Lly+RSpWulxIlipsUosvdeOONMmbMaLn22uske/aUfzdEG/wg/eijKfL44/3jZox7IgqdeP3ss+Ez8OOPp8iAAf0C/gxEX20lSkR/X23xnLd9+/bKzJlTpF+/x/jdFQRH13RAgKFfv36ydetWrcWAJhbPP/+8duxIRLFlzpw5iffy7zFTle/s2TNSpkxpadu2rUkh8g4jLk2aNEWOHDliUmJf7ty5pFu3rgGNGkVEzhSPn322lHwGop+5rVsvdWgfreI5b3ny5NJ+AT3ljTUdvGPzighLSEiQ2rVrmzkiina8Z8lJeL0TkVM59fMvnvMd6bwx6OCdYzqSjBYYKYOIYgfvWXISXu9E5FRO/fyL53zzOy16MOhARERERERERGHBoAMRERERERERhQWDDkREREREREQUFgw6RFitWrXMFBHFAt6z5CS83onIqZz6+RfP+eZ3WvTg6BVEREREREREqcDRK7xjTQciIiIiIiIiCgsGHYiIiIiIiIgoLBh0ICIiIiIiIqKwYNAhwhISEswUEcUC3rPkJLzeicipnPr5F8/55nda9GDQIcJWrVplpogoFvCeJSfh9U5ETuXUz794zje/06IHgw5EREREREREFBYMOhARERERERFRWDDoQERERERERERhwaBDhNWqVctMRcann34qW7duNXPhsW7dOvniiy/MXPQ7e/asTJs2Tfbt22dSYteFCxdk+vTpsnv3bpOSenv27JH33ntPzp8/b1Kiw4YNG2TBggVmLnIifc8SpSVe70TkVE79/IvnfPM7LXow6BBhtWvXNlOeffTRR/L888/L4cOHTUqSKVOmyPfff2/mRJo2bSrz5s0zc54tWrRIXn75ZenUqZOcO3fOpKYMCrXHjh0zc5ccPXpU1//UU0/JmjVrTGp0y5gxo5w+fVo6dOighXZ3rVq1kpkzZ5q5wAVyTvzxtW1P5+CKK67QV5s2bQI+x/72s0CBArJ8+XJ55plnTEr4+dunf//9V1q3bq37Fmn+7lmieMLrnYicyqmff/Gcb36nRQ8GHaIMnjAPHTpUgwWu3n77bVm5cqWZE/n77789BgFsCAY899xz8vnnn8s999wjo0ePNktSplmzZjJ79mwzdwmCDUOGDJFZs2ZJ//79Ux3ciJSePXtKtWrV5KWXXjIpl1SvXl2KFCli5gLn75wEwte2vZ2Djh07aqF92LBhJsW3QPZz4sSJWoPlq6++Minh5WufLMuS7t276z1Ro0YNk0pERERERLGAQYcohKpAY8aM0Wru/qBGxDfffCM7duwwKUly5swpH3/8sWzcuFGaNGkiTzzxhFmSZO/evXLixAnZv3+/PtX+888/zZLLHThwQJskHDx4UHbt2pWsWcIbb7whZcqU0SfRCHBkyJDBLLm0DW/76Ekg/4OAynfffSfbt2/XmgrYJ7vGwj///KO1GGz28iNHjkjDhg1NalITC9QOwLHB+zFft25dXYYCbpUqVXTaE6zzt99+kxUrVui63fnLL7aFAv3atWsD3ra3c2Dnd/DgwfLCCy94za8nvs79X3/9pddM4cKFLx5bW7DnNZhrzdM606VLp0GQ22+/3aRcWieOB84D9tf266+/aq0g1+uAiIiIiIjSSGKBwkrLFyWXWLCyhgwZYjVq1Mh6+OGHTaplVa1a1XrllVfMnGVVqlTJ6tGjh1WqVCmrRo0aVpYsWayxY8eapZbVuXNnq2TJklaDBg2sEiVKWDfffLOVWOgzS5P+v0OHDrosscBrZc2a1Xr55ZfN0uSeeuopK1u2bPpe7AfWDYmFO6tMmTJWuXLldB358+e3Fi9erMvA3z564u9/li1bZuXNm9eqVq2abrdnz55W4mVsJRbCdXnx4sWT7cPu3bt1efPmza1mzZppWmJhX49NhQoVrIoVK+pyrK9+/fq6HNtNLOTqtLvNmzdblStX1u3g/QULFrTmzZunywLJb0q37e0cBJJfd/7OfSDXTjDn1d/2wN863Y8L3t+lSxd9P45fpkyZrLlz52rajTfeqMcFf48fP27+g4iIiIgofDyVdflKejHoEGHfffedmfLMDjqsXr1aC1Lbtm3TdE9BBxR+jxw5ovOzZ8+2cubMaZ0/f17nd+7cqX8Baa1bt7YGDx5sUpL+HwW2AwcO6PyKFSusjBkzWr///rvOu8P2p06dauaSbqqaNWtaQ4cONSmWNX/+fKtAgQIXC3r+9tETX/9z9uxZLQzbxwH70KlTp4CCDuPHj9djgv/B+vv27WveYVm9e/fW92zdulXnvRX88b8o4Hbr1u1iHs6dO2cdOnRIp/3lNzXbBvdzAP7y64m/cx/ItRPMefW3PfC3Tk9BBwRDjh07pvMjRozQYMZrr72m86dOnbJKly5tTZkyRedTw989SxRPeL0TkVM59fMvnvMd6bzhtz5fnl9sXhFhq1atMlO+JRaotA2/r878unTpos0oAFXp0ewAnQ0C+gVYunSpvPnmmzJy5Ejta8G9o0f8f968eXX61ltvlRtvvFESC7A6788ff/yhVdgbNWqkzQTwKlasmCQW9nSUAZuvffTG2/9s3rxZt/vwww/rMlS7TyzA67Q/6ITwmmuu0Wr72NfHH3/cLBHtkwISbwj96822bdtk9erV2lcGOm+E9OnTS+7cuXUafOU3NdsOlp1fb7Cf3s59oNdOMOfV1/Zswa7z/vvvl+zZs+s01onmFL1799b5zJkzS82aNfWaSa1A71mieMDrnYicyqmff/Gcb36nRQ8GHaIY2uijg0bXQryrK6+80kyJZMmSRf+ePHlS/7Zo0ULb5KPNOwrFOXLkkEOHDukyW8GCBc1UkkKFCmkfAYHYuXOnFrxRKB00aNDFFwp6rgVoX/vojbf/QZ8AKGRmzZpV0yBfvnxmKjB2/tBXgQ35Rl78BUPQbwD6rMD7vfGV39RsO9R8nftArp1gz2sg11qw67SDGIAgA64L/LVhGkEwIiIiIiJKOww6RLGyZcvqcJT20/BA4Yn8woULtYM9jGjwyCOPSKlSpczSS9w79MO8t6fjKBhbFmruJylevLgGFyZPnixffPFFsle4xsTFNjHCgWsBfcuWLWYqCYISrgVVdDjoys6fa94xjbz4qhkA2D6e+vvqCNGX1Gwb3M8B+MuvN+55wDz2IdBrJ1jetkdERERERPGNQYcoN3z4cFmyZMllhWtf8DQeBVm7oLd161aZMGGCTruaMmXKxV7/582bpyMyoEmHJ3g6//PPP1+sxYACeIMGDaRfv35y/PhxTUOBeNmyZXL+/HmdDzVss379+vLYY4/paA7I34gRI8zSJDfccIPMnTtX9wWjPbz44otmSRI0HcCYvWgigbzghcI1hqosWbKkeZdn2H69evV0aFC7oB9IcxFbarYN7ucA/OXXG2/nPtBrJ1jBXGtERERERBQ/GHSIsGBrAeBpMPowQOE2UOhbYcCAAVqYvf7663VYyPbt25ull7Rs2VLq1KmjQ1526NBBxo0bl6zqv6uBAwfKokWLtAq7Pbzj+++/r4VvVJ0vV66cVo9Hgdy1UBxqH374oQY5EABo3LixPPDAA9q3A5oAAPrA+Prrr7WAj+NQsWJFTXc1bdo0Wb9+vRQoUED3HcNXTp8+XdfjD96HZgdXX3211kTBfiAQEKjUbNvTOQgkv554O/eBXjvBCuZaizbhqrlDFI14vRORUzn18y+e883vtOiRLrGAmLy+doQFUtiilEGb+Y0bN2one3iC7apy5craoeG9996rVepRaM2VK5dZGhw0edi1a5cWpF3b2UcC+rxAPtBJow1NILZv36774ytPdg0FX300eIM+Dvbs2SNFixaVbNmymdTApWbb7gLNrzt0vOjt3O/bt0+DK2hagc4yUyOU11pq4Zx99dVXcuedd0qePHlMKhERERFR6rg3g6ZLGHSIYxjpAdX2UUvCrglgswuCHTt2NCmxYcGCBdrUBDUrUIB9/vnnZejQodr3AEWnaLvW0JNx586d5T//+Y90795da3UQEREREaUGgw7esXlFHMPIDlOnTr04EoAr1H6IxY78UD0ffQOgmcIvv/yiHVky4BDdou1aQ1W7SZMmaVMVNPuoVq2aTJw48bIROoiIiIiIKPVY04GIHOnbb7/V2hdnzpzRmkBopnLbbbex9gMRERERBY01HbxjTYcIS0hIMFNElJZuueUW7Qw1U6ZM2i/JqVOnZPHixRqIcK39wHuWnITXOxE5lVM//+I53/xOix6s6RBhoeg4kIjCC59LiFajw0vUfhg7dqxZQhTfRo8erSPYEBE5jVM//+I535HOG2s6eMegQ4TxBx1R9MBIFl26dNGmFYAgQ8aMGSV37tza2SRG3EC/IbxnySn4HUVETsWgQ/xh0CF6sHkFETmSHXA4f/68FCxYULJmzSqNGjWSKVOmyHfffSc9evTgsJpERERERKnEoAMROQ4CDqjJcOHCBR1Wtnfv3rJmzRoZN24cO5EkIiIiIgohBh0iDMP1EVHaWbVqlfTp00datGghc+fO9VurgfcsOQmvdyJyKqd+/sVzvvmdFj3YpwMROcaePXu0lsOdd97JphNEREREFDLs08E7Bh2IiIiIiIiIUoFBB+/YvIKIiIiIiIiIwoJBByIiIiIiIiIKCwYdIiwhIcFMEVEs4D1LTsLrnYicyqmff/Gcb36nRQ8GHSIMPecTUezgPUtOwuudiJzKqZ9/8ZxvfqdFDwYdiIiIiIiIiCgsGHQgIiIiIiIiorBg0IGIKEocOXJE3nrrLRk1apTs2bPHpFI47dq1S2bMmCEXLlwwKUREREQUSumHDRs23EyniXTp0pkp5yhatKiZIqJY4O+e/eijj+Sff/6RUqVKmRSR//3vf/Lee+9J6dKlJWfOnNK0aVPJnj27lCtXzrzjcidOnJAyZcpowOGLL76QBg0amCUirVq10s/LChUqmJTkdu/ercszZcpkUsIDY1B/9tln8s4778jHH38sP/74o5w6dUrzGWuf52fPntXzUqNGDalUqZJJ9X+scb7nz58v33zzjaxZs0aOHj2a7Nz7+/9ox+8oInIqp37+xXO++Z0WHVjTIcJq165tpogoFgRyzyK4sHDhQjMnsmTJEmnUqJHkypVLChcurGl///23HDt2TKe9yZs3r5w5c0bXNXjwYJOapHr16lKkSBEzd7lmzZrJ7NmzzVx4oHBdv3596datm5w/f14qV66sNQQef/xxadmypXlX7Bg6dKjcdddd0qFDB5OSxN+xxvnGsUag6aeffpI2bdroehCQAQSAcKxiEb+jiMipnPr5F8/55nda9GDQgYgohObNm6cF8LFjx8ojjzxiUi85fPiwPiHfsWOHSbkET96x/Omnn5YMGTLofN26dXVZ9+7dpUqVKjrt7sCBA/regwcPanOBffv2mSUif/75p6xYsUI2btzosQkBghxr166VdevW6Tp8GTBggOzcuVN++eUXbQby2GOPyciRI3XePa++trt3716t1YH9xXv++usvs0Tk119/le+//15Onz5tUi5BoAM1C7DcVwDn0KFDekzcIfCDWhmAvLZv317uvPNO3Vagx9pWr149PccIQCxbtkwDRStXrjRLk/N2LALZT/CVb/tYYl3Lly9Pdu6JiIiIogGDDkREIfL+++/rU/MZM2bIAw88YFIvQbChatWqMnDgQClbtqyMGzfOLBEt9COtY8eOcv/990uWLFmkTp06F5tLoCbDhx9+qNPuRo8eLVu3bpU333xTAx5YP3Tp0kVrJowYMUIL12hG4FrIRdMINOfo3Lmz7nf58uVlw4YNZmlyx48f1wI2agdcffXVJjUJmhKgZofN33YbN24sffr0kWrVqskTTzwh1157rQZrunbtKm3btpV27dppbQMUpm2bN2/W/cN+2v+DJiiezJkzR2rVqmXmkqDAX6xYMS2cp+ZYe1KxYkVJnz59suCJzdex+PzzzzWfdg0JWL9+vZQoUUL79wB/+caxfPjhh+WGG27QoJC3wAcRERFRmrlw4YKVli8iolh3++23W6VLl7ayZ89uffnllyY1uUqVKlmVK1e2EguTOj979mwrZ86c1vnz5/WzEMv69u2ry6B3794oiVpbt27V+cTCqjVx4kSd9qRq1arW1KlTzVySnTt3milLt9O6dWtr8ODBOn/u3DkrsTBrDRw4UOehV69eVpUqVTx+Nv/www+6P4mFYpPina/tAo7FzTffbB07dkznEwvkVtasWa3XXntN50+dOqXHc8qUKTqP/alZs6Y1dOhQnYf58+dbBQoUsI4fP25SLsExzpYtm7Vq1SqTYmk+mzZtGpJjjfP96KOPmjnLmjBhgpUuXTpr48aNOu/6/76OBfKZL18+a8mSJToP2Jc2bdrodCD5xrEsV66ctX//fp0nIiKitIHvbb48v1jTIcISEhLMFBHFgkDv2SuuuEKbKuBJujd46o1OJaFhw4ba7h/t/9HUAk0c0DeCbciQIfo38YNa/6YE+iVYunSp1oBAM4hz585pNX1AzYhNmzYl2yaepGM5mmi4O3nypP7NkyeP/oWZM2dKjhw5Lr5svrZrQw0DdKwJt956qzZxSCxw63zmzJklsbCtT/nhjz/+0KYFqE2B44QXai2gCYKnmhk4xomFe62ZAWiegFooOP6hOtbTpk3TzjMLFCgg/fr1k9dff11rJLjzdSyQT+zThAkTdB41Oz744APp2bOnzgeab9QQufLKK81c6vA7ioicyqmff/Gcb36nRQ8GHSJs1apVZoqIYkGg92yTJk10RAdU2f/kk09ManKuBUNU6QcU5tEhIdidTkKhQoU0kIGgREq1aNFCAwnoOyF37twaGLCDItgm+o3Inz+/zoO9fU/btJehfwIbmiGgD4ZJkyZp8wubr+3a0GmmDYXvrFmz6l8bpu1+DdCPBI4FCu2DBg26+EJgwlugAE1GMLoGghno2BPrat68eciONZpKoDPJ7777TptLPProo2ZJcv6ORa9evWTBggXaNwOCOGi6guYYEGi+sf+hwu8oInIqp37+xXO++Z0WPRh0ICIKEYzq8Pbbb2vgIZiRJK655hr961qgxzQKlvYyf1A4tVz6Bti2bZt2bogODIcNG6YdPboO64j14qk7Oi204ck6eNomnurj/1FjwJYtWzZ9b758+UyK/+2mRPHixfVYTJ48WfszcH25991gw3CjGD0EQ1uixgM6jUSfDaE41oBgDUbvwHHxNkxpIMcCfTQgyICaE6jx8OCDD14cejQl+SYiIiKKNgw6EBGFEEY+wKgG6PgPHRoGAlXwMazTc889p4VMvFBIRSeDJUuWNO/yDU/uf/75Z/1fQC0GTNuFazSnsKvxAwq76NQSHRwiWIEmCMOHD5dbbrklWS0AV6+++qpMmTJFn7zboyjgf1HbweZvuymBwjeCCGjGYNeowHYxagT22xMU3Dt16qTnAoEH1HyAUBzrQAV6LB566CF55ZVXdPhNez8hJfkmIiIiijYMOhARhViPHj20sIun63PnzjWpvuFJN0YuQB8BBQsW1BEWpk+ffvGptz8YsWLRokXaTAFDP6LtP0YzQGH6+uuv1+Yf2B8b1otRNlD1ENvDdlEonjp1qnnH5TAyBpqOYL9QiwD/h+YCqN2B/Qd/200p1LBAUxRss1y5ctpUpX///lqo9wYF+G+//VYDLDfffLNJTf2xDlSgxwJNNdDcBv1QuNYagZTkm4iIiCiapEv84XKpPm4aCPWPvGiHDk3wlI2IYkOk71m7X4FQtdPH+tBhJDprxJN3T/AefBajYBsoNMtAPwUoJKPw7m7fvn26HM0JMJxkqKCGBTq6xDZd+4VIiVAfa2/8HQvkCTUwPvvsMz1PnqQk33v27JGvvvpKgxquHYD6wu8oInIqp37+xXO+I50312aulByDDkREcQy1F8qUKaNPy+3OKyl6ICiAmhc4TxipItRQkwWjWyCYgT5HUOuCiIiIQo9BB+/YvIKIKI7hyTiaTGTMmNGkUDRB0xQEgzDSRjigw0n0w7F48WJtHoOgw8SJE30O7UpEREQUSqzpQEREFOdQ4wGdm6LGC/rjOHPmjDRu3Ji1H4iIiEKENR28Y9CBiIjIAVwDD4A+PjDsae7cubXz03vvvTfgvh+IiIgoOQYdvGPQIcLYSRdRbME9e/fdd5s5oviFkUgee+wxefjhh00KEZFzsCPJ+MOOJKMHgw4RNnr0aB1CjYhiA+9Ziheo6dCpUyc5fvy4SREdYhU1HXr27Cnt2rWTyZMn83onIkdy6vd9POc70nlj0ME7diRJREQU51wDDpkyZdIX+nRAB5Y//fST9OrVi00riIiIKCwYdCAiIopjCDigFsOJEyekYMGCMnjwYFm3bp2899577ESSiIiIwo5BByIiojiFgEPXrl2lXr16Mm/ePNZqICIioohj0CHCMGY6EcUO3rMUq/bs2SPbtm3TwEOgtRp4vRORUzn18y+e883vtOjBjiSJiIiIiIiIUoEdSXrHmg5EREREREREFBYMOhARERERERFRWDDoQERERERERERhwaBDhCUkJJgpIooFvGfJSXi9E5FTOfXzL57zze+06MGgQ4ShF3Eiih28Z8lJeL0TkVM59fMvnvPN77TowaADEREREREREYUFgw5EREREREREFBbpLly4kKYDiqZLl85MebdhwwYZP368mYtt69evlxtvvNHMhVeRIkUka9asZo6IUuKbb76RW2+91cwRxTde70TkVE79/IuWfN99991StGhRMxcao0ePlgEDBpi58LOsNC1WR7WYCDr06dNHxo0bZ+aIiIiIiIgoXowZM0b69u1r5kIDHUnWrl3bzIUfgw7exVTQ4a677orohROrtm/fLhMnTtTjVqZMGZNKREREREQUPZYtWybz5s0LS9Ah0hh08C6mgg4jR46UXr16mVTyZuXKldK8eXO9ievVq2dSiYiIiIiIoscbb7wh/fr1Y9AhzrEjSQorfIg8/PDDsnDhQnn99ddNKhERERERETmBY4IODRs2lEqVKmnhl/w7d+6cvP/++xdfu3fv1vTz58/rsgsXLui8DfNIx3LbsWPHJEOGDFKiRAl58cUXpVGjRpp++vRpXednn32m8+78LY+k1OyL+//u2bNH5+0XlhMREREREcUzxwQddu3aJTt37pTjx4+bFPLl1KlT0qlTJ3nwwQfl+eefl99//13TM2fOLBkzZpRy5cpdrEKEYEOxYsU0/aqrrtI0yJEjhx73TZs2yb///nvx2B89elTX/cQTT+i8O3/Lg3XffffJHXfcIWfPnjUpgUvNvrj/759//qnHEscU6VhO0Q+dEBE5Ba93InIqp37+xXO++Z0WPRzdvAJP51EQXLVqlQYkPLXD8fcePL3++++/5eTJk/pk/7vvvrtYQI8HVapUkV9//VXq1q1rUpL89ttv8sUXX+j0p59+Kn/99ZdOu8IxefLJJ7Wg/d///lfy5s2r6Xny5NHjOXPmTJ0PhHstCnu+f//+F2td4DzYBXn8HTp0qL7n66+/li+//FLOnDmj/+cLzqenvNj279+v59mdp22757N69ep6LPGXYgfOIZFT8HonIqdy6udfPOeb32nRw7FBh3Xr1mknizfddJPceeed2vSicePGsnnzZvOOwN6DcW0rVKggAwcOlIoVK0qzZs2kWrVqMmjQIPOOyLOr86NpQzhkypRJSpYsKW+99ZbOo+MX1HxwN3v2bLntttukSJEiWhMCfTugQH/o0CGpVauWtG3b1rzTt59//llrUdidYqLQj3nkb+7cufLhhx9KgQIFdDu5cuXS/Rs1apQsX75cypYtq4EEQM0L/J8n2NdrrrlGChYsqH9vv/12syQJan7g3ObLl0+uvPJK+eijjzQdAQVv2w42n0RERERERPHGkUEHFFrvvfdeLcz+5z//0V5Tb775Zvm///s/adOmjT4RD+Q9rubPny+PPvqodO/eXecnTJggK1as0OlIGjJkiA6X+dhjj11WOyFUMOIIAgio6YDCN6KIjzzyiFmaZP369dKlSxdtjoEgCGo8LF26VHr06GHeEbz06dObqUvQTKFr1666TzgHqGGAZhQo+A8fPlxGjx4tuXPn1vdOmTJFZsyYodOufvnlF22CgRoKeA9qRWD0D1eo7VKqVCldL9b/7LPPaq0FbN/btomIiIiIiJzOkUEHVLdHHwMoLE6aNEnuv/9+efvtt3UZmlCgEB3Ie1z17NlTC/ovv/yyVK1aVdM+//xz/RspCDi88847uh/hHimiW7dukjVrVg0soB+H9u3bmyVJlixZok0bUCi/66675IUXXtAABAIP/po4BKp48eJaywAFfWwfgQIEA3LmzClXXHGF1K5dW1q0aCFZsmTR9+M9HTt21GlXCDJgHcgT8oPaLAiquEINBxxT1GBBDQtcA8iLr20TERERERE5nSODDnv37tW/2bNnv9jxYdGiRfUv7Nu3L6D3uMIIDTYUhsGu1h8JkQw4APorQAEeIzCgdgcCEP6kdOxaFOLBDlYgGBQIBIxc/6YGrgF7Pahx4dq/hCeh2CZFBzSRIXIKXu9E5FRO/fyL53zzOy16ODLoULhwYf2LJhT2UJDoGNGG5YG8xxWq2tvs96GdfyREOuBgw1P/V155RZuVuMPwmCicozkDanxgH9EkpUGDBkH3NYHjiMDDTz/9JO+9957m02avD808FixYIMOGDdNmEuhrw67hgD4YAMcGfUC4Q80G9PUwefJkmTp1qtbSGDdunFnqXSDbptjHWivkJLzeicipnPr5F8/55nda9HBk0AGFRTsggLb8KDjbfTFcd911UqNGjYDe4wr9KDz11FPywAMPyIYNGzTtnnvu0b/hlFYBB0Bnko8//rgUKlTIpFyCTjfRLMXugPGll16S+vXra18XwUKfDBh28sSJE3oOXAM+5cuXl2nTpukIFmhK8dxzz8ktt9yiwQPb4MGDtRkGzg+m3aEj0BkzZmitFvQPgSAEggj+BLJtIiIiIiIiJ0uXWGBKWZ33EAmkGnqfPn30yfPIkSOlV69eJjU4GMUATSLeffdd7QgSw1qiwGx39oj9wEgLCC7YzSgCeY+93oceekg7TNy1a5c+/UbHiQMGDND3hEs4Aw6o4YH+CTAiA0blQIeM7oGWQKBJBYaTxHqwvtTAcJWoQYDggDvs76JFi3TkidRENf/55x9tOhFMLRXkEbVhMDoG8ukNamqgw00EpY4cOaLXDfqKICIiIiJyInTW369fPx0Nr2/fviY1NqW0KbkTOCbo4A2enqPAiKfn3vol8PUe12DG3XffLdu3b9f2/3nz5jXvCI9w13BAB4m4+W2oteHab0W0Wbt2rQ5t2rBhQ/nqq69ManRB55MYYtOGzioD6QuDiIiIiCgeMejgDI5sXuEqW7ZsOhSir8JfIO8B9GFQunTpmA84APo4QC0P+xXNAQfA/qFvhaefftqkRB/UjnE9pgw4xIaEhAQzRRT/eL0TkVM59fMvnvPN77ToEVM1HXr06KH9A0ST1157Tav2t2rVSpshhBuacKD/iLTow4HIidC0KNxNpYiiBa93InIqp37+pXW+w1nTIdJ5Y00H72Iq6EBJGHAgihwWwshJeL0TkVMx6JA2GHRwhpgIOowaNUpHHkDwAf0mxLJZs2ZpR5YphU4q69ata+aIKNxYCCMn4fVORE7FoEPaYNDBGWIi6BBPHYzwBx1RbOE9S07C652InMqpn39pnW8GHZzB8R1JRlqtWrXMFBHFAt6z5CS83onIqZz6+RfP+eZ3WvRg0CHCateubaaIKBbwniUn4fVORE7l1M+/eM43v9OiB4MORERERERERBQWDDpQ3HrooYdkyJAhZi56fPrpp7J161Yzl/Y2bNggCxYsMHNEREREREShw6BDFLpw4YLMnTtXO1Pp2rWrPP/88/LLL7+YpSJNmzaVefPmmbm0l9r9adWqlcycOdPMXW737t1y7NgxM5fE2/9glJP7779f1q1bJ7lz59Zjl1I//fSTNG/e3Mz5F8hxWLRokbz88svSqVMnOXfunEkNH3/79O+//0rr1q2lQIECJiX1Tpw4IStXrtQOgUaOHGlSL3nggQfk66+/NnNERERERBTPGHSIsISEBDPl2dGjR6V+/frSs2dPnb/xxhu1YIg0u/D4999/X1YIT0up3Z/q1atLkSJFzNzlmjVrJrNnzzZzSTz9z9tvv61/MSTpK6+8Ii+++GJAo6N488QTT0j79u3NnH/+jgPO7XPPPSeff/653HPPPdqjbrj52if0sNu9e3cNgtSoUcOkpt7AgQOlZcuWMnHiRHnmmWdM6iX33XdfTPUO7e+eJYonvN6JyKmc+vkXz/nmd1r0YNAhwlatWmWmPENhbNeuXVrl/c0335THHntMh5LZsmWLlC5d2rwryeHDh+Wbb76RHTt2mJRLzpw5I2vXrtUn/mfPnjWpSfbu3atPo339vyeogfHbb7/JihUrdB/d+Vof9gH7gn06ffq0ztetW1eXoeBbpUoVnXZ34MABfe/Bgwd1m/v27dN0T/+DQA0K8/ny5ZN3333XpCax87x//35Zvny5/Pnnn2aJZz///LOsWbNGawHYAj1u3pbnzJlTPv74Y9m4caM0adJEgxqugt1HCPR/PO0TAjIIDNx+++0m5dL6cLxxnv/66y+zROTXX3+V77//Xs+fLwj2IFCGv540btxY9xfrjwX+7lmieMLrnYicyqmff/Gcb36nRQ8GHaLI8ePH5b333pOnn376suruefLkkQoVKpg50QJk1apV9aly2bJlZdy4cWaJyI8//ihlypSRzp07S4cOHaR8+fIaxLCh0Idghrf/9wRBD7z/tttuk2effVaqVasm8+fPN0t97w+CDUjr2LGjNn3IkiWL1KlTRzJlyqTLUZPhww8/1Gl3qA2A/g8QgMHTc6wf3P9n8+bNmk/kF4X5a6+9Vr744guzNCnPDz74oNx8880ydOhQfS9qQ3gza9YsadSokWTOnNmkBHbcfB2HLl26aI2VESNGyJ133qm1CxBUsQW7jxDI//jaJ/fjiPX16dNHz699HFHDBs182rZtK+3atdNaJghMeJMjRw4z5RmCHQi6+GpSQ0RERERE8YFBhyiCfhtQQwEFSH9Wr16tfQ7gyfP7778vgwcP1poI58+f14I9CoeoVYAn9ggUIACB6vQ2b//vCf4PAQMUXLdt26bt8VHroF69euYd3teH/8W2UbhF4GP9+vXSu3dvfT+esvvzwgsvaEF62LBhGkyZOnWqWXKJvQ3kedOmTfLtt9/KpEmTNM21cIx9Q+0FLEdAAp1MIj+efPfdd3LTTTeZuUv8HTdfy9G0AttbunSp/P7771KsWDF59dVXdZktmH20+fufYM414DwhUPTDDz9oAAzNISpWrKhpCO7gmKY2YIBriVXeiIiIiIjiH4MOUeTkyZP6F7Ua/MFTc1TXh4YNG2p/AehwEbUCUPB+/PHHdRngiTUKpa5NIrz9vycowKLgikLzFVckXTLp06fXjhpt3taH6vwIfrjujz2ihK+CbzD++OMPLVCjZgK2hRcK9KdOnUpWwwP7mDdvXp2+9dZbtb+MxYsX67w79IVw9dVXm7lL/B03X8vRBwUCDqi1gQ4W0ZEkzourYPbR5u9/fO2TJwhaZc+eXaexPjSnQKAIUPOjZs2aGnxIDRxbHGMiIiIiIopvDDpEWK1atczU5QoXLqx/UYj258orrzRTos0VAEGLf/75RzJkyCD58+fXNLDX61rQ9Pb/nqBdP9ZZqFAhk3I5X/sD9j4A1oPgha+CbzB27typ60NBftCgQRdfKBy7BjYKFixoppJgP+z9c4egCmqNuPN33Hwtb9GihQaA0F8CAjZohnDo0CFdZgtmH23+/ieYcw12AAMQZMiaNWuyZiaYRkAnNXBscYxjga97lije8HonIqdy6udfPOeb32nRg0GHCKtdu7aZuhz6YUBnkR988IFJCd4111yjT9BdnyLbQQwsS4nixYvrOgPp2NCdvU3X/8U0ggGB7g8CCq5NQ9xh/7C+yZMna/MC15frh437/mPe2z6gpoS/wn4wUFtk4cKF2nkimoo88sgjUqpUKbP0kmD20ZaS/0lrCDjhGMcCX/csUbzh9U5ETuXUz794zje/06IHgw5RBm38p0yZIi+99NLF/ghQHR4dKgbSjh4d/6G9PDorREEdT5SHDx8ut9xyS7LaBsFAoR79N/Tv3//iE3J/VfRtaFKAGx5NMxAYwAuFbnRGWLJkSfMu37Df6JvCtdaCK+xfgwYNpF+/ftoZJyDvy5YtS1ZbAcfVHo0BnSNiJA70NeEJjhf6kAgV1BTB/tsBAjSDmTBhgk67CmYfbSn5n3BCcwyMXnHkyBGdxzReroEj9BeBY0xERERERPGNQYcogyr4GDkBT+1R/R5V5TEEJIZDxIgC/mBkgBkzZugQMah2j1EwUMD11AFjMKZPn67NAtAWHyMgoKCPQEAgpk2bph1IYl+wT+iQEOvDvgYCoy4sWrRIq/nbw2y6QweJCIhg/eXKldMmBQiSuAYqMPoFRs1AjRKMcoFRHLwFYtq3b69Bi2PHjpmU1MFTfQyHimDL9ddfr6M3YBvugtlHW0r+J5xw/aF5D/YFQR9M44VhMgFDoOJ8YjkRhc+ePXu05px7My4iIiKiSEqXWCjzXm89AgIpeL7xxhv6FHvMmDHSt29fkxr/8PQahV4UWFHgDtbGjRu1aQIK4aGCH6/4IVu0aFHJli2bSQ2MXTMCgZRwwfFCh5kIcLj2TVC5cmXtzPLee+/Vpg6ogZErVy6z1LM2bdpoDQ+7E8VQQJMNnBd00IjaD65Sso8p+Z+0hho7qOWBTjWJKLwQgO7WrZvWBkMnsQh8EhERRYt4Kuf5ag7udKzpEGHBDBOIAiRqFaQk4ACvvfaavPvuu2YuNDCyBvYp2IADINgQzoADoHYIgiyuAQdX6AQRQ3AGUjB/8cUXdajJUEIHjBhBwldHjMHsoy0l/5NW0LQCzYViBYf2pFiGfm3eeustWbBggbRq1UoDnhiu2FvtB17vRORUTv38i+d88zstejDoEGF46hQpXbt2lfvuu8/MORt+aAfbuSL6x8CP81BCUxk0dbFHkXCVkn1Myf+kNQQcUEMjVkTyniUKBwQ68bmDmm8Y7QfN29Bcr0+fPhoEdMXrnYicyqmff/Gcb36nRQ8GHeIYOnBkVdokb775pjaVSGuoidG5c+fLmlZASvYxWvJFRNENgQf0r4ORiNDPD5qirV69Wnr27Om39gMRERFRarBPhwgLd/MCIiKiYKDmFZp8ISh6++23y9ixY80SIiLnQE1MdPrtNGmd73CW8yKdN/bp4B2DDhHm1A80oljFe5biBaqZdunSRc6cOXNx+GN8B+fMmVPatm2rI/5g5CRe70TkRAw6pA0GHZyBzSsiDJ16EVHs4D1L8cAOOCDYgBf6d0DfKhhSc/PmzTJixAjtKJjXOxE5lVM//+I53/xOix4MOkQY+lkgotjBe5ZiHQIO6FT4yJEj2pSiR48e8ssvv8jixYulfv365l1JeL0TkVM59fMvnvPN77TowaADERFRnELAASMZVahQ4bJaDURERESRwKADERFRHNqzZ49s27ZNAw+fffbZZbUaiIiIiCKBQQciIqI4VKBAAenQoQNrNRAREVGaYtAhwhISEswUEcUC3rPkJLzeicipnPr5F8/55nda9GDQIcJQzZWIYgfvWXISXu9E5FRO/fyL53zzOy16MOhARERERERERGHBoAMRERERERERhQWDDkREREREREQUFgw6RFitWrXMFBHFAt6z5CS83onIqZz6+RfP+eZ3WvRg0CHCateubaaIKBbwniUn4fVORE7l1M+/eM43v9OiB4MOREREFDYHDx6U66+/Xn788UeTEh4XLlyQRo0ayfTp001K2tizZ4+89957cv78eZMSfX777TcZOXKkvPvuu3Lu3DmTGlnr1q2TL774wswREVE8Y9CBiIiIAvbRRx/JkiVLzJxn//zzj7Rp00Zee+01mTdvnrz88sty8803m6Whc/bsWenZs6c88sgj8s0330izZs3k/vvvN0t927dvn5QoUUKDIim1e/duOXbsmJlLUqBAAVm+fLk888wzJiW5Vq1aycyZM83c5Zo2barHzBNfy4KRKVMmefjhh3UM+5UrV5rUlPG3T57ye/ToUenUqZM89dRTsmbNGpOaMp7OgT/+zgEREYUWgw5EREQUMDzFX7hwoZm7HJ6cd+vWTfr37y/r16+XK6+8Uu666y6zNLSeeOIJbbNbunRpWbZsmTz66KNmiX+oifDnn3+mqkYCghyzZ882c5dMnDhRn+R/9dVXJuWS6tWrS5EiRczc5f7++2+vhWhfy4JRvHhx+fLLL6VkyZJSr149k5oy/vbJU34RbBgyZIjMmjVLr5PU1Lbwdg588XcOiIgotBh0iDA8VSCi2MF7lpwkFNd7hgwZ5O2335bTp0/LwIEDtVBoO3TokBw4cMDMXYKC66lTp8zc5dAcAEGFn376SWs32FCDonLlylpwfvrpp02qd9g+aiFs377dpCSHGhrYbxuabOzatUuOHDkiDRs2NKlJkA/sC2pK4D2oOWH766+/NCBSuHBhXYer7t27S5UqVcycf2fOnNH1u+7X4cOHtWbHjh07TEpy+J+1a9dq4MP1eNkQbEGNjLZt2162f3v37pUTJ0743YY7b+/3lN833nhDypQpI//++698/vnnes3Ygtm+r3OAPK5YsUI2btyY6nNAzuDU7/t4zjd/w0UPBh0ibNWqVWaKiGIB71lyklBc7126dJH69evLiBEj5M4775QaNWpcDDSggImnzJZl6TygNgSaOaBg7w6FxXvuuUeDCqNGjZKuXbterDWBPiJQcO3cubN06NBBypcvLxs2bNBlnqAAiu08/vjj0qRJExk+fLhZcknNmjU1uGFDAbho0aLaFCB79uwmNcno0aNl69at8uabb0rLli01wAK+8g8Iwnz44Ydmzrf9+/frutBUI3369JqGgnjVqlV1e2XLlpVx48Zpus3fcfG3f40bN5bHHnvM5zbc+don9/xu3rxZ9wn7hsDMtddem6xvh2C2H4lzQM7h1O/7eM43f8NFDwYdiIiIKGSee+452bZtmyxdulR+//13KVasmLz66qu67N5779Un2FhmGz9+vLaxv/rqq03KJT///LMWSFHT4b///a/WdPjkk0+0SQT6bmjXrp0+0cf7brvtNi1ouwY0bAhe9OrVSwMOKJRv2rRJ9yNQKLii9oarF154QQvPw4YN03VOnTpV033lPxhYB3peRw2LKVOmXKwNsHr1aj0O33//vbz//vsyePDgi0/yAzkugeyfr214Euj7sQ/YF+wfzsG3334rkyZN0jTUbrAFur5wnwMiIgoNBh2IiIgoZNBWHoU9PH3GCAlor293Fpg5c2Z9Cj1hwgSdR0Hzgw8+0M4gPUF/EKg+P2bMGA08QK5cufTpNgqtCCLY8NQc20E1e3dbtmyRX3/9VZ+gQ7p06YLq/6F169ZyzTXXmDnffOU/UCh033LLLZonPK13heOXM2dOnUZAAp0yojNFCOS4BLJ/vrbhSaDv/+OPPzSQgFFGEBTBCwEBNK1xr40RzPbdheIcEBFR6DDoQERERCHTokULLeiinX3u3LklR44c2peCDTUOFixYoE0XMIIAajigKrwnKOh/9tlnWn0ffTeUKlVKOx9E3wt48p8/f37zTtH+E8BT4RTDWGI/8LIVKlTITIWWv/wHYu7cufq/d999t0m5BIEYW5YsWfTvyZMn9W8gxyWQ/fO1DU8Cff/OnTvliiuu0EDAoEGDLr7QrMW1JkOw23cXinNAREShw6BDhKGXbSKKHbxnyUlSe72jSjtGtkD/CajyjqEsEShwhTb8CDJMmzZNazw8+OCDWvPAG7TxX7x4sRYgUVOhY8eOkjdvXn16jQ4obXiKDp5qJODJN0ZYcG3Xj44G3aHfBtfCLQIjvqAA7dqcI5D8B+L555/XfggaNGignS0GCnn3dVxCtX8phVEzEFyYPHmyNptxfaX02gvXOSDncer3fTznm7/hogeDDhGG9plEFDt4z5KTBHq9ozo8CsOuL/QngKfsKFTaBXpU97ebUrh66KGH5JVXXtF2+2jP7w3Wg6YRkClTJu1cEOvHUI+YRtMDFDixbXQMiSYJ9pN9VxhSE6MVoK0/YHSHF198Uadd3XDDDVrLAOtEsw5P73GFbaHfBPspfaD59wcFafTjgB/M6EQTNRgCgYCOr+MSqv1LKQQdEEjp16+fHD9+XNOwn+i8E/uaEuE6B+Q8Tv2+j+d88zdc9GDQgYiIiIKCzh9Rhd/1hb4E0D5/wIABOkLF9ddfr6NEtG/f3vzXJeiYEdXm0VdCvnz5TOrlMPQkqt5jBIkKFSroyBVjx47V9v4zZszQnskLFiyowz+icGl3JOgJOixEJ5RYF0axqFatmllyCUaJ+Prrr7VmBPJSsWJFs8QzjJawaNEiyZo1q9StWzfg/AcCtT/QeeUdd9wht956q8e+Ktzhf3wdl1DuX0qhY0jUJsH+lStXTptS9O/f/2LQIFjhPAcUu9CkCv3FsFkNUXRIl/ghf3k3zxHkq0qlDeM5IyqOjqT69u1rUomIiCga7du3T5tDoFq7PdSjKzR1QMEe/TWgQO0LnoCjLwDUTkCB0m7jb0NfBfgtgUKsP6i9gEI4no6jrb8naJ6wfft2LbCj08qU8Jf/SPB1XKJh/1CDBYEqnH80lwk15N9eP2o/kPMg+NatWzetXYNRXRCIougTT+U816ZelBxrOhAREVFIoebDdddd57FA+9VXX2lnkhjq0F/AAbAO1EzA+twDDoAOIQMJOEDGjBl1u94CDoACapkyZVIccABf+Y8UX8clGvYPBcCWLVuGJeAAaL6BkS8QRCJnQvMkDJWKjmsxLO9//vMfmThxIms/EKUBBh0iLCEhwUwRUSzgPUtOEonrHU0GEDz4+OOPTQo5Ea4DjFwRLqipgmYlCDSRczVt2lSfoAOCDXPmzNGAV58+feSHH37QdJtTv+/jOd/8DRc9GHSIMFT1IqLYwXuWnCQS1zt+9KN/BdReIOe67777ZNSoUWYu9NDvBzopTcvaHBQdUMsBfcGgw9u1a9dq7ReM6oKRTVxrPzj1+z6e883fcNGDfTpE2OjRo7WDIyKKDbxnyUlwvaM6MhGRE1x99dU6NC6CVBieF8EJp0nr3znhLOdFOm/s08E7Bh0ijAUYotjCe5achNc7EcUjPPHu2rWrjpJy5MgRkyqSLVs2adasmQwZMkSmT5/uyM8/Bh1Ch0EH79i8goiIiIiI4pIdcMAIOAg44IEnOlLF0L+///67FnrRuSoRhQ+DDhGGnnSJKHbwniUn4fVORPEEAQf0H3L48GGdb9u2raxbt05WrFghzZs31zSbUz//4jnf/E6LHgw6RFjt2rXNFBHFAt6z5CS83okoXiDg0KVLFx0C99133/Vbq8Gpn3/xnG9+p0UPBh2IiIiIiChu7NmzR7Zt2ybff/+9/Pe//72sVgMRRRaDDkREREREFDcKFCggHTp0kDx58pgUIkpLDDoQERERERERUVgw6BBhCQkJZoqIYgHvWXISXu9E5FRO/fyL53zzOy16MOgQYejUhohiB+9ZchJe70TkVE79/IvnfPM7LXow6EBEREREREREYcGgAxERERERERGFBYMORORIlmXJoUOH9K8TrFy5Up588klp166d/PrrryaViIiIiCi8GHSIsFq1apkpCrULFy7oiygQ6dKlk/79+8vzzz9vUjyLl3u2bt26Mnz4cDl37pycPHnSpBIlx+8oInIqp37+xXO++Z0WPRh0iLDatWubqejy6aefytatW81cZCBA0KhRI5k+fbpJSR08vS1Xrpz8/fffJiW+7dmzR9577z05f/68SaFgjR8/Xk6cOKE1HryJ1ns2JVavXi39+vWTm266yaQQJRdP1zsRUTCc+vkXz/nmd1r0YNAhRn300Uf6hPbw4cMmJcmUKVPk+++/N3MiTZs2lXnz5pk5zxYtWiQvv/yydOrUSZ+ChtPZs2elZ8+e8sgjj8g333wjzZo1k/vvv98sTW737t1y7NgxM5ekVatWMnPmTDN3ycCBA+WFF16Q0aNHy/z5801qfCtQoIAsX75cnnnmGZPim7djFwmBXIehgAAM7gtvr5EjR5p3Jtm0aZNkz57dY9AB99iSJUvM3OVSm6cdO3bIHXfcIQcPHpQ5c+ZI7969zZLgnTlzRl588UXZsGGDSUmCbeC+sPP3119/aZAFxo4dKz/++KNOu3rjjTdk7dq1Zo6IiIiIKHUYdIhReMI9dOhQDRa4evvtt7Xttg1P/d0L7q6OHj0qzz33nHz++edyzz33aKE9nJ544gmt6lS6dGlZtmyZPProo2bJ5RCQmD17tplLUr16dSlSpIiZS4I8Z8mSRTp27CiffPKJPPTQQ2ZJ/Js4caKsW7dOvvrqK5PiHYI4ON9pwd91GCron+GPP/64+Jo8ebK8//77F+f//PNP884kCEI8++yzMm7cOJNyCe6xhQsXmrnLpTZPxYoVk3r16mmzh3feeUebeqRUpkyZNLDQvn17DUAAjkXXrl21BlCePHk0zTVPr776arIApQ3BC0/BCCIiIiKilGDQIYah8D5mzBitZu8PakSgZgGefLrKmTOnfPzxx7Jx40Zp0qSJBgVc7d27V5+M7t+/X5+quxfaPPntt980oPDTTz9pzQZXCJJUrlxZC1tPP/20Sb3cgQMH9H/xFHjXrl2yb98+Te/evbtUqVJFp22oOdGyZUvJmzevBiBc2fvvLf+eoNkH8rBixQrdtu2ff/6R06dPm7mk92H5kSNHpGHDhiY1qTYHAgF4Woz3Yx4FS5u39btCARLHwB0KuqdOnTJzSU+ucc4KFy4cVH8WgeYF5xv7iesjkPX7y5uv84DCMo4Zjp37dRPoecyQIYNMmjTp4qtq1ap67O15NKew4dpCTQUE3WbMmJHiWj4pzRMgSIBrFvfxtddea1IvCeRasSF4gkAD/gICGThvb775ps4TEREREaUFBh0iLCEhwUylXoMGDTTwgEKTLygQofCFJghly5ZN9lS3S5cuUr9+fRkxYoTceeedUqNGjWSF3caNG8uDDz4oN998s9asKF++vLzyyitmaXIoIKG2BAIKo0aN0qesd911l1kq+vS0TJky0rlzZ+nQoYOuy706uA01LtDHBApMCChg3wG1Hz788EOdhs2bN+t6sD4UvlFw++KLL8zSpP1/7LHHvObf3ZYtW/S9t912mxbeqlWrdrG5Rs2aNTWYYkNBuGjRotosBVX0AYVLbAO1LtBsBDUw6tSpo0+iwdf6XaG6vXvnNyhA4um4XVXe37nzJZC8BLt+f3nzdR36uzaCPY+BwHV0/fXXy+OPP67zaGbkia97NjV58nd8A71WbJkzZ5Zp06bpvYMaQhipAkEWBOOIAhXK7ygiolji1M+/eM43v9OiSGJB0UrLVyBef/11jGlnjRkzxqTErldffdVMpc7tt99uDRkyxFq9erWVWKC1tm3bpumJhRTrlVde0WmoVKmSVblyZevIkSM6n1gYsXLmzGmdP39e53fu3Kl/AWmtW7e2Bg8ebFKS/r9UqVJWYmFI51esWGFlzJjR+v3333XeVWKB20ossFrHjx83KZZ1+PBh/Xvu3DkrsdBlJRbOdB569eplValSxet1gLxMnTrVzCVJLJhZEydO1Gn8X2Lh2Ro6dKjOQ2KhzCpQoMDFffCXf1dYX2LBzurWrdvF5djvxEK+ThcvXtxavHixTsPu3bv1ukws2OlxxP9jW3379jXvsKzevXvre7Zu3ep3/a6wv9myZbNWrVplUiw9dk2bNjVz/s+dO9dj5y8vEMz6/eXN13kI5NoI5jy6uvvuu3WfPMH1hc8W6Nevn9WyZUudtuEee/TRR73es6nNk6/jG8y14m7QoEF6Ljt16mRSLrHzBLgG3nrrLZ12hfvHvk7IeUL1HUVEFGuc+vmX1vkOZzkv0nnD7ze+PL9Y0yHGoQYCnv776kwQT1QTC0M6jarzaNeP9v2A/hGWLl2qNQrQvj2xYCNr1qzRZTb8v/209NZbb5Ubb7xREgusOu/qyiuv1CrkqCqOKuGQK1cu/YtaC+i0z36qDKiZgG35qzbuDdroo006RsBAFXa8UBMAzQ/cnyh7y7+rbdu2ae/+qDlyxRVJt0b69Okld+7cOu1NYmFRrrnmGq1ej31wzeOQIUP0b+LNFtT6sb9YL9rgQ2LBU/smQF5sgZy7YNl5gWDWH0jevJ2HQK+NQM9jIHB9oFbKfffdp/MPPPCA9nWAGh/BSE2efB3flF6LYDdFcu/7hIiIiIgoLTDoEAfQO/2sWbO8NlVAMMCG6v5gj9PfokULLQyhfTsKNDly5LisJ/+CBQuaqSSFChXSPgHcobD62WefaZXzypUrS6lSpXS/AO9He/v8+fPrPKAfAkhpwXHnzp1aIEOBbdCgQRdfaDqAQr7NV/5doX8E7CPylxL2MbHzBVgX9hF5DHb9qJaP/jbQ9wJGUUAwpXnz5mZpYOcuNYJZfyB583YeAr02Aj2PgcAoL1dffbX2pzB8+HCZO3euNoFBYCcYqcmTr+Ob0mvxyy+/1GsGTUdef/11+b//+z+z5HLIr93ppCtcb3ZzICIiIiKi1GLQIQ6gLTna4ttP1QOFp6l4uotO6oYNG6bDWCJQ4M6980jM20/D3aHtPWpBoCCFNvjo2wBPf/F+PMlFR4g21FQAb+tCYd2yUOPKs+LFi2twASMUoB8H15d7fwiBwPqwj946y0RfB66FXPen4nY+XP8f09hHLPO3fnfoswM1RdCOHzUe0OmgXRgM9Nx54y8vwa4/2Ly5Ssm1kRqojfPBBx9oXxso5Nsv9EUydepU867U8Zcnf8c3JcfzyJEj0qNHDw3C4VrByDCoieEpsAAlSpTQ/XCF+xbHomTJkiaFiIiIiCh1GHSIsJQUhgOBp7V4Go7O5wKFJ6koENsFG1QJnzBhgk67wlNhPHkF9PaPphNo0uEO67G3j8IxOsHD+tOlS6cdPGIeneYhkIDmAtjnW265JVnNAFdI//nnn5PVWnCFghkK5v369ZPjx49rGtaNDhKx/mBhfSh4YuhCu0DuWoX/hhtu0Cfi2AYKrhha0BWqs9euXVurxGOf8UKBEsN8ohDnb/3ucNwQTBo7dqwGHlDzwRboufPGX16CXX+weXOVkmsjNVAbB7VGpk+fLm+88cbFF4JXaBKBZg2uUnLP+suTv+ObkuOJ9yKQgAAGYNsIXKAmlCdt2rTR4AuamQDei8Al1oFOK8mZwvUdRUQU7Zz6+RfP+eZ3WvRg0CHCUCgNBzw9ffjhh7VgEij0fzBgwAAtFKMXfwyZiSek7jB6BJ4Koyd+9MKPHvo9FQYRmEDTBoyCUKFCBR25AgVmVBtHARrDEq5atUqbaxQoUEALWr6eLGNEAIwokDVr1mRDTrpCdXgUyrDOcuXKaXV3FL5QoEsJFETxtBdV71GDBIU/BD4A/WZ8/fXXGlzAsatYsaKmu8LoAevXr9f8YZ9QoMM6kX/wtX5PEGj49ttvtRCL/jtsgZ47b/zlJSXrDzZvtpRcG6mB9bZq1epicwgbtot+GRBkc5WSe9ZfngI5vsEcz//+97/arALrt681jGaBvGCYWvQ14g6jy/Tq1UtHzcA+om8KXGuffPLJZceGnCNc31FERNHOqZ9/8ZxvfqdFj3SJhTPv9dcjwP6B7AueQuJpNjoo7Nu3r0mNf6jmjCrY6CgRhZZwQftzDMeITiLxBNYV+mZAZ3j33nuvVsVGIdXuHNITPNFFXwuo0o2ClafCC57W4ryjoBMqx44d0w76cJxCMUQgjv2ePXs0gJItWzaTmvQ0ePv27bodX8cBxxN5xDCJnnhbf7DQaSAKpqiaj44Gg4G8/PTTT1qoRYHWk5SsPzV5w3FDsxoEkOKFr+sdxxd9sSCohyCBJ6G6Vryxm3GgX4l8+fKZVCIiIqLwi6dyHmq3kmes6RBlcLGimjVqFyA6hyfc4Qw4AKqa4wkv/nqDAhEK0L4K2oCCKapnX3fddV6flqJzvFAGHAC1KVBQDUXAAfLkyaNPl90LeQjKoMaHv+Pw2muvyfjx483c5bytP1joqBDHOtiAAyAvqF6P5iDepGT9qckbjtu7775r5uKDr+sd1yvuPQSyvAnVteINrgMElRhwICIiIqJwYNAhSqDq9f33369PnNH2G08/0cY8Em2RUNhAtWxPQQLUfghHZ37xDlXX7eEYoxn2EfsaLWLluIUKgjm494IdpYKIiIiIKFYw6BBhCQkJZupSrQa01UcHc+gIsnTp0nLVVVdpXwWR6vwEtQTQd4B70wp48803tUM7Cg5qqaC9frTDPkZTe7doPG6u92yoodkF7j00bSCKBuG83omIoplTP//iOd/8ToseDDpEGDqWc63VgNEN7JEh0Fki2ngjEMHeVomiA+5ZIqfg9U5ETuXUz794zje/06IHO5KMsD59+sjixYvlxIkT2mFeSkdZICIiCodAhrolIoo3o0eP1pGlnCat8x3Ocl6k88aOJL1j0CHCcPF369ZNh6V777335MiRIxp42L9/vy5HZ3GRbFpBRL459UcIOROvdyJyKqd+/qV1vhl0cAY2r0gD6I2+R48esnLlSpk0aZL2mYBgAzpsPH36tHTs2JHVgYiIiIiIiCjmMegQYe41GNBp3tixY+X//u//5MEHH9ThJjF0Zfv27Rl4IIoCrHVETsLrnYicyqmff/Gcb36nRQ8GHSLM20gBrrUf5s6dK3fddZc2w2DggShtRdPoHkThxuudiJzKqZ9/8ZxvfqdFDwYdopBd+wHDvGzbtk327NljlhARERERERHFDgYdohhqP3To0EEKFChgUoiIiIiIiIhiB4MORERERERERBQWDDpEGJpMEFHs4D1LTsLrnYicyqmff/Gcb36nRQ8GHSKMHUMSxRbes+QkvN6JyKmc+vkXz/nmd1r0YNCBiIiIiIiIiMKCQQciIiIiIiIiCgsGHYiIiIhIFi5cKL/88ouZIyIiCg0GHSKsVq1aZoqIYgHvWXISXu++rVu3Tr744gszFxn//POPvPfee3Lu3DmTEh7Lli2TUaNGSalSpUwKkbM49fMvnvPN77Toke7ChQuWmU4T6dKlM1PevfHGG9KvXz8ZM2aM9O3b16QSERFRpJw/f14Lpd5cccUV8tRTT5m5yFq5cqUsWbJEduzYITlz5pSGDRtK8+bNA/qN4UmrVq2kXbt20rZtW5MicvToUalTp45kyJBBJk2aJFWqVDFLwifxN5o0atRI9+XBBx80qaG1a9cumTBhgjRp0kT+/fdf+fPPP6VPnz5mKRFReMVTOc+y0rRYHdVY04GIiIj8wo+pP/744+Jr8uTJ8v7771+cR2E1rXz88ceyb98+KVu2rAYFHnjgARk4cKBZGrzq1atLkSJFzFwSBFSGDBkis2bNkv79+4e95gGMHDlSatasGbaAAyCfp0+flu7du8vrr78u9evXN0uIiIhCgzUdiIiIKGj33HOP5MmTR5/6u0JzgLx580rmzJl1HjUkdu/erYVb+zt/7969kiNHDjl79qw2WShRooQUK1ZMl9lQs2D9+vVSuHBhKV68uPz99986jRoV/kyZMkUDA4cOHTIpySEdtQiuvPJKk5IE20Aatp09e3bJli2bWZKUD+zrmTNnpEKFCrr/tkDyYzt58qQcOHAgWVDj1KlTWsvAzl8gxxD7//vvv+s+o0nENddco+nuAtkeAkYIHOXPn1/KlSt32TEOdFtERMFiTQdnYE0HIiIiCpmbb75Zvv32WzMnWlguWrSoHD582KSING7cWB577DGpWrWq1khADYVx48aZpSLLly/XQAN+iDZt2lR69+6t60DhORAIGlx11VVm7nJz5sy5rK3vxo0bNVCAgESzZs3kww8/NEtENm/eLOXLl5cOHTrIE088Iddee22yvh385ccVahXUrVtXf2jb2rRpoz+27cK+v2O4ZcsW3dZtt90mzz77rFSrVk3mz5+vy9z5216XLl20dsOIESPkzjvvlBo1aiQ7zsFsi4iIyBMGHSIsISHBTBFRLOA9S04Syet99erV8tNPP8n333+vzTQGDx6sT9TRbKFr167anOGHH37QYMCJEyfMf3m3atUq6dWrl/blMHXq1GRBA3f33nuv9mWAbdvQWePtt98uBQsWNClJ8OSqc+fO2q/Cpk2bNBiA2h1Ic90vb/lxh9ohM2fOlKefflr/57XXXpMNGzZo7YxAYH86duyogYBt27bJ119/rXmpV6+eeUdy/rb33HPP6XqWLl2qtRkQeHn11Vd1WbDbIoplTv2+j+d88zdc9GDQIcLwo4iIYgfvWXKSSF7veMKOTh8BHT+idgKe6KNWAar6P/zww7oMzQkCqXKL5g2oHYGq/2ie4Csv2G7r1q010ABovoBAAfbJHfYFgQR06Lh27Vp9oWCOJgoovNu85ccT9BmBwj46rHzmmWc0KIDgQCBQ+EfwAP9v14xInz695M6dW6c98bU9NLtAwOHNN9/UPiQQ9FmzZo0uS8m2iGKVU7/v4znf/A0XPRh0ICIioohz7U8hS5Ys+hf9D+zfv1/7U8iaNaumQb58+cyUdxUrVtTaBW+//bbMmDFDHn/8ca+FfkBNBXRAieYHGPkCQQTUknC3c+dOLXCjQD5o0KCLL3Tw6FqTwVt+vEETB3R+edNNN2lQIFB//fWXdpZZqFAhkxIYb9tr0aKFNhk5ePCgBhMQvLH7wkjptoiIiFwx6EBEREQhg4CBa2EbnSwGA7UVjh07lixggH4FgoH+F1B7AQEMbxo0aCC5cuXS/glQ46F9+/aSKVMms/QS7A+CCxitA/04uL5SOgY89g39Q6AzTnTiiECJK1/HEPuD2gjBjBbibXuoybBw4UJZsWKFDBs2TB555BHtKNKWkm0RERG5Y9CBiIiIQuaGG26QuXPn6jRGenjppZd0OlAo6KJjQ3TMiA4NUeBFJ4feICCA7WHkCECzhuHDh2uzAYzE4A2abXTq1EnGjh2rgQfUfPAE+4MABTq1PH78uKahr4Nly5ZpYT4lsH8IiKBviI8++kg7n8SoFzZfxxD7gz4VMDqHHZjw1ZQDvG0PtRhw/OygwtatW2XChAk6DSnZFhERkTsGHSIspU9FiCht8J4lJwnF9Y4CLmoBoNCPQmulSpXMksChE0gU8PH/GBnigQce0CCB6zCVrtCUAs0xMOQjhppEgXrBggVaqPYFgQZ0DInRKDBihDfo7wGFbnQyiUAGmlKgIO6po0h/0H8ChoabNWuW7nOdOnW008y2bdtqDQ/wdwynT5+uzSGuvvpqHSkD7/n555/N0uR8bQ/5GDBggDa3uP7666VJkyZa48NVMNsiimVO/b6P53zzN1z0SJf4hZmmA4ra4037Ek/jtxIREcU7VMnfvn27FtLtzhVTAwVmBBZ27NhhUi63Z88erRmBbSLwEA4ICmD0hgIFCoRtG7ZAjiH6XkC+MZxmtmzZTGrw0NcDAgtoWoGOIj0J1baIKDxwf3711Vc69G2gHdNGg3gq56EWHHnGmg5EREQUUqhhUKZMmRQHHFBLAcM2fv755zqqQp8+fbSzQ18QCEBfDuEMBqCmBWo6hDvgAIEcQxQsUPsgtUEA1BC57rrrvAYcIFTbIqLwwGcgam3Vrl1bWrZsqR3kEkULBh2IiIgoqqCwjZETpk2bJr/88ot24ohODomIyDs0J8Dn5fr167VZGoKJGNXHHpGGKK0w6EBERERRBTUWXn/9dZk9e7aMHz9emjVrZpYQEZEvCDx88MEHWjsJzdgRvEXntOgfh7UfKK0w6BBhCQkJZoqIYgHvWXISXu9E5FTx9Pln13hAk6l8+fJpp7cbNmzwWPshnj/3+Z0WPdiRZISNHj1ae4omotjAe5acBNc7+lIgIqL4hLIXOjzMnj27TJw4UdasWZOmv3PCWc6L9G84diTpHYMOEcYCDFFs4T1LTsLrnYicKt4+/1atWiUdOnTQ4X4hV65c2kEtml1guOB7771Xp9M63ww6OAObVxAREREREcUJO+Bw6tQpHXY3a9as0qhRI5k6dap899130qNHDw04EEUKgw5ERERERERxAAGHtm3byunTp6VkyZLSu3dvbUIxbtw4qV69unkXUWQx6BBh6NiFiGIH71lyEl7vRORU8fD5h4BDt27ddMSfuXPnBlSrIZ4/9/mdFj0YdIiw2rVrmykiigW8Z8lJeL0TkVPF+uffnj17ZNu2bTpiQzC1GuL5c5/fadGDQQciIiIiIqIYVqBAAe3HgX01UDRi0IGIiIiIiIiIwoJBByIiIiIiIiIKCwYdIgztrIgodvCeJSfh9U5ETuXUz794zje/06IHgw4Rhl5liSh28J4lJ+H1TkRO5dTPv3jON7/TogeDDkREREREREQUFgw6EBERkSNcuHBBX0ThtHDhQvnll1/MHBERMehAREREUeW3336TkSNHyrvvvivnzp0zqan366+/Srly5eTvv/82KaERrv0NlYceekiGDBli5iInWo7LP//8I++9915E9mHZsmUyatQoKVWqlEkhIiIGHSKsVq1aZoqIYgHvWXKSUFzv58+fl+eff97rC4VQfzJlyiQPP/ywdgK2cuVKk5o6AwcOlBdeeEFGjx4t8+fPN6mhEY799aVp06Yyb948M+fZU089Jffff7+sW7dOcufOrccedu/eLceOHdPpcAvmuGD5sGHDpEuXLtK3b189R5ZlmaUph5ot9913n5w+fVoyZMhgUkNv165d8swzz0iWLFnkySeflEmTJpklFCuc+n0fz/nmb7jowaBDhNWuXdtMEVEs4D1LThKK6x0FxT/++OPia/LkyfL+++9fnP/zzz/NO70rXry4fPnll1KyZEmpV6+eSU25t99+WwuDHTt2lE8++USf/IdSqPfXH9TU8BU4QH6hTZs28sorr8iLL74o6dKl07RmzZrJ7NmzdTrcgjkuH3/8sezbt0/Kli2rwYEHHnhAA0WphSBXzZo15cEHHzQp4VGkSBENbHTv3l1ef/11qV+/vllCscKp3/fxnG/+hose6S5cuJD6MHIq2F+CvrzxxhvSr18/GTNmjEa/iYiIKDbcc889kidPnsue/O7du1dy5MghZ86ckbVr18oNN9wg+fPn12UITCBAgXk0h7jiCs/PSA4dOqRPsq+88kqTkgSFcqQh0ACofYEn/thWhQoVdLve2PuFAuT69euldOnSWqAENM/ANm+66SbJnDmzpoGv/bXXd/bsWd2HEiVKSLFixczSS44eParbK1y4sBbWkQdMe8p75cqV5fHHH9cgCiBf2A62j/3ylt8DBw5oYbhz585y77336nvtY+4J8opzg/1x3yc0WcibN+/F44BtohYFjpX92y7Q8+jJlClTpH///roPnpw8eVLzY58bOHXqlPz777+6jzge/vYPcP38/vvvmjc0ibjmmmvMkkv8bcvOl7/8BrItIqeJp3JeKGpnxavAP/2JiIiIQqRx48Za9R7BhgEDBlysfo/q9SgYjxgxQu68806pUaOGFvg8mTNnzmXVZzdu3KiFeruwunnzZilfvrx06NBBnnjiCbn22mvliy++0GWeYL/69Okj1apVu/h+NGXo2rWrtG3bVtq1ayfVq1eXEydO6Pv97S/W99hjj0nVqlX1yT2e5I8bN84sTbJ8+XIt1OOHN5pO9O7dW4oWLeo1367279+v20fV/vTp0/vML5qWbN26Vd58801p2bKlz5oEK1as0AAJghtNmjS5bJ9uvvlm+fbbb3UaUKDH8sOHD+t8MOfREwRhrrrqKjN3OQSF6tatqwUWG2p2oNCCwr6//YMtW7boebntttvk2Wef1XPuqemNv22Bv/wGui0ioriEmg5p+QrE66+/jrCRNWbMGJNCREREseDuu++2unXrZuYuqVSpklWuXDkrsdBsUpLs3LnTTFnW+fPnrdatW1uDBw82KckdOXLEypYtm7Vq1SqTYlmJBWkrseCu0/idUbNmTWvo0KE6D4kFPatAgQLW8ePHTUpy2K/EAqt17NgxnU8sRFpZs2a1XnvtNZ0/deqUVbp0aWvKlCk6729/sb7KlSvrvsLs2bOtnDlz6nvh7NmzVsmSJa1XXnlF57HPnTp10t89+/bt0zR3WOeMGTOs33//3bruuusu5i+Q/CYWfK2pU6fqtDfYN5yb5557Tuex3nbt2iXbpyJFilhLlizRacBxwPKDBw9enLf5O4+2hIQEq2fPnlazZs00j99//71Z4tn//vc/K3v27NYPP/xgjR492ipRosTF7fvbP+QpseCv16Z9Ls6dO2cdOnRIp9352hb4ym+w2yJykngq5+Fe58vzizUdIgydKRFR7OA9S04S6esdtQfcm0agCvvSpUv1aTza42PEgTVr1pilySUW3iWxcKcjE0BigU77j8BTZ0BV98SCqzRq1EibCeCFWhCoGr9hwwZ9jyfogDGxgKnTt956qz7pxpN+QHV99BGAGgUQyP5if7Cv0LBhQ32KjyfvgPVgP1HrA1D1P5AqxqtXr5ZbbrlFazPg6TqkNL/u8FQeTUlQQwOwT48++qhOByqY82hDMxDU+ECzAzTfWLVqlVniGWqcPPfcc9KqVSut6TFz5kxtyhOIbdu26THE/9u1FVBTBJ1ueuJvW77yG+y2KG049fs+nvPN33DRg0GHCPP3BUpE0YX3LDlJpK/3QoUKmalLWrRooQXpgwcPaqEMBVFv7foB/ROgE0IEBpYsWaIF7ObNm+uynTt3aiEPhcBBgwZdfCFocOHCBX2PJ+gLwIYgQ9asWS/2DQCYxnYgkP11DazY/UygnwBA8wgEOLANW758+cyUd3PnztXt3X333SYl5fl1t2fPHs2H3RcEeDpXvgR7HqFixYoyePBg7QhzxowZ2rTDDs54g2YO6IAS/WwgMBCov/76SzusDCZfvrblK78p2RZFnlO/7+M53/wNFz0YdCAiIqKogCfCCxcu1P4EMHziI488oh3u+dKgQQPJlSuXto9HjYf27dvrUI2Ap+YobGMEDfRr4PoKxVBqKdlfd9hHjEThWrhGTQN/MAQm+g1A/tGhIQSSXwQlLD+dneGpPfbJtU8C91FHECixAyeAjhttoTgu6JcCNVcQlPEGy9F3BTorxf7Zo3aAr/0DHCvURnDPlze+tuUvv8Fui4go3jDoQERERFEBT4NRaLYLZ+j0cMKECTrtDar+d+rUScaOHauBB9R8sKGwh0I5Omg8fvy4pqHAvWzZMi1EplZK9tcd9hEdEKIpAwr5WJfdXMIXBA8wwgOCCRiOEs0RAskvRlv4+eeffdZ8wIgdVapU0eYAgFEwMOymK3QAitoWgOUvvfSSTkOwxwXvxbowwgeg+cnw4cM1+IFRILzBexCUwMgoH330kXaMiVE7wNf+AY4VjhtGyLCDE67NXtz52pa//Aa7LSKieMOgAxEREUUF9D+AkSxQdf3666/XURNQc8EfBBowUgFGasCoBa7QxwMKegULFtQCLJo6oPDnq9AdqJTur7sPP/xQgwQonGK0iwceeECDKa7NGzzBe/DE/Y477tC+J3bt2uU3vygsL1q0SJtzYEQGb1C4/uSTT3TEB4xigdEWXKEQjhoUCAxgvytVqmSWpOy4oCkF9gnDTaJ5Cwr0CxYs0AK9J+g/AUPszZo1S/+vTp068tRTT+kII6il4Wv/bNOnT9fmEFdffbWOKoL3ISDjzt+2AslvoNsiIopH6RK/hHzXsQszfGH6E0/jt6JDk9q1a5s5Iop2vGfJSYK93tFmHdXK0XFhgQIFTGrqod08Cmiooo4O90IBhUMUyrGfrn02hEKo9xeFWxTCd+zYYVKCF4r8ouYBntqjdgQCGeiTAHm1+5xAk4Ht27drgMPuKNNVsMcFfUmgtgfWF4pz5G//bLiOsW0EWLJly2ZSgxdIfkO1LQo9p37fp3W+w1nOi3Te/DVdczIGHYiIiCgoP/zwg7z++us6OoJdxZ9SDk/00Y8DaiagfwD01zB06FDtGyBaoPmGe9CBiCi14qmcx6CDd2xeQURERH7hCS1+FN54443SsmVLfYLEgENolClTRkc4mDZtmvzyyy/aEWQ0BRwAo27ceeedFzvpJCIiChSDDkREROQVajW0a9dOgw0vv/yydqaHvgYwTCUDDqGBkRpQc2T27Nkyfvx4adasmVkSPfLkySOff/65jhRCREQUDAYdiIiIKBnXWg333nuvDgVojyyAoQgxNCUDDkRERBQI9ukQYU7tpIYoVvGeJSfB9X769Gnp2bOnDulHRETx7dNPP2VHkiHCPh28Y9AhwkaPHq3DKhFRbOA9S05iX++o6YDhEtFnw+HDh+XUqVM6egGgbT+GZcSwgURE8cKp3/dpne9wlvMinTcGHbxj8woiIiJKBu33e/ToIatWrdLODW+//XbJmjWrXHXVVRqA6Nixo3z33Xfm3URERETeMehAREREXlWvXl3eeecdWbNmjTz66KNSokQJbYKBziUZeCAiIiJ/GHQgIiIiv1xrP8ybN0/uuusu6d69u84TERERecOgQ4Sxt2+i2MJ7lpwk0Ovdrv2AgMO2bdtkz549ZgkRUWxy6vd9POebv+GiB4MOEcZe8IliC+9ZcpJgr3fUfujQoYMUKFDApBARxSanft/Hc775Gy56MOhARERERERERGHBoAMRERERERERhQWDDkREREREREQUFgw6RFhCQoKZIqJYwHuWnITXOxE5lVM//+I53/xOix4MOkQYhxYjii28Z8lJeL0TkVM59fMvnvPN77TowaADERERURxauHCh/PLLL2aOosW+fftk06ZNZs45eD0SOReDDkRERBRyR44ckbfeektGjRole/bsManB27hxo8ydO9fMhc5DDz0kQ4YMMXOR8dtvv8nIkSPl3XfflXPnzpnU8Fi2bJke+1KlSpkUigb79++XGTNmyCeffCL9+/c3qWnnn3/+kffee4/XIxGFFYMOREREFJAzZ87Iiy++KBs2bDApSXbs2CEvvPCCHDp0yKSInD9/Xu6++24pWLCgBh/8adWqlcycOdPMJTl48KCm58uXz6R41rRpU5k3b56Z8+6pp56S+++/X9atWye5c+eW559/XtN3794tx44d0+lwypQpkzz88MPaznjlypUm1TtP++Uvr7t27ZJnnnlGsmTJIk8++aRMmjTJLAmtadOmaRAFUrKfoRYN+wDerqWzZ89Kz549Zfjw4dK7d2/59ddfpUWLFmZp2rhw4YLcd999cvr0acmQIYNJDa1IXY9EFN0YdIiwWrVqmSkiigW8Z8lJ/F3vKDQjsNC+fXsNQIBlWdK1a1ctROXJk0fTIG/evPoeVKkePHiwSfUOhbWjR4+auSQopD377LNyyy23mBTP/v77b79Bg7ffflv/tmnTRl555RUNnqRLl07TmjVrJrNnz9bpcCpevLh8+eWXUrJkSalXr55J9c7TfvnLa5EiRbQQ2b17d3n99delfv36ZknonDhxQvr06aPnGFKyn6EWDfsA3q6lJ554Qu+v0qVLaw0b3BP/+c9/zNK0gVo3NWvWlAcffNCkhF4krsdQcer3fTznm7/hogeDDhFWu3ZtM0VEsYD3LDlJINc7ggAINOAvvPPOO9oE4s0339R5QJVtFDRKlCihBbCsWbPqE080uWjYsKF5l2cIahw4cECnZ82aJe3atdNpFCBPnTql0/4g2IHtYR9sCGDcc889WmsCzRts2BaeQqNWBf4H7e29wb4tX75ctm/frk+J8X78BTvPNtT0wHIcK9uff/4pBQoUkLZt2178P2/87dfhw4flm2++0VomrhBIwZN0BFnGjh0r5cuXN0uS7N27V4MG3v4fEPz57rvvPOYTEDipUqWKHsuU7megx2vFihV6ffk6XindBxu2vWbNGvn+++89BilwPa1du1ZryGA73vjaj5dfflkqV66swSYEvCpWrGiWhOac2E6ePCl//fWXmUuC+8b1/faxf/rppzXw4OnY472oyYLjj2Xe+Nuev+sRAt1WuDn1+z6e883fcFEk8Ua30vIViNdffx2fgtaYMWNMChEREaWVH374wcqcObP1ySefWDly5LAWLFhgliQpXry4tXjxYjNnWbt379bv8ebNm1vNmjUzqcnVqFHDmjhxojVjxgyrVKlSyX4jJBb2rIwZM1p79uwxKclVqlRJ/w/+/fdfK/GHptWlSxcrsQCoab/++qtVpkwZq1y5clbdunWt/PnzX9y/p556ysqWLZtVokQJq2rVqlbnzp013d3y5cut3Llz63vKli1r9ezZU/OUWLDU5UWKFLGWLFmi07Bz505dnlgA1Xmst2TJklaDBg10WzfffLO1f/9+XeaJt/1CXnv06KHHCMcsS5YsVmJhTpeBv+34+/9ly5ZZefPmtapVq6bHyz2f8MADD1ivvvqqTqd0P0N5vFK6D+Dr2oDVq1dbxYoV03XdcMMNuq7169ebpcl52w9/6wjFObHh+GH7+O1swz3XqlUrM+f/2G/evNmqXLmy3sf169e3ChYsaM2bN0+XufO3PX/nMZhtUXyKp3KeezmXr0svBh2IiIgoaIMGDdLv5k6dOpmUS7wFHcaPH68FHE9Q2ELQ4dSpU1a+fPmSFYp69+5ttWnTxsxdDoU2BB1+//1367rrrrOGDh1qliT9CKxZs2aytPnz51sFChSwjh8/rvMoIE6dOlWnPTl//rwW9p577jmdxzrbtWuneQo06OCab6yvdevW1uDBg02KZ572C3lFIe3IkSM6P3v2bCtnzpy6TvC3HV//jyANCoivvPKKLkM+cX5d83nu3Dk9P1u2bNF5SMl+hvp4pWQf/F0byGv58uWtgQMHmqWW1atXL6tKlSpef8O670cg60jtOXH3v//9z8qePbsGB0ePHq2Fffu4gq9jj/UjuNGtW7eLxwl5OHTokE574mt7vs5jSrZF8YdBB2e82LyCiIiIgpZY4NG/iQUY/RuIxAKHXHPNNWbOs8yZM0uXLl1kwoQJOo9q5x988IE2j/Bl9erV2vcD2s6PGDHCpIr88ccfWm2+UaNGWkUer2LFimkVcPcOMb1JLGBrnxWPPfaYzqPK+KOPPqrTgcJxWrp0qTZDQZX2xMKVVulPCRyfxEKpTqO5Cqreo08MCGQ73v5/8+bNerzQ2SUgn3379tVpG6r4X3311VKmTBmT4p2v/fQnVMfL1z74uza2bt2qQ1s+/vjj+n7A9YX9CLQZQKDr8LafgZwTd9WrV5fnnntOO2FFJ47ooNW1vxVftm3bpvcS/v+KK5KKCenTp9eOV73xtT1f5zEl2yKi2MSgQ4Shx2oiih28Z8lJAr3e0ab/448/lg8//FA7h/u///s/syQ0evXqJQsWLNC27ijAoJDrrwM6DKuJwgpGzHC1c+dOLdCgwDNo0KCLL3Sgd8FDm3hPMORnjhw59GUrVKiQmQoMRipAYfPgwYO6n1gX+ohIiSuvvNJMiY4KAGhbD4Fsx9v/YzjH7Nmzax8cNveRQ+bPnx/wqAu+9tOfUB0vX/vg79r4559/dFSH/Pnz6/uhcOHC+jfQ4Emg60jNOfEEHaYiMHjTTTdpUCBQ6J8B+xvs9e1te77OY0q3FS5O/b6P53zzN1z0YNAhwlatWmWmiCgW8J4lJwnkej9y5Ij06NFDC2oYxQJP/PGU1h7NAlBIci1cIngQjGuvvVaDDBiWETUe0Ls+nvD6guEva9SoIQ0aNJB///3XpCaNGIEC5OTJk+WLL75I9rJ7NkfB03LpRM8dntaig0F0FGhDJ4eufOUZT3Qxigc6yhs2bJg88sgjUqpUKbPUO3/75S6l27HhWCGfroVh1PJwhWCQe9Ah2P2EUB+vlOyDv2sDtXLwZB6dmNpQ6wC81dhx34+UrMNVIOfE3fnz56VDhw7acSquU3vkFpuvY4/tYX/dr29fvG3P33lMybbCyanf9/Gcb/6Gix4MOhAREVHA+vfvr6NSoAABaMqAgsMLL7yg83DDDTdozQMUvtCbP3rrD9ZDDz2kQ1v+9NNP0rlzZ5PqHQp7U6ZM0cIiRgjAE2ZAwQaBiH79+snx48c1Dfu1bNkyLSwBnjz//PPPXms+YJhDjNaAauCAAIt7nuw8A5a/9NJLOg14mot124UrVLm3m4/44m+/3KV0OzYcKwR70IwEARasx7Wpyi+//KIFYPcn58HuJ4T6eKVkH/xdGwh+Va1aVY8B0pE2fPhwbcZj11Zw574fKVmHK3/nxBOsHzUkJk2aJB999JEMHDhQR96w+Tr22B7uH9zndmDCX7MYb9vzdx5Tsi0iik0MOhAREVFA/vvf/2qziqlTp16seYA+GFDYx5CAaBMPaNf99ddfaw0BtJF3HR4wUHfeeadWM0c/EIFUJwfsE56y3nHHHXLrrbdebDP//vvva6GmYMGCUq5cOa3KjoKOXTBEIWnRokVahb1u3bqa5g4Fqk8++USKFi2qQZdq1aqZJUlQ8MITcuQZhalKlSqZJaLHYMCAAVpYv/7666VJkyZaS8SfQPbLVUq34wpNZlAARx4aN24sDzzwgB5XVItH04pmzZpdVusk2P2EUB+vlOwD+Lo2kM8ZM2bo01Isx3CnKDjj+vfGfT9Ssg53vs6JO/SfMGbMGB1uFvtQp04deeqpp3SYVns4UF/HHqZPn67NIdCsqWzZsvoeBFI88bU9HEt/5zGYbRFRDEv8UPXYw2SkXoGIp15N7SGmiCg28J4lJwnl9Y5e9zHCweHDh01KcI4ePWrlypXLWrFihUlJPaxz06ZN1oEDB0xKcM6cOWNt3LhRe9ffbUbkcB1BwM6zPQqBu7179+oQgefOnTMp4RHK7cycOdMqWrSoTmOEkc8//1ynQyFajhf4uzb+/vtvPeepEYp1gOs5SSl/xx4OHjyoQ4piJI/UCOQ8hmpbqeHU7/u0znc4y3mRzpunsi5fSS/WdIgwu/0oEcUG3rPkJKG83lG1GiMc5MqVy6QE7quvvtLOJMuXL681FkIFT4bxNDtv3rwmJTgZM2bUfUKHeJ7YebZHIXCHzgSvu+467aE/nFKzHfTZkPhDXT7//HMdcaBPnz7aESCgFgmetIdKtBwv8HdtoLND1FRIjZSuw9c5SSl/xx4wAgVqH2TLls2kpEwg5zFU20oNp37fx3O++RsuejDoEGG1a9c2U0QUC3jPkpNEy/WOwi2aVqApR7TC/qEJSKZMmUxKfEBBFKMKoBNP9OGAThbt/jvQrwUCLxRZvs4JhY5Tv+/jOd/8DRc90qG6g5lOE+7tAj154403tJMftBnzNzYxERERERERRb94KudZVpoWq6MaazoQERERERERUViwpgMRERFdhHbnsYJD6xERxTbWdHAG1nSIsISEBDNFRLGA9yw5Ca53FORj4UVEFEpO/b6P53zzN1z0YNAhwjBOMxHFDt6z5CS83onIqZz6+RfP+eZ3WvRg0IGIiIiIiIiIwoJBByIiIiIiIiIKCwYdiIiIiIiIiCgsGHSIsFq1apkpIooFvGfJSXi9E5FTOfXzL57zze+06MGgQ4TVrl3bTBFRLOA9S07C652InMqpn3/xnG9+p0UPBh2IiIgoRQ4dOiQffPCB7Nmzx6QQERERJcegAxEREQXlhx9+kG7dumnV1WuvvVYKFChglhARERElx6ADERER+YVaDePHj5eqVatKy5YtZcmSJTJlyhS2mSUiIiKfGHSIsISEBDNFRLGA9yw5iafr3a7VULlyZXnxxRfl77//lqxZs8rMmTMZcCCiuOHU7/t4zjd/w0UPBh0ibNWqVWaKiGIB71lyEvt6d63VcN9998kXX3whp0+fllOnTkm2bNnk/fffZ8CBiOKKU7/v4znf/A0XPRh0ICIioouWLVsm5cuXl+HDh2uthuPHj8uFCxfMUpETJ05I69atpVChQmn6IiIiotjAoAMRERFdVL9+fdm0aZM8++yzUqRIEcmRI4ekT5/eLBWt6TBnzhzZvXt3mr+IiIgo+jHoQERERMnkyZNHHnzwQfnxxx91SMzbb79dMmfOrH05oKZDx44dWW2ViIiIAsKgQ4SxDSxRbOE9S07i6XqvXr26TJ48WdauXSuDBg3S2g8nT56Utm3bMvBARHHDqd/38Zxv/oaLHgw6RFjt2rXNFBHFAt6z5CS+rnfX2g/z5s2T2267Tbp27crAAxHFBad+38dzvvkbLnow6EBERERBsWs/IOCwbds22bNnj1lCRERElByDDkRERJQiqP3QoUMHKVCggEkhIiIiSo5BByIiIiIiIiIKCwYdIiwhIcFMEVEs4D1LTsLrnYicyqmff/Gcb36nRQ8GHSKMHW4RxRbes+QkvN6JyKmc+vkXz/nmd1r0YNCBiIiIiIiIiMKCQQciIiIiIiIiCgsGHYiIiIiIiIgoLBh0iLBatWqZKSKKBbxnyUl4vRM5y4ULF/RFzv38i+d88zstejDoEGG1a9c2U0QUC3jPkpOE43r/9NNPZevWrWYu7UVqf1CQa9SokUyfPt2kpI09e/bIe++9J+fPnzcp0ee3336TkSNHyrvvvivnzp0zqZH17bffRl1P97iGcP3s3r3bpITer7/+KuXKlZO///7bpDiXU7/v4znf/A0XPRh0ICIioqCgMDR37lzp27evdO3aVZ5//nn55ZdfzNJLFi1aJC+//LJ06tQp7IXJpk2byrx588ycZ772BwW7Y8eOmbmUOXv2rPTs2VMeeeQR+eabb6RZs2Zy//33m6W+7du3T0qUKCEHDx40KcHzlIcCBQrI8uXL5ZlnnjEpybVq1Upmzpxp5i7n67gGcswDkSlTJnn44Ye10L9y5UqTmnI//fSTNG/e3Mz59+eff+r2ce7CWfieNm2aBlgCvdauuOIKfbVp0ybg+8fTur2d44EDB8oLL7wgo0ePlvnz55vU2PHAAw/I119/beaIKJox6EBEREQBO3r0qNSvX18LaHDjjTfKv//+q2muBVC877nnnpPPP/9c7rnnHi3YhBMKi74Kcv72BwGC2bNnm7mUeeKJJ7Q6b+nSpWXZsmXy6KOPmiX+oSYCCr+pqZHgLQ8TJ06UdevWyVdffWVSLqlevboUKVLEzF3O13H1d8wDVbx4cfnyyy+lZMmSUq9ePZOacjgP7du3N3P+IXg2YcIEGTduXFDnLBgnTpyQPn36SN68eYO61jp27KjBnWHDhpkU3zyt29M5fvvttyVLliy6/k8++UQeeughsyR23HfffTJgwAAzR0TRjEEHIiIiChh+5O/atUs2bNggb775pjz22GPyxhtvyJYtW7SwbcuZM6d8/PHHsnHjRmnSpIkWBF3t3btXC2L79+/XJ/EocPtiv//w4cNai2DHjh1mSXLelvvanwMHDmgtBdQyQN5Q68AXPK1GUAFP1PF/NtSiqFy5shacn376aZPq3aFDhzTv27dvNynJ/fPPP3L69Gkzl1TDBPt35MgRadiwoUlN4isPf/31l+a3cOHCl7Xf7969u1SpUsXM+XfmzBldv+t++Tsn+J+1a9dq4MP1eNlw7lEjo23btpftX6Dn3fbzzz/LmjVrpHXr1iYlCdaL87ZixQrdf1codKMAnjt3bvnwww9NapJAto+A1nfffafn0T5H7vlAUAXHGTUXPJ0nezv2NYF0+/wPHjxYayTY6/Z0/sHbNeDpHCNo2LJlSw2CIADhKthjDt6ObyDXMPYZ1wauEbwX83Xr1tVl4G3djRs31s8PpBNRlEu8ka20fAXi9ddftxJ31RozZoxJiV2JX0pmiohiAe9ZchJ/1/uxY8esTJkyWVOmTDEp3nXu3NkqWbKk1aBBA6tEiRLWzTffbCUWEMxSy6pUqZLVoUMHXZZYwLCyZs1qJRbazdLL4f09evSwSpUqZdWoUcNKLCRaY8eONUv9L/e1P0899ZSVLVs2Ta9ataq+15Pz589bd999t5VYeLduu+02q3LlylZiwUeXrV692ipWrJjuxw033KD7sX79el3mSWLB0kos5Or2ypYtayUWAvW3TmJB0bzDsooXL24tXrzYzFnW7t279T3Nmze3mjVrZlKTeMuDv/OAYzVx4kQzdznkZ8aMGTr977//WrVr17a6dOliJRYM/R5z8HdcArlO/G3D1dChQ617773XzCXZvHmzniscz/r161sFCxa05s2bp8v87Z+/7S9btsxKLLhb1apVs8qVK+fxPMIDDzxgvfrqq17PE7aDaVxbVapUsebMmRPU+Qdv63Y/x7/++qtVpkwZ3V/ce/nz50+2nWCPua/j6y8Pa9eu1fNfoUIFq2LFiroMxxLrAV/rhgcffNB66KGHzFzqOPX7Pq3zHc5yXqTz5qmsy1fSi0GHCMMXDhHFDt6z5CT+rvf//e9/+n3sqzBt27lzp5lKKqy3bt3aGjx4sElJKtigUHPgwAGdX7FihZUxY0br999/13l3eD8KH0eOHNH52bNnWzlz5tR1g7/l/vYHhbSpU6eaOc/WrVtnZc+e3Tp+/LhJsazDhw9b586ds8qXL28NHDjQpFpWr169tPDo6bcOto8C33PPPafzeE+7du302AYSdBg/fnyy/Ng85cFfvt0LpO5wXBF0wHm57rrrtFBv83fMAzkugVwnvrbhDsGLkSNHmrmkY4tCbLdu3ZLt16FDhwLaP1/bR+AFBeZXXnlFl+F/OnXqdNl5xHby5ctnbdmyRec9nSdsB9eEa8Al2PMPntbteo6xjzVr1kx2HufPn28VKFDg4nUdzDH3dXzBVx527Nih2+nbt69Zalm9e/fW5Vu3bvW7bsB6sL+h4NTv+7TOdzjLeZHOG65Zvjy/2LyCiIiIAnLy5En9mydPHv3rC9qQL126VJtgYGSCxMKCVnt31aVLF63eDbfeeqv2D5FYQNF5T/D+xMKPTqNqNqq1JxZidB58LQ9kf/y58sortep34o9jre4NuXLl0tEwNm3aJI8//rimAZozYP2u1cFtaIqCUQPQNAXSpUsXVF8CaDpwzTXXmDnfQpHv1atXyy233KJ5GjFihElN4uuYB3JcAr1OfJ13V+hn4uqrrzZzItu2bdP9R38eaNoA6dOn16YUgZ43b9vfvHmz/PHHH9oJJeA8on8Id999953uU5kyZUyKZ+iUFdeYP8Gcf3fY3++//15HVkFzBryKFSsmp06d0iZTtkCPua/j6wvykFgQ0e27Hv8hQ4boXywLZN04ruHs/JOIQoNBByIiIgoI+gQAFFz8adGihRbg0L4chYQcOXJoe3VXBQsWNFNJChUqpG3AvXEtkGXJkkX/2oEQ8LU8kP3xBwW9zz77TNu5V65cWUqVKiWzZs3Sfc6QIYPkz5/fvPPSsfJUUMMwltg+XjbkPRxCkW+MVIL/vfvuu03KJb6OeSDHJZD983feXaFQet6lM070Z4F98HR8Az1v3ra/f/9+yZ49u2TNmlXTIF++fGbqEowMgXz6E65rwNXOnTu1AI8Az6BBgy6+atasqQV9W6DH3Nfx9ce+1+1jDlgP9g/HP5B141zjnBNRdGPQgYiIiAKCJ7XoLPKDDz4wKZ7hCeXChQu1gzf0uo8hJFFAd+feeSTmU/oE15dA9gcFHctCLV/f0HkdamOgkIyaCuj9H7U18ITe9YmrHZjxlB883ceoD+j4z+apI00UaF0Leujgzxf3PAR6HvzBkKg1atSQBg0a6EglgULefR2XUO2fKzy1dw1cFS9eXPfB0/H1t3/+YN04j64BCtRicbdgwYJkQYdAr7Vgzz/4Wzf2GcGFyZMnyxdffJHshZFXguXr+IKvPNjH2PV/MY39wzJ/6wYce5xzIopuDDpEWEo+0Iko7fCeJScJ5Hp/9dVXZcqUKfLSSy9pD/eAqtcYgnLmzJk6j6eTKDjYhQVUY8eQhO6wHjzNBAy3iSYLGPIv1ALZHzxtxcgHrk973eH/7UJlpkyZpGrVqvr+kiVL6jSaHqDAh6evw4cP1yYJrk9xbQjcYDQBVBsHjO7w4osv6rSrG264QWsZYJ1o1uHpPa7c8xDoefAHBVmcK1wfGJnDtVDvy7XXXuvzuIRq/1xh3T/++KOZSyoUY5/79+9/sfBrNxXwt3/+YN0YKhbBJwSQkA/35ie//PKLBiYwbKUtkGsNgj3/4G/d2GcEj/r16yfHjx/XNKwfo7G41hAJlK/jC77ygOBb7dq19T7A/uKF4BOOFe4pf+uGH374Qc9XKDj1+z6e883fcNGDQYcIw4crEcUO3rPkJIFc73hiiyYFeFKKqvCo+owq5Rjmr1q1avoePHnE0JooPFx//fU6RGX79u11mSsM2VenTh2tQdGhQwcZN25cQIW9YAWyPwMHDpRFixZpVXnX4fpcIUCCauhFixaVChUqyF133SVjx47Vtu8zZsyQVatWaZMRDP+IAvTUqVPNf15u0qRJOlQj1lWiRImLx87VM888I19//bUWzpCHihUrmiWeuech0PMQCPRXgKEV77jjDu1/w1NfFe7wP76OSyj3z4b/RwEaBX3b9OnTtWYK2v+XLVtWC7MomPvbv0BgiE0U3rFO1IJ54IEHdL120xk0rUAgDWm2QK41CPb8QyDrfv/997UQjzyXK1dOm1KgYO8vCOKNt+ML/vIwbdo0Wb9+vR577A+GzsT67OPla90IYiCv+OxwhyZMqJEVTFMip37fx3O+nXpOo1G6xA8Y//W7wsj1Q9gbjP+NiCw6bvLUQQ8RERFFHgrhKNyhMOHart2GJ+IbN27UQiqeartCnwjoQO7ee+/VavYolKBTxnDytT+BwtNgtItH7QTk227vbsNTWPy2QQHKHxSaUMhFoAX9GXiC6uXbt2/XQllKj8++ffu04IamC2nV/t3XcQn1/rVp00afkPfu3dukJEEBFIVRBHqyZctmUpOgs0dsG0Gl1EBADtf1jh07dB7rGzp0qNx55506H6xQnH9vcO8ieIR12x26poa34xtIHnBf4vooX768SUnO07pRswo1Y9ARqScIJqFzTtRG6dy5swa3KPrEUzkPNXrIM9Z0ICIiohRBoABPHz0FHAA94qPne/z1JnPmzFrQCHfAAQLZH39QMEXNhOuuu+6ygAOg5kcgAQfImDGj5t1bwAEQHEFNkNQcH3SUiP1Nyw73fB2XUO8fqvD/9NNPZu4SjLqC69U94ACoFZCSqtjorwFNjj7//HMdgaNPnz7aMaYNtUNQAyKlQnH+vUFtDNR0CEXAAbwd30Dy8Nprr8n48ePN3OU8rRtNK9Csyxucz4kTJ2rnr61atbo4H0ztByIKDQYdiIiIKCzQ7AJV1T0VzlHbIJDO+kLJ1/5Q/EBfDShcBuPll1+Wt956y8wFDoVp1PhBMwH034BmR+gQ04a+OxBcIt9QI+G+++4zc4FBwAE1pnxBMOmjjz7Sc4BOQnGOcU5QCwZBCyKKDDaviLCEhAS2LyKKIbxnyUl4vRNRPFq5cqWONHP69Gmdx6ga6AwWtYwQ8EAzLzTxcOLnX1p/7oeznBfpvLF5hXcMOkQYorLoNImIYgPvWXISXO+oKk5E5CToDBbNYNAxrNOk9e+ccJbzIp03Bh28Y9AhwliAIYotvGfJSXi9E1E8QqeSnTp1ujhMKKCZFWo69OjRQ0fAQNMYJ37+MegQOgw6eMc+HYiIiIiIKC65BhzQqSX6d2jQoIGOfrF27Vp5+OGHtaNKIgofBh2IiIiIiCjuIODQrl07OXHihA7ZOWjQIFm/fr188MEHHEKTKIIYdIiwlAzHRERph/csOQmvdyKKFwg4dOnSRUewmDdvnt9aDU79/IvnfPM7LXow6BBh7BWcKLbwniUn4fVORPFgz549sm3bNvn+++8DrtXg1M+/eM43v9OiB4MOREREREQUN9CUAp1Dsq8GougQU6NXtGzZUv7zn/+YVCIiIiIiIopVK1as0OYv8TBKIUev8C6mgg5EREREREQUXxh0iG8xEXTYuXOnzJ0718zFtj/++ENKlChh5ogo2vGeJSfh9U5ETuXUz79oyXerVq2kaNGiZi40EhISItqvA4MO3sVE0CGejB49WgYMGGDmiCja8Z4lJ+H1TkRO5dTPv3jOd6TzxqCDd+xIkoiIiIiIiIjCgkEHIiIiIiIiIgoLBh2IiIiIiIiIKCwYdIiwWrVqmSkiigW8Z8lJeL0TkVM59fMvnvPN77TowY4kiYiIiIiIiFKBHUl6x5oORERERERERBQWDDoQERERERERUVgw6EBEREREREREYcGgQ4QlJCSYKSKKBbxnyUl4vRORUzn18y+e883vtOjBoEOErVq1ykwRUSzgPUtOwuudiJzKqZ9/8ZxvfqdFDwYdiIiIyJGOHDkib731lowaNUr27NljUomIiCiUGHQgIiKigH300UeyZMkSM5cyrVq1kpkzZ1427U/Tpk1l3rx5Zi71zp8/L3fffbcULFhQgw+pkdp9C+Y4xBsn552IyAkYdCAiIqKAvffee7Jw4UIzlzK7d++Wo0eP6nT16tWlSJEiOu3P33//LceOHTNzqZc3b145c+aM5mfw4MEmNWVSu2/BHId443o9EBFR/GHQIcJq1aplpogoFvCeJSdJyfW+d+9eOXHihBw+fFi++eYb2bFjh1kSmO7du0uVKlXMXJILFy7Ib7/9JitWrJBdu3aZ1EuC2RbWs2zZMvnpp5/k7NmzJlXkn3/+kdOnT0uJEiVk9uzZkjVrVt0Wmlw0bNjQvOtyqdk3bH/dunWydu1a3Tbm69atq8s8HQdX9nE+dOiQLF++XPbt26fpf/75p+7Lxo0bdd/88bX/CMBg37CPrscKAjnP3o41+Fq3J6iFsmbNGvn+++9DGmgi8sap3/fxnG/+hosiiV8+Vlq+iIiIKHbcfvvt1qOPPmrmLKtSpUpWjx49rFKlSlk1atSwsmTJYo0dO9Ys9Qzvmzhx4mXTsHnzZqty5cpW8eLFrfr161sFCxa05s2bp8uC2VZiodW6++67rcKFC1u33XabrrNx48ZmqaXrX7x4sZmzrN27d1uJP4us5s2bW82aNTOpyaVm3xIL3FbJkiWtChUqWBUrVtRtVatWTdcD7sfBHdbfuXNnzU+VKlWsOXPm6DzW2aBBA6tEiRLWzTffbO3fv9/8x+V87f/q1autYsWK6XZuuOEGzcf69et1GfjKn79j7W/d7nn/9ddfrTJlyljlypWz6tata+XPnz/ZuSIiikaeyrp8Jb0YdCAiIqKAeQo6oJB55MgRnZ89e7aVM2dOLYh641rIdJ3G7wIUxLt163bx/8+dO2cdOnRIp4PZ1rp166zs2bNbx48fNymWdfjwYTPlPegwfvx4a+fOnSb1ktTsG/4Xy/r27avLoHfv3rq9rVu36nwgQQcUwl2DCq77ie20bt3aGjx4sElJztf+42/58uWtgQMHajr06tVLgxv2bzVf+fN1rANZt/s1ULNmTWvo0KE6D/Pnz7cKFCiQbP1ERNEGn198eX6xeQURERGlSpcuXSSxAKrTaJqA9vlopx+sbdu2yerVq+W5556TK65I+omSPn16yZ07t05DoNu68sortRr/mDFjtNo/5MqVS//6klhwl2uuucbMXZKafUNTBDQtePzxx3UZDBkyRP8m/hjTv4Ho2rWr5suGPiCWLl0qb775powcOVISC/jaJMETX/u/detW2bRpU7L9e+KJJ3Rdrk0wvOXP17EOdN22P/74Q5tUNGrUSI8ZXsWKFZNTp07Jhg0bzLuIiCiWMOhAREREqeJaEM6SJYv+PXnypP4Nxl9//SUZMmSQQoUKmZTLBbotBA4+++wz7X+gcuXKUqpUKZk1a5ZZGrzU7Bv6j4DChQvrX8B6UPgPJjjjvu0WLVpoAf7gwYMaPMiRI4f2+eCJr/3H/mFZ/vz5TcqlfXXdP2/583WsA123befOnXpcEEQZNGjQxVfNmjWDCtAQEVH0YNAhwhISEswUEcUC3rPkJGl9vRcvXlyf1qNzxFBo3LixLF68WAvljz32mHTs2FGfzkP27NmTBSvQUaIvqdk3u+aE6/9iGoVoT7UqAoGaCxh1Ax1CDhs2TB555BEt7Hvja/+xD1iGEThsqHEAge6ft2Md7LqxnzgukydPli+++CLZi53CUTg59fs+nvPN33DRg0GHCFu1apWZIqJYwHuWnCStr3cUOOvVqyf9+/e/GBDw1nzCHxSut2zZotOZMmWSqlWramE2Xbp0mnbDDTfI3LlzxbIsbRrw4osvaro3qdk3NIOoXbu2Nm3APuCFQAGGySxZsqR5V3BQewDrsYMIaMYwYcIEnfbE1/5fe+21enxGjBihx+P8+fMyfPhwueWWW5LVzvDG17EOdt3YzwYNGki/fv3k+PHjmob/w6gY+F+icHHq930855u/4aIHgw5EREQUNaZPn65Py6+++mopW7asFkJ//vlnszRwaE6AKvlFixaVChUqyF133SVjx47VJgjwzDPPyNdff60BAfQZULFiRU33JTX7Nm3aNFm/fr0UKFBAChYsqENHYn12ECRY2OcBAwZo4OL666+XJk2aSPv27c1Sz7ztP/ZhxowZ+gMd+4Z9RBBj6tSp5j9983WsU7Lu999/XwMjeH+5cuW0WQeCJQhkEBFR7EmX+AGO3pPTTEq/bGPV6NGj9UcCEcUG3rPkJGlxve/bt0+bOmTLls2kJEHfBHv27NGCrPuyQOHJOPoIOHPmjBbS7X4IbKj2v337di0IB9LJpC01+2bXjPDVN0QwcPwQSEDTCnQMGQhf+4/9w28zFPiD4e9YQ7DrPnbsmHY2ifOTN29ek0oUHk79vo/nfEc6b6iVRZ6xpgMRERGlmWbNmsmHH35o5i7JkyePPo1PacABUAgvUaKEXHfddR4LwWiiUKZMmaACDpCafUOwIVQBB0AHjchfoAEH8LX/2LdgAw7g71hDsOtGTQnUdGDAgYgotqUfNmzYcDOdJpxW0wHwZIGIYgfvWXKSSF/vKIiizf9VV11lUoiI0oZTv+/jOd/8DRcd2LyCiIiIiIiIKBXYvMI7Bh2IiIjoolBW/Q+3QEaOICIiigQGHbxj0IGIiIhiDoIjDDoQEVG0YNDBO3YkSURERERERERhwaBDhCUkJJgpIooFvGfJSXi9E5FTOfXzL57zze+06MGgQ4StWrXKTBFRLOA9S07C652InMqpn3/xnG9+p0UPBh2IiIiIiIiIKCwYdCAiIiIiIiKisGDQgYiIiIiIiIjCgkGHCKtVq5aZIqJYwHuWnCTY6/3QoUPywQcfyJ49e0wKEVFscur3fTznm7/hoke6CxcupOmAounSpTNTREREFAt++OEHmT59uixdulSmTJmSJj/sChUqJLt37zZzREREacuy0rRYHdUYdCAiIiK/UKvhk08+kffee0+2b98uV1xxhdZyuPXWW807IotBByIiiiYMOnjHoAMRERF5ZddqWLx4sVx11VVa0EfAYcaMGWkWcAAGHYiIKJow6OAdgw5ERESUjGuthiNHjmjavn379G+mTJnSPOAADDoQEVE0YdDBOwYdIiwhIUFq165t5ogo2vGeJSfB9X769Gm57777TEp0Y9CBiELFqd/38ZzvSOeNQQfvOHpFhK1atcpMEVEs4D1LToLrvX79+rJp0yZ55JFHJG/evJI+fXqzNKmWQ+7cuWXOnDla4E/rFxFRqDj1+z6e883fcNGDQQciIiJKJk+ePPLUU0/Jxo0bZebMmVKtWjUNPpw5c0aOHz8uXbp04Y85IiIiCgiDDkRERORVnTp1ZMGCBfLzzz9r7YecOXNqPw/t27dn4IGIiIj8YtCBiIiI/HKt/YBOJm+66Sbp2rUrAw9ERETkE4MOEVarVi0zRUSxgPcsOUmg1ztqP8ydO1cDDtu2bZM9e/aYJUREscmp3/fxnG/+hoseHL2CiIiIiIiIKBU4eoV3rOlARERERERERGHBoAMRERERERERhQWDDkREREREREQUFgw6RFhCQoKZIqJYwHuWnITXOxE5lVM//+I53/xOix4MOkQYhxYjii28Z8lJeL0TkVM59fMvnvPN77TowaADEREREREREYUFgw5EREREREREFBYMOhAREREF4MiRI/LWW2/JqFGjZM+ePSY1ZfD/7733npw/f96kEBERxaf0w4YNG26m00S6dOnMlHMULVrUTBFRLOA9S07i73r/6KOP5J9//pFSpUqZlPBq1aqV/laoUKGCx3lfmjZtKtmzZ5dy5cqZlNQ5ceKElClTRgMGX3zxhTRo0MAsCV6OHDlkzJgx8uOPP0rDhg1Nasph3x566CF58skn5bPPPpNOnTolO1bBHDdPUnoeQn0OImn37t2ax0yZMpmUtJeSfYrGfEQrp37fx3O++RsuOrCmQ4TVrl3bTBFRLOA9S04SyPWOp/MLFy40c+GHAtPRo0fNnEj16tWlSJEiZs63v//+W44dO2bmUi9v3rxy5swZzf/gwYNNaspNnDhR1q1bJ1999ZVJSbnJkyfruhYtWiQffvihprkeK/fjGKyUnodQn4NIatasmcyePdvMRYeU7FM05iMaOfX7Pp7zzd9w0YNBByIiIgoZ1II4ffq0mRO5cOGC7Nq1S5sm4Im++3I0L8Byy7JMim/du3eXKlWqmLkk2MZvv/0mK1as0HW5O3z4sHzzzTeyY8cOk+Id1rNs2TL56aef5OzZsyb1Ur5KlCihBbisWbMmy5erQ4cOyYEDB8zcJSiAnzp1ysyJ/PXXX/LEE09I4cKFNQ/uEOBYu3atBhNc98Xd/v379X1ly5aVjBkz6gs8HStXOPZr1qyR77//PujAgPu6Q3kOXPk7H7ZgryNv1q9fL999952eP2zv4MGDut59+/aZdyTxdez27t2rNU+85XnJkiWydetWMxc4T/t08uRJvY5c4RrDcpwTf/kgIooEBh2IiIgoZGrWrKmFRBsKYKjeiur+qGZ/8803y7fffmuWJj1Bx3IU0AKBp7b2k3zYsmWLVK1aVW677TZ59tlnpVq1ajJ//nyzVLTQh+UDBw7UQvm4cePMkuRQQLvnnnukXr162mdD165d5a677jJL/efL1Zw5c6RWrVpmLsnGjRulWLFiGpCALl26SP369WXEiBFy5513So0aNZIFKtDsAk05OnfuLB06dJDy5cvLhg0bzNLknn/+eW1S8d///ldatmwpH3zwgaa7HytXmzdv1nVi3Qh8XHvttdpkJFCu6w7VOXDl73yk9jpyhUL7K6+8IpUqVdLt/fnnnzJ69GgNDLz55pt6TLHvNn/HrnHjxvLYY495zfPPP/8sN910k14jSP/333/NEt887RMCL3Xr1pU33njDvEukTZs20rdvX7niiit85oOIKGISP9SttHwRERFR7Lj99tutRx991Mxdrnjx4tbixYvNnGUlFgbx6NkaP368tXPnTqtIkSLWkiVLzFJL07D84MGDJiW5xMK4NXHiRDOXfB6/IxILuFa3bt2s8+fPa9q5c+esxIK9TicWIq3KlStbR44c0fnZs2dbOXPmvPheV+vWrbOyZ89uHT9+3KRYVmIB1kz5z5crbC9btmzWqlWrTIplJRb2rKZNm5q5pHzbsD+tW7e2Bg8erPPIQ2KhVv/H1qtXL6tKlSpefzs9/PDDVs+ePc1cEtdj5X7catasaQ0dOlTnYf78+VaBAgWS5d+Vt/MQynPgyt/5CPY6cof9mTp1qtWwYUM9Vzj+c+bMsRIL8eYdllW1alV9j6tAjl0geT527Jj1/vvvW3fccYeVNWtWq1mzZtbMmTOtkydPmnd45mmf/ve//+mx+uGHH6zRo0dbJUqUSHYcPP0PEYUePh/48vxiTYcIS0hIMFNEFAt4z5KThPN6TyzUyTXXXGPmQmPbtm2yevVqee655/SpLqRPn15y586t04AaBYkFPp1GMwj0S4Cn4u6uvPJKrYaOzh1RpR9y5cqlf33xlC9sD+no/wISC5uSWMDUfbGhP4SlS5fqE+iRI0dKYkFdq+sDnkxv2rRJHn/8cZ0HPFHHclSRT60//vhDmwU0atRIm2XghVoYqJbvrTaFN6E8B65Sej4Cgaf/BQoUkGnTpkm7du202cunn36qnWP662wx0GPnL8+oHYOaEosXL9Z1Yn2obVGwYEG9VoKB/jVw/LH/zzzzjMycOVPy5MljllKgnPp9H8/55m+46MGgQ4StWrXKTBFRLOA9S04Sa9c7qsVnyJBBChUqZFIuh8KrLUuWLPoX7eDdIXCAJgpoClC5cmUdnWPWrFlmafDQLOLjjz/W6u9ow49CafPmzc1SkRYtWmggAW3tUUDHaBZ20wv0V4B85c+fX+cB/T6Av8J6IHbu3KkBAgQ7Bg0adPGFJiQXPPQt4Usoz4GrUJ8PV9hXHE/0tbB9+/bL+kTwJdBjF0yeXfcDAYx8+fKZJYFDkwr014BmGwhCUPCc+n0fz/nmb7jowaADERERhQye4LoWrtD3gSt/y4NRvHhxrSGANvihgLb4ePKMQADa5Hfs2FGfUEOw+43hNPFkHn0boMZD+/btLz5FR+0AjICBTheHDRsmjzzySLIhSFHgRr7wBN6Gp+EQitoiOG4oIGPEC/RF4Ppy74vCn1CfA1ehPB+u7rvvPq1Ngr4vsO5bbrlFAxsvv/yyBhVsCC5Ybh1ThurYofYG+r+47rrrNBiF2iHIKzqyvOOOO8y7Ludpn1CTBrUm0AcGzsPbb79tliTx9D9ERJHEoAMREREFBU/t0fmd6wsFH7jhhhtk7ty5WshB9fgXX3xR0232csDoDC+99JJOpwQKgOj4r3///hcLoIFU3fcEhTV0iAgIDqATQBQu06VLp2n+8uUO/4dOJseOHauBB9R8sKFmANZtF9RRAJ4wYYJOAzomxPbRySS2h2M7fPhwLRzbNR5SA8cNQZF+/frJ8ePHNQ3bQUeZ9nkMVCjPgatAzwek9DpCkAAFdOwrju///vc/DQKgyQvgWKPTR2zXFopj9+STT+rIHzjvuD4Q6Hj11Ve1I0t3CFi99tprZs7zPmHfMYLJpEmT5KOPPtLOIjHiic3T/xARRRKDDkRERBSU8ePHa9V/1xf6IAC0Kf/666+1zwJUFa9YsaKm21BAwlNhLEcBzlNBKxjTp0/Xp9VXX321jhKAdaKAFSxUbUcVeYyAUKFCBR0pAQVCNHsAf/nyBIEGjLCAIAJGW7Dh/wcMGKDV4K+//npp0qSJ1oSwoWA9Y8YMrRqMNv7ofwAF1KlTp5p3pB76DUCQAOsvV66cNgdA4CAlBdNQnQNX/s5HKK8jBDUwsgP6dUDtEozCASi8L1q0SIdHxQgRttQeO9RKQBManGPU5kAtB29w/WAfbO77hH5B0O8Fmp4grU6dOvLUU09J27ZtLw7l6S0fRLFiz549WjPJboJGsSdd4gdkmta3siPWToEOTWrXrm3miCja8Z4lJwnV9Y7q9mijjsKyp87/7OUotNmd7QUK7dZRtT5btmwmJQl+jOKHKQqp7ssChSfVeOqMJ+cIDNht8W3+8hUs5AWFdTSt8FbwxFN4/FbCsQoHFEzROSXylDdvXpOaMqE4B64CPR8puY5CIZTHjtKeU7/vYyXfCMJ269ZNaxrdf//9AfVdEum8odYTecagAxEREcUMPP3u3r27voiIyDmWL1+uAQcEJBGsRRO2e++9N2pGa2HQwTsGHYiIiChmoANGtLsvU6aMSaFYhSYUGE7SEwz/OGrUKDMXuHCsk4iihx14yJgxozavQm2w22+/PeDaD+HEoIN3DDoQERERUcShD4QjR46YueTQz0JKmmiEY51EFF3swAM69YWSJUtqB8fo8yUtaz8w6OAdgw5ERER0UaFChcwUERFR7EBnqejkFcEHjAhUv359syQyGHTwjkGHCGOndESxhfcsOQmvdyJyKqd+/sVivu1OJdHEYu/evSZVtCZTs2bNZMiQITqqUqTzxqCDdxwyM8JwkxBR7OA9S07C652InMqpn3//396dwNlU9w8c/yqUfSmyRqTwPJZ/8fQwhBh7SI89mpkiWv8i5EGUvccaUSFLtlEiFf4koVFITUW2mWIsZc3SQ0bT/35/87vNjJkxd8Y9M/fe+bxfr/u69/c75545P879nXO+57f4W7l1fzXgoF2pNOCgD7B1ql6dyjkqKkomT55sAg7udeEbCDoAAAAAAHyaBhG6detmpufV8Rw6deokkZGRZoyHNm3a2LXgiwg6AAAAAAB8lgYcwsLCpHLlyjJz5sxkrRrg2wg6AAAAAAB80i+//CLR0dEm8PDxxx/TqsEP3fjSSy8Nt5+zRHacvaJs2bL2EwB/wG8W2QnHO4DsKrvWf75ebp2Nonr16nLzzTfbHM9xTvMNzF4BAAAAAMB1YPaK1NG9AgAAAAAAOIKgAwAAAAAAcARBBwAAAAAA4AiCDpksIiLCfgLgD/jNIjvheAeQXWXX+i+Qy805zXcQdMhkOtULAP/BbxbZCcc7gOwqu9Z/gVxuzmm+g6ADAAAAAABwBEEHAAAAAADgCIIOAAAAAADAEQQdMlmdOnXsJwD+gN8sshOOdwDZVXat/wK53JzTfEeOuLi4P+3nLJEjRw77CQAyLjw8XKKioiRnzlw2x7dp1VehQgVp3769zQFSFxsbK2+//bacPXvO5vi/QoUKSmhoqOTK5R+/WQCZLxDrPreM1IF6rXPgQJTP15vZtWx//pmlt9U+jaADAL+3ZcsWOXLkhAQFPeCq8G2mH9i0aZ2UKXObNGhQ3+YAyV2+fFmGDBkmnTs/JsWKFbe5/u/EieOyZMlsGTnyZcmdO7fNBYB4gVr3uZ08qXXgHHnllREe1YGbN2+WmJjjUr9+E5vjuwK5bKdPa9nelhEjhicrG0GH1NG9wkt27twpp06dsikAmWnz5s+lTp1GfhVwUHpy3bhxs00BKXv77bnSqVNYwF10a3m0XFo+ALhaoNZ9brfeGl8Hzp3rWR24ceMWqVevsU35Ni1b586BWbaiRYtL165hMm/ePJsDTwRk0OGnn36SHTt2yLlzSZtiXbhwweRfuXLF5njPp59+Ks2bNzdR2ZRMnjxZ5s+fb1PpN3bsWFm6dKlNZcz17gPgqzTY4I+tpnSfCYojLadP/yrFi99mU4FFy3XmzK82BQAJArnuc9OAypkzZ23q2vztWkcDD7/+6lnZ4uL8q2yFCxeTs2c9KxviBWTQYfjw4VK7dm3p16+fzYn3zTffmPyTJ0/aHO/Rv3XfffdJ//79bU5SX375pURGRtpU+q1fv16+/vprm8qY690HwFdx445ARi9EANlRdqn7PC0n1zq+hSEC0idgu1cULVrUDDyzd+9em+N9H330kXz++ec2JTJlyhQJCgqSS5cumfQHH3wgW7duNZ8XL14sEyZMMJ8zm3s/snIfAAAAAADZT8AGHbRFQ8OGDWXIkCE2J7m4uDgZN26cWbd+/fqm68H06dPlzTfftGuI/Pvf/zY37Ym98MIL0qtXL9m2bZts377d5C1YsECaNm0qY8aMkUaNGpmuENqy4KuvvjLL9WZfgyDXsnr1amnTpo3UqFFDGjduLDNmzLBLEui+1a1bVxo0aJDi9nQ/9Ls1a9Y008Qk3g9P9gEAAAAAAG8J6IEkNQDw3nvvmXEcUvLyyy+bsRJ69uwpgwcPNi0BRo4caYIJbmvXrpXdu3fbVDxNv/XWW/LOO+9IcHCwCQToNlq0aGG2d/PNN0vnzp1l6tSpJgCgdFRWdwAiJbNmzZK2bdtKtWrVTHDg8ccfl4MHD9ql8RYtWmTGjhg0aJAZP0LX+eSTT+zS+IDEtfYjrX0AAAAAAMCbAjrooC0Y2rVrJy+++KLNSfD777/LxIkTZfz48abVgt6oL1++3KNBJosUKSKPPvqoREVFSdWqVWXo0KGmRYWO56DBAA0EVKpUSfr06SNVqlSx30qdzkE8cOBAs41Ro0ZJkyZNpEuXLiZwkFjx4sVN4EFbQ2iZNODx/vvvm2U6Rcv17gcAAAAAAN4U0EEHpTfx2jogcYsA9eOPP8r58+dNFwy3PHnymEBFehw5ckSOHz9ubvLdbrjhBhMQ8HTgxz179sjp06dNgORa6tWrl2TQkgoVKsixY8fMZ2/sBwAAAAAA3hTwQQd9wt+9e/dkrR20dYHKlSuXeXe7Op0SbVXg9ttvv5n3vHnzmnc3TbuXpcU98OTV27iadpdITIMKf/zxh/nsjf0AAtXhw4fk22+/lhMnfrE5Cc6cOW2W/fhjlM3xzOzZM+S995bYFOAbrlyJlR07vpD33w+XdetWy/79e+wSAAg87vO7vnbv/l7Onk06BW92Oldf/W9x5MjhJPcsifnbv0tU1D5XeWJsKsGvv54x5U2tnG5Xl5druMwX8EEHNWLECNcB+a3r4HrP5sS3EsiZM2eS8R70Bl6n1UyscOHCrgM6aQUWHR1tP4mUL19ebrzxRvnuu+9sTjz9exUrVrSpa7vzzjtNAGHnzp02J/28sR9AoJo4cYy0bt1IBgx4zuYkGDPmJbNs2LABNsczX3+9w3VST/p7A7LS+vVrJCiohjzySHuZM2emTJkyXlq1aihNm9aVr75KGKsIAAKFnt/btQuW7t0fln/9q4VUq1ZeunZt99dDhq1bN7uu7bPHeGaJ/y06dWrtOh9Ul7//vZwMGvScnDp1wq4Vz9+uYZ5//klzTrvahg3/Z67hLl/+3aSHDOkvM2ZMNp8Tu7q82em48BXZIuhw++23S+/evZPMBpEvXz4JCwszgzLqdJIxMTGuA/p514/ylF0jXq1atUyw4uTJkyaKNnfu3L9mrFA33XST9OjRwwxKqV0c1Lvvvivr1q0zgzp6QseI0AEfdTDLXbt2mTwdW2LLli3msye8sR9AIKtUqbJs2rQhyYn34sWL8uGH78vdd6d/zJNp02bL0KGjbArIWlu3bnHV9d3kwQfbuy6komXVqg2uY/tT+e67n6RLl0dl/37npo8GgKxUq9Z9EhkZ7bqpjJFPPvlC9u3bI8OGDbRLsxf3v4XW/fv2HXPd+8yVHTu+dJ0bGpuWnW6Beg1z+HCM/PLLzzaVgGu2rJctgg5Kp77MnTu3TcXTWSKCgoLMVJc6xaR2X9AxELR1g5sGIgoUKCAlS5aUggULysqVK+Whhx6yS+O9+uqrUqpUKRPc0ACCdufQQSDvv/9+u0baZs6cKffee6+ZvaJYsWImKKLTeaaHN/YDCFSlSpWWf/yjjixfHm5zRD7+eKWUK1dBqlatZnMSbN/+hev330fatGns+s03k5Ejh8i5c2ftUp0tZpqEhy+0KZHXXvuPq354VxYtmutav6l06NAyyXLASdpiR4/vIUNGJumKd9NNN0to6BPSuXN3m5P2se0+lufPn2Wemj38sA5MvMYE3rVJqn5PnyRGRGy230iwYcNaCQnpJC1a1Jc+fULk++8j7RIAcJ4+YHjooQ6ybdtWm5NUWvWfPjlPqeXjokXzZOrUV23q2nWd1qErViwzdaj+jRdeeNouyVy5c9/kugd4QBYvXimnT5+UN954zS5Jfg2jPv10nYSFdZZmzYJc54w2smDBbLsknq/X77q/u3ZFysaN6+Wpp8LMyx2ASKm8ie3d+4M8+6zOAHi/Oe/17/9Uil1ykXEBGXTQ1ghr1qyxqXh6I3/u3Dlz0VSiRAmTlz9/fpk3b54ZUFJbOIwePVoiIyNNdwc3nTFCp5ncu3ev6FSZOlvEsmXLzN9wu+WWW0yLgkOHDsmmTZtMq4gBA5JWWCtWrJBp06bZVHIa2Fi6dKnrAD9hBr3U6TJXrVpll2qz2fXJZrPQ7el23dLaj7T2AQh0HTp0df1+E0464eHvSMeOXW0qqcjInVK58t9cFwtDXCfX52Tnzh3mZOy2bVuEfPddQncsvQHTGz99f/LJvtKwYRPX7+8Z+fzzz+wagDNOnz5lmom2bfsvm3NtaR3begyPHj3MbPPpp/tJjRr3SM+ej5jjed8+vTB7Qe64o6LrO51c586T9lv6e1poLvLuuy8++HHXXZWlfftm8sMP8S34ACAz6BN9fXiXkrTqP12mN6+Jm97rWDmvvjpSiha9xaTTquvcdai2rnzssd6uG9k2Jj+rFCt2mzRu3Fw++2y9zUl+DbN48XzXvnY15dcWAV269DCtBtz8oX7Xc1Xx4iWkfPmK0qpVW/PKly+/WXZ1eRPTrhkaZClQoKApu57jSpYsLRcuXLBrwBuyTUuHlOisDrNnz5bvv/9evvzySzMNpgYgdLrKxHTGCB0DomzZsjYnZaVLlzYtFVKr6DyhgYPq1av/FRjJCG/sBxCIWrZsa06iu3Z9KzExB+Wrr7a7btQ62KVJPf74k9Kr19NSv34jadq0pcyatdA8OdHBjFJzyy3F5LXXZklwcAvXyfl58901az60SwFnHDt21LyXLVvOvLvpGA/amkdfOrikmyfH9m23lZSJE2dIkybNzUVYsWLF5aefomXcuKkm7+WXx5unaO6gmnYJ1KDbgAHDXBfy/ytBQQ2kb99BprvH669PMusAgBPOnz9nWjBoN7Np0ybI8uVLpV27jJ3btVXkAw80Na0W3dau/UguXfqva5sdPa7rChQoJG+9tVBat37IbC+r3X57eTl6NL779dU0qKJlevbZ/q5yDZV69RqaIPaLLw63y/2jfq9e/X9MgKV8+TvM9Z6+9AFzWvTfRbvePvNMf6lbt775/+rXb7AJrsN7snXQQcdBCA8Pd/2w2pqAg/6odHyHQoUK2TUABBJtdt66dTvX736RLFu2yHViCf7rycXV9AnuuHEvS+fOD5qB+Dp2bGUCkIcOHbRrJFe79j+TTGurJ/njx5P3LQS8SQciVnoOS0y7QkyfPkkGDnzOdSGecGHoybF9zz0J00frslKlyrjy/mFzxAxcXKJESdfxHd/8NCpqv9mujh0xadJYM6DZhAmjTdNWbR0BAE7Zt2+vPPVUqOtG8UnTRWDo0JHmaXVKPKn/und/TD744L2/nnQvXDjXPKDQG1hP67p//jMoyfVAVvvjjyuuejunTSV14MB+MwtEs2atbU5SgV6/lylzuxnbS1tuaAuVLVs2mkAMvCtbBx2qVq0qa9eudf2YomTPnj2yZMmSJF0rvOXAgQPy2mvTXJXcq+Y1fvx/XBeC000+gMzVoUM3WblymQk66OfUhIR0lB9++N50lZg6dZbMnDnPnLAvX75s10hO+88nlnhaW8Ap2sJBgwAHDiRthaP9eD/6aKMEBSUd18eTY/vqYzlHjhuuOW3zxYv/Ne96Ua4BfV03T5485qnRI4+EmWUA4IR7760t27b9IBEROlPdGgkN7W1mqEuJJ/VfgwaN5dZbi8uKFeFy6NBPpkVXt24hZpmndV3+/AXsJ9+g3SDKlbvDppL6/ff4qfu1HCnxhfpdu0n89ttvNpXgwoXzkitXbvPKKD1WVqzQcSD6munTe/XqLg0b1jb/9/CebB10cNrRo8dk2LARsn79ZmnSpJ107drLvLp06SnBwQ/Jpk0R8sorI+XYsWP2GwCcpq0RChUqLJcuXZJGjYJtblI6eJD2+xw2bLQZhKly5aquG6wbiXzDJ+mFoB6nS5cuSPMYderYLl++gglC1KxZy1zMJ37pU0MAyGqe1n/aQqFbt1BZuPBt08qhWrWa5qX8sa7TsQz06b229EyJu0ypDQzpC2XWgMnevbttKoG2vtBWpbp/KmfOG834femlXdL1/1y7xGzfvscEMd55Z45dCm8g6OAQHS9i+vQ3JCTkSWnVqn2yiGeePPkkOLit9OjRR2bNmuOqBBnhG8gsOqXW9u27U30Skj9/QdeyXBIRscmkNZKuo1n7UlNJIDFtTnz06GEzENiePfEXZnrhFR19QGJiDpm0curYLly4iOnvrE1TEw8sduDAXnOxCwBZLT31X6dOj7huaPfJ3LlvmJtRN1+v6/SBio6/o3W/juUzZcp4V1keNLMbde+ecqsEfRDTps3DptuJTjeqtLuejpOhfKHMOrClBhhmzJhiBn6Mi4uTzz77RN59d9FfrVBU6dK3y7fffiMnTx43LSM8CUAcORJjtqXbVLGxl00gqkiRoiYN7yDo4IAjR47KsmUrpXfvvmk297nhhpwSGvqMrFr1IS0egEyiFx36So02Gxw2bJS89NIguffeu6V27cqmuWVqTQ+BrHbnnXeb5qF6odi8eT1X+japWLG4BAfXNQOjDRw4zKzn5LE9evRE04+5VasGUr36HVK5cilp3765HDz4o10DALJOeuo/He+pZcs2puvF1TMD+XJdp7Nu3H//PdK48X3y+OPdZOvWzTJ48AhZuHCFGfw3NaNHTzKtOYKD60jNmhXl7rtLyeuvT7ZLs77MOkjkqFETzMCVd91V0rxCQzu79qGzhIT0tGuJmS1Eg0hBQTWkSpXSEh293y5JnU4i0LdvH6lUqYSrjH+TWrUqu8pX1bXdJ+wa8IYccXFx6W+D4kWB+ORw8OBhrh/6M+nsX3RF5s59XYYOHWrTADw1atQ46dGjt015j46IraMaly5dJllrJW+ZPXu6DB8+2KaA5MaOHS/dunl+8eM+brWZqY73kNKFppPHtg6+dvjwITMVdIkSpcx4E9eycOEbMmhQ8nnxAWRv6a37POVp/aeDTWpAd+TI/9icpNJb16Vm8eI3ZcCAlAe+TGzEiDESFvakTTlDpxv9+edjcuutt5qZIK6W3jJ7u2waWD94MFpiY6+YbhV58+a1S66fzgR19uyvZpBkbd2RlvDwWdKvXz+bipeRrh3ZBS0dvGzXrj2ui7wKGRjQJKeUK1dB9u9POyIHIHPonM06orGvDQgFXIv7uK1Y8a5Un2w5eWzrGBP6lKh06bIZvggHAKekVf/pTbVOmalTaT72WB+bm1wg1nXapaBKlb+lGHBQWV1m7Rar5zbdB28GHFTJkqXMdj0JOCD9CDp42dq1/ycNGzaxqfSpV6+xrF+/3qYAAAAAZKaePR+RN9+cJmPHTpE77qhocwFcD4IOXnb+/G8ZfnKUO3de+e9/46elAQAAAJC5Vq/eJBs37pCOHVOfVhtA+hB08LLr6cuj36UvEAAAAAAgUBB08LLrHReTKfkAAAAAAIGCoIOX5cuX38z7mxGXLv3m9UFRAAAAAADIKgQdvKxp0yaycWPGBoPcsmWDNGmSsUEoAQCBiV53ALKj7FL3eVpOGkP7FrrEpw9BBy+rVq2qHDwYJbGxl22OZ65ciZWYmGipVKmSzQHgqRtcNZk/Vv66z1xEIC1FihSW48d/sanAouXS8gHA1QK57nM7cULrwEI2dW16veBP1zonThyXwoUDs2xnzpyQQoU8KxviEXTwMv3R9O7dy0y1kx7z5s2Qnj172hSA9KhfP0giIjbYlP/47LN10qBBfZsCUhYWFiJLlswJuItvLY+WKzQ0xOYAQIJArfvc9KZcyxcS4lkd2KBBPdm82T+m1teyLV3qedkaNqwnmzb5R9lOnTouixbNkUcffdTmwBM54uLisjSsFKgDJ37xxQ5ZuXKV9Oz5tOTKldvmJqctIjTg0L59W6lRo4bNBZBey5cvl+joaPGXQPnly5elUqU7pWPHjjYHSF1sbKzMmTNHzp3L2JhBvqhgwQKum4ow1zkyl80BgKQCse5zy0gdqNc6UVHRNuW7ArlshQoVlNDQ0BTLRpeL1BF0cNDBg4dl5sw3pUyZ8vLAA00lf/4CdomYwSb1KefPP8fIE0/0lJIlS9olAAAAAAB/QtAhdQQdMsHu3Xtl9eo1cvHiRdmz5wepUqWq5M+fV1q2bGGedAIAAAAA/BdBh9QRdMhkEyZMkH79+tkUAAAAAMDfEXRIHQNJAgAAAAAARxB0AAAAAAAAjiDoAAAAAAAAHEHQAQAAAAAAOIKgAwAAAAAAcARBBwAAAAAA4AimzLwO4eHhEhMTY1OeiYiIkLp169qUZ8qWLSsdO3a0KQAAAACAL2HKzNQRdMhkEyZMkH79+tkUAAAAAMDfEXRIHd0rAAAAAACAIwg6AAAAAAAARxB0AAAAAAAAjiDoAAAAAAAAHEHQAQAAAAAAOIKgAwAAAAAAcARBBwAAAAAA4AiCDgAAAAAAwBEEHQAAAAAAgCMIOgAAAAAAAEcQdAAAAAAAAI4g6AAAAAAAABxB0AEAAAAAADiCoAMAAAAAAHAEQQcAAAAAAOAIgg4AAAAAAMARBB0AAAAAAIAjCDpkoosXL8qOHTvMOwAAAAAAgY6gQyaJi4uTMWPGyNChQ827pgEAAAAACGQEHTLJpEmTpHv37lK1alXzrmkAAAAAAAIZQYdMMH/+fKlTp45UqlTJpPVd05oPAAAAAECgIujgsLVr10r+/Pmlbt26NieepjVflwMAAAAAEIgIOjgoMjJSoqOjpX379jYnKc3X5boeAAAAAACBhqCDQw4fPiyrVq2SPn362JyU6XJdT9cHAAAAACCQEHRwwLlz52TGjBkycOBAm3Ntup6ur98DAAAAACBQEHTwstjYWBk3bpwJJOTKlcvmXpuup+vr9/T7AAAAAAAEAoIOXqaBA+0yUbBgQZvjGV1fv6ffBwAAAAAgEBB08CLtIvHggw9KmTJlbE766Pf0+7odAAAAAAD8HUEHL1m+fLlUqFBBatSoYXMyRr+v29HtAQAAAADgzwg6eEFERIRcuHBBmjVrZnOuj25Ht6fbBQAAAADAXxF0uE779++XrVu3So8ePWyOd+j2dLu6fQAAAAAA/BFBh+tw4sQJWbBggfTt29fmeJduV7evfwcAAAAAAH+TIy4u7k/7OUvkyJHDfvI/c+fOlU6dOkmePHlsjvddvHhRli5dKiEhITYHAAAAAOBL/vwzS2+rfRpBBwAAAAAArgNBh9TRvQIAAAAAADiCoAMAAAAAAHAEQQcAAAAAAOAIgg4AAAAAAMARWT6QJAAAAAAACEy0dAAAAAAAAI4g6AAAAAAAABxB0AEAAAAAADiCoAMAAAAAAHAEQQcAAAAAAOAIgg4AAAAAAMARBB0AAAAAAIAjCDoAAAAAAABHEHQAAAAAAAAOEPl/1UUgkO+E9DgAAAAASUVORK5CYII=;" parent="1" vertex="1">
          <mxGeometry x="20" y="1130" width="754.77" height="410" as="geometry" />
        </mxCell>
        <mxCell id="STksctCF5sMNIfva34na-25" value="" style="edgeStyle=orthogonalEdgeStyle;rounded=0;orthogonalLoop=1;jettySize=auto;html=1;entryX=0.5;entryY=0;entryDx=0;entryDy=0;" edge="1" parent="1" source="STksctCF5sMNIfva34na-5" target="STksctCF5sMNIfva34na-9">
          <mxGeometry relative="1" as="geometry" />
        </mxCell>
        <mxCell id="STksctCF5sMNIfva34na-5" value="Main" style="swimlane;fontStyle=1;align=center;verticalAlign=top;childLayout=stackLayout;horizontal=1;startSize=26;horizontalStack=0;resizeParent=1;resizeParentMax=0;resizeLast=0;collapsible=1;marginBottom=0;whiteSpace=wrap;html=1;" vertex="1" parent="1">
          <mxGeometry x="333.40999999999997" y="20" width="160" height="60" as="geometry" />
        </mxCell>
        <mxCell id="STksctCF5sMNIfva34na-7" value="" style="line;strokeWidth=1;fillColor=none;align=left;verticalAlign=middle;spacingTop=-1;spacingLeft=3;spacingRight=3;rotatable=0;labelPosition=right;points=[];portConstraint=eastwest;strokeColor=inherit;" vertex="1" parent="STksctCF5sMNIfva34na-5">
          <mxGeometry y="26" width="160" height="8" as="geometry" />
        </mxCell>
        <mxCell id="STksctCF5sMNIfva34na-8" value="+void main(args: String[])" style="text;strokeColor=none;fillColor=none;align=left;verticalAlign=top;spacingLeft=4;spacingRight=4;overflow=hidden;rotatable=0;points=[[0,0.5],[1,0.5]];portConstraint=eastwest;whiteSpace=wrap;html=1;" vertex="1" parent="STksctCF5sMNIfva34na-5">
          <mxGeometry y="34" width="160" height="26" as="geometry" />
        </mxCell>
        <mxCell id="STksctCF5sMNIfva34na-9" value="Game" style="swimlane;fontStyle=1;align=center;verticalAlign=top;childLayout=stackLayout;horizontal=1;startSize=26;horizontalStack=0;resizeParent=1;resizeParentMax=0;resizeLast=0;collapsible=1;marginBottom=0;whiteSpace=wrap;html=1;" vertex="1" parent="1">
          <mxGeometry x="253.41000000000003" y="110" width="320" height="180" as="geometry" />
        </mxCell>
        <mxCell id="STksctCF5sMNIfva34na-10" value="-Scanner scanner&lt;div&gt;-Player player&lt;/div&gt;&lt;div&gt;-List&amp;lt;String&amp;gt; history&lt;/div&gt;" style="text;strokeColor=none;fillColor=none;align=left;verticalAlign=top;spacingLeft=4;spacingRight=4;overflow=hidden;rotatable=0;points=[[0,0.5],[1,0.5]];portConstraint=eastwest;whiteSpace=wrap;html=1;" vertex="1" parent="STksctCF5sMNIfva34na-9">
          <mxGeometry y="26" width="320" height="54" as="geometry" />
        </mxCell>
        <mxCell id="STksctCF5sMNIfva34na-11" value="" style="line;strokeWidth=1;fillColor=none;align=left;verticalAlign=middle;spacingTop=-1;spacingLeft=3;spacingRight=3;rotatable=0;labelPosition=right;points=[];portConstraint=eastwest;strokeColor=inherit;" vertex="1" parent="STksctCF5sMNIfva34na-9">
          <mxGeometry y="80" width="320" height="8" as="geometry" />
        </mxCell>
        <mxCell id="STksctCF5sMNIfva34na-12" value="+void start()&lt;div&gt;-double inputBet()&lt;/div&gt;&lt;div&gt;-int inputChoice()&lt;/div&gt;&lt;div&gt;-void resolveBet(double bet, int choice, int sum, int dice[])&lt;/div&gt;&lt;div&gt;-void printAndSaveHistory()&lt;/div&gt;" style="text;strokeColor=none;fillColor=none;align=left;verticalAlign=top;spacingLeft=4;spacingRight=4;overflow=hidden;rotatable=0;points=[[0,0.5],[1,0.5]];portConstraint=eastwest;whiteSpace=wrap;html=1;" vertex="1" parent="STksctCF5sMNIfva34na-9">
          <mxGeometry y="88" width="320" height="92" as="geometry" />
        </mxCell>
        <mxCell id="STksctCF5sMNIfva34na-13" value="Dice" style="swimlane;fontStyle=1;align=center;verticalAlign=top;childLayout=stackLayout;horizontal=1;startSize=26;horizontalStack=0;resizeParent=1;resizeParentMax=0;resizeLast=0;collapsible=1;marginBottom=0;whiteSpace=wrap;html=1;" vertex="1" parent="1">
          <mxGeometry x="350" y="370" width="110" height="60" as="geometry" />
        </mxCell>
        <mxCell id="STksctCF5sMNIfva34na-14" value="+int[] roll()" style="text;strokeColor=none;fillColor=none;align=left;verticalAlign=top;spacingLeft=4;spacingRight=4;overflow=hidden;rotatable=0;points=[[0,0.5],[1,0.5]];portConstraint=eastwest;whiteSpace=wrap;html=1;" vertex="1" parent="STksctCF5sMNIfva34na-13">
          <mxGeometry y="26" width="110" height="26" as="geometry" />
        </mxCell>
        <mxCell id="STksctCF5sMNIfva34na-15" value="" style="line;strokeWidth=1;fillColor=none;align=left;verticalAlign=middle;spacingTop=-1;spacingLeft=3;spacingRight=3;rotatable=0;labelPosition=right;points=[];portConstraint=eastwest;strokeColor=inherit;" vertex="1" parent="STksctCF5sMNIfva34na-13">
          <mxGeometry y="52" width="110" height="8" as="geometry" />
        </mxCell>
        <mxCell id="STksctCF5sMNIfva34na-17" value="Player" style="swimlane;fontStyle=1;align=center;verticalAlign=top;childLayout=stackLayout;horizontal=1;startSize=26;horizontalStack=0;resizeParent=1;resizeParentMax=0;resizeLast=0;collapsible=1;marginBottom=0;whiteSpace=wrap;html=1;" vertex="1" parent="1">
          <mxGeometry x="100" y="360" width="220" height="130" as="geometry" />
        </mxCell>
        <mxCell id="STksctCF5sMNIfva34na-18" value="-String name&lt;div&gt;-double balance&lt;/div&gt;" style="text;strokeColor=none;fillColor=none;align=left;verticalAlign=top;spacingLeft=4;spacingRight=4;overflow=hidden;rotatable=0;points=[[0,0.5],[1,0.5]];portConstraint=eastwest;whiteSpace=wrap;html=1;" vertex="1" parent="STksctCF5sMNIfva34na-17">
          <mxGeometry y="26" width="220" height="34" as="geometry" />
        </mxCell>
        <mxCell id="STksctCF5sMNIfva34na-19" value="" style="line;strokeWidth=1;fillColor=none;align=left;verticalAlign=middle;spacingTop=-1;spacingLeft=3;spacingRight=3;rotatable=0;labelPosition=right;points=[];portConstraint=eastwest;strokeColor=inherit;" vertex="1" parent="STksctCF5sMNIfva34na-17">
          <mxGeometry y="60" width="220" height="8" as="geometry" />
        </mxCell>
        <mxCell id="STksctCF5sMNIfva34na-20" value="+getter()&lt;div&gt;+void adjustBalance(double amount)&lt;/div&gt;&lt;div&gt;+String formatBalance()&lt;/div&gt;" style="text;strokeColor=none;fillColor=none;align=left;verticalAlign=top;spacingLeft=4;spacingRight=4;overflow=hidden;rotatable=0;points=[[0,0.5],[1,0.5]];portConstraint=eastwest;whiteSpace=wrap;html=1;" vertex="1" parent="STksctCF5sMNIfva34na-17">
          <mxGeometry y="68" width="220" height="62" as="geometry" />
        </mxCell>
        <mxCell id="STksctCF5sMNIfva34na-21" value="Utils" style="swimlane;fontStyle=1;align=center;verticalAlign=top;childLayout=stackLayout;horizontal=1;startSize=26;horizontalStack=0;resizeParent=1;resizeParentMax=0;resizeLast=0;collapsible=1;marginBottom=0;whiteSpace=wrap;html=1;" vertex="1" parent="1">
          <mxGeometry x="450" y="482" width="230" height="88" as="geometry" />
        </mxCell>
        <mxCell id="STksctCF5sMNIfva34na-22" value="+Locale LOCALE_VI&lt;div&gt;+NumberFormat CURRENCE_FORMAT&lt;/div&gt;&lt;div&gt;+Random RANDOM&lt;/div&gt;" style="text;strokeColor=none;fillColor=none;align=left;verticalAlign=top;spacingLeft=4;spacingRight=4;overflow=hidden;rotatable=0;points=[[0,0.5],[1,0.5]];portConstraint=eastwest;whiteSpace=wrap;html=1;" vertex="1" parent="STksctCF5sMNIfva34na-21">
          <mxGeometry y="26" width="230" height="54" as="geometry" />
        </mxCell>
        <mxCell id="STksctCF5sMNIfva34na-23" value="" style="line;strokeWidth=1;fillColor=none;align=left;verticalAlign=middle;spacingTop=-1;spacingLeft=3;spacingRight=3;rotatable=0;labelPosition=right;points=[];portConstraint=eastwest;strokeColor=inherit;" vertex="1" parent="STksctCF5sMNIfva34na-21">
          <mxGeometry y="80" width="230" height="8" as="geometry" />
        </mxCell>
        <mxCell id="STksctCF5sMNIfva34na-30" value="" style="edgeStyle=orthogonalEdgeStyle;rounded=0;orthogonalLoop=1;jettySize=auto;html=1;entryX=0.5;entryY=0;entryDx=0;entryDy=0;exitX=0.472;exitY=0.99;exitDx=0;exitDy=0;exitPerimeter=0;" edge="1" parent="1" source="STksctCF5sMNIfva34na-12" target="STksctCF5sMNIfva34na-13">
          <mxGeometry relative="1" as="geometry">
            <mxPoint x="400" y="270" as="sourcePoint" />
            <mxPoint x="423" y="120" as="targetPoint" />
          </mxGeometry>
        </mxCell>
        <mxCell id="STksctCF5sMNIfva34na-31" value="" style="edgeStyle=orthogonalEdgeStyle;rounded=0;orthogonalLoop=1;jettySize=auto;html=1;exitX=0.19;exitY=0.99;exitDx=0;exitDy=0;exitPerimeter=0;" edge="1" parent="1" source="STksctCF5sMNIfva34na-12" target="STksctCF5sMNIfva34na-17">
          <mxGeometry relative="1" as="geometry">
            <mxPoint x="414" y="289" as="sourcePoint" />
            <mxPoint x="415" y="380" as="targetPoint" />
          </mxGeometry>
        </mxCell>
        <mxCell id="STksctCF5sMNIfva34na-32" value="" style="edgeStyle=orthogonalEdgeStyle;rounded=0;orthogonalLoop=1;jettySize=auto;html=1;entryX=0.5;entryY=0;entryDx=0;entryDy=0;" edge="1" parent="1" target="STksctCF5sMNIfva34na-21">
          <mxGeometry relative="1" as="geometry">
            <mxPoint x="521" y="290" as="sourcePoint" />
            <mxPoint x="220" y="370" as="targetPoint" />
          </mxGeometry>
        </mxCell>
        <mxCell id="STksctCF5sMNIfva34na-33" value="" style="edgeStyle=orthogonalEdgeStyle;rounded=0;orthogonalLoop=1;jettySize=auto;html=1;entryX=0;entryY=0.5;entryDx=0;entryDy=0;" edge="1" parent="1" target="STksctCF5sMNIfva34na-22">
          <mxGeometry relative="1" as="geometry">
            <mxPoint x="201" y="490" as="sourcePoint" />
            <mxPoint x="415" y="380" as="targetPoint" />
          </mxGeometry>
        </mxCell>
      </root>
    </mxGraphModel>
  </diagram>
</mxfile>
